<?xml version="1.0" standalone="no"?>
<!DOCTYPE svg PUBLIC "-//W3C//DTD SVG 1.1//EN" "http://www.w3.org/Graphics/SVG/1.1/DTD/svg11.dtd" >
<svg>
<metadata>
Created by FontForge 20110222 at Thu May 30 10:57:23 2013
 By Orthosie Webhosting
Copyright (c) 2008 by studio kmzero. All rights reserved.
</metadata>
<defs>
<font id="Duepuntozero-Bold" horiz-adv-x="436" >
  <font-face 
    font-family="Duepuntozero"
    font-weight="700"
    font-stretch="normal"
    units-per-em="1000"
    panose-1="2 0 8 3 0 0 0 2 0 4"
    ascent="800"
    descent="-200"
    x-height="497"
    cap-height="660"
    bbox="-95 -238 887 881"
    underline-thickness="50"
    underline-position="-50"
    unicode-range="U+0020-FB02"
  />
<missing-glyph horiz-adv-x="265" 
 />
    <glyph glyph-name="fl" unicode="fl" horiz-adv-x="547" 
d="M218 659h137q22 0 38 -15.5t16 -38.5v-555q0 -23 -15.5 -38.5t-38.5 -15.5q-21 0 -37 15.5t-16 38.5v502h-83q-16 0 -30.5 -6.5t-25 -17t-17 -24.5t-6.5 -30v-172h82q22 0 37.5 -16t15.5 -38q0 -23 -15.5 -38.5t-37.5 -15.5h-82v-144q0 -23 -16 -38.5t-38 -15.5
t-37.5 15.5t-15.5 38.5v424q0 39 15 73t40.5 58.5t59.5 38.5q33 14 70 15z" />
    <glyph glyph-name="fi" unicode="fi" horiz-adv-x="442" 
d="M302 348q0 23 15.5 38.5t37.5 15.5t38 -15.5t16 -38.5v-298q0 -23 -15.5 -38.5t-38.5 -15.5q-21 0 -37 15.5t-16 38.5v144h-162v-144q0 -23 -16 -38.5t-38 -15.5t-37.5 15.5t-15.5 38.5v424q0 39 15 73t40.5 58.5t60 39t73.5 14.5q7 0 27 -2.5t45.5 -14t51.5 -35
t44 -64.5q5 -12 5 -19q0 -23 -15.5 -38.5t-38.5 -15.5q-37 0 -50 34q-9 22 -29 35t-43 13q-16 0 -30.5 -6.5t-25 -17t-17 -24.5t-6.5 -30v-172h162v46z" />
    <glyph glyph-name=".notdef" horiz-adv-x="265" 
 />
    <glyph glyph-name="c" unicode="c" horiz-adv-x="415" 
d="M29 315q0 39 15 73t41 58.5t60.5 39t73.5 14.5q7 0 28 -3t46.5 -14.5t51 -34.5t42.5 -64q2 -4 3 -9t1 -10q0 -23 -15.5 -38.5t-38.5 -15.5q-16 0 -29.5 9t-19.5 24q-10 22 -30 35t-43 13q-33 0 -56 -22.5t-23 -54.5v-134q0 -16 6.5 -30t17 -24.5t25 -16.5t30.5 -6
q23 0 43 12.5t30 35.5q6 14 19 23.5t30 9.5q23 0 38.5 -16t15.5 -38q0 -8 -5 -20q-20 -45 -49 -68.5t-56 -34t-46 -11.5t-20 -1q-38 0 -72 14.5t-59.5 40t-40 59t-14.5 71.5v134z" />
    <glyph glyph-name="d" unicode="d" horiz-adv-x="434" 
d="M293 602q0 23 16 38.5t38 15.5t38 -15.5t16 -38.5v-421q0 -38 -14.5 -71.5t-40 -59t-59.5 -40t-72 -14.5q-39 0 -72.5 14.5t-59 40t-40 59t-14.5 71.5v134q0 38 14.5 71.5t40 59t59.5 40t72 14.5q21 0 40.5 -5.5t37.5 -13.5v121zM136 181q0 -32 22.5 -54.5t56.5 -22.5
q32 0 55 22.5t23 54.5v134q0 32 -22.5 54.5t-55.5 22.5q-16 0 -30.5 -6t-25 -16.5t-17 -24.5t-6.5 -30v-134z" />
    <glyph glyph-name="e" unicode="e" horiz-adv-x="430" 
d="M29 315q0 38 14.5 71.5t40 59t59 40t72.5 14.5q38 0 72 -14.5t59.5 -40t40 -59t14.5 -71.5v-67q0 -23 -15.5 -38.5t-37.5 -15.5h-211v-13q0 -32 23 -54.5t55 -22.5q12 0 27.5 3t29.5 20q6 7 15 14.5t19.5 11.5t22.5 3.5t24 -9.5q16 -11 21.5 -31.5t-10.5 -43.5
q-22 -29 -57 -52.5t-92 -23.5q-38 0 -72 14.5t-59.5 40t-40 59t-14.5 71.5v134zM137 302h157v13q0 16 -6.5 30t-17 24.5t-25 16.5t-30.5 6q-33 0 -55.5 -22.5t-22.5 -54.5v-13z" />
    <glyph glyph-name="n" unicode="n" 
d="M32 315q0 38 14.5 71.5t40 59t59 40t72.5 14.5q38 0 72 -14.5t59.5 -40t40 -59t14.5 -71.5v-265q0 -23 -16 -38.5t-38 -15.5t-37.5 15.5t-15.5 38.5v265q0 16 -6.5 30t-17 24.5t-25 16.5t-30.5 6q-33 0 -56 -22.5t-23 -54.5v-265q0 -23 -16 -38.5t-37 -15.5
q-23 0 -38.5 15.5t-15.5 38.5v265z" />
    <glyph glyph-name="o" unicode="o" horiz-adv-x="430" 
d="M29 315q0 38 14.5 71.5t40 59t59 40t72.5 14.5q38 0 72 -14.5t59.5 -40t40 -59t14.5 -71.5v-134q0 -38 -14.5 -71.5t-40 -59t-59 -40t-72.5 -14.5q-38 0 -72 14.5t-59.5 40t-40 59t-14.5 71.5v134zM137 181q0 -32 23 -54.5t55 -22.5q34 0 56.5 22.5t22.5 54.5v134
q0 16 -6.5 30t-17 24.5t-25 16.5t-30.5 6q-33 0 -55.5 -22.5t-22.5 -54.5v-134z" />
    <glyph glyph-name="p" unicode="p" horiz-adv-x="433" 
d="M32 315q0 38 14.5 71.5t40 59t59 40t72.5 14.5q38 0 72 -14.5t59.5 -40t40 -59t14.5 -71.5v-134q0 -38 -14.5 -71.5t-40 -59t-59 -40t-72.5 -14.5q-21 0 -41.5 5t-37.5 13v-123q0 -23 -16 -38.5t-37 -15.5q-23 0 -38.5 15.5t-15.5 38.5v424zM139 181q0 -16 6.5 -30
t17 -24.5t25 -16.5t30.5 -6q33 0 56 22.5t23 54.5v134q0 16 -6.5 30t-17 24.5t-25 16.5t-30.5 6q-33 0 -56 -22.5t-23 -54.5v-134z" />
    <glyph glyph-name="q" unicode="q" horiz-adv-x="433" 
d="M29 315q0 38 14.5 71.5t40 59t59.5 40t72 14.5q39 0 72.5 -14.5t59 -40t40 -59t14.5 -71.5v-424q0 -23 -15.5 -38.5t-38.5 -15.5q-22 0 -38 15.5t-16 38.5v123q-18 -8 -37 -13t-41 -5q-39 0 -72.5 14.5t-59 40t-40 59t-14.5 71.5v134zM136 181q0 -32 22.5 -54.5
t56.5 -22.5q32 0 55 22.5t23 54.5v134q0 32 -22.5 54.5t-55.5 22.5q-16 0 -30.5 -6t-25 -16.5t-17 -24.5t-6.5 -30v-134z" />
    <glyph glyph-name="u" unicode="u" 
d="M32 446q0 23 15.5 38.5t38.5 15.5q21 0 37 -15.5t16 -38.5v-265q0 -32 23 -54.5t56 -22.5q16 0 30.5 6t25 16.5t17 24.5t6.5 30v265q0 23 15.5 38.5t37.5 15.5t38 -15.5t16 -38.5v-265q0 -38 -14.5 -71.5t-40 -59t-59.5 -40t-72 -14.5q-39 0 -72.5 14.5t-59 40t-40 59
t-14.5 71.5v265z" />
    <glyph glyph-name="h" unicode="h" horiz-adv-x="437" 
d="M33 602q0 23 15.5 38.5t38.5 15.5q21 0 37 -15.5t16 -38.5v-120q18 8 37.5 13t41.5 5q38 0 72 -14.5t59.5 -40t40 -59t14.5 -71.5v-265q0 -23 -16 -38.5t-38 -15.5t-37.5 15.5t-15.5 38.5v265q0 32 -23.5 54.5t-55.5 22.5q-33 0 -55 -21.5t-24 -53.5v-267
q0 -23 -16 -38.5t-37 -15.5q-23 0 -38.5 15.5t-15.5 38.5v552z" />
    <glyph glyph-name="g" unicode="g" horiz-adv-x="433" 
d="M29 315q0 38 14.5 71.5t40 59t59 40t72.5 14.5q38 0 71.5 -14.5t59 -40t40.5 -59t15 -71.5v-293q0 -38 -15 -72t-40.5 -59t-59 -39.5t-71.5 -14.5q-23 0 -38.5 15.5t-15.5 38.5q0 22 15.5 37.5t38.5 15.5q29 0 51.5 20.5t25.5 49.5q-36 -18 -77 -18q-38 0 -72 14.5
t-59.5 40t-40 59t-14.5 71.5v134zM136 181q0 -16 6.5 -30t17 -24.5t25 -16.5t30.5 -6q31 0 53.5 21t24.5 52v138q0 32 -23 54.5t-55 22.5q-34 0 -56.5 -22.5t-22.5 -54.5v-134z" />
    <glyph glyph-name="i" unicode="i" horiz-adv-x="173" 
d="M33 446q0 23 15.5 38.5t37.5 15.5t38 -15.5t16 -38.5v-396q0 -23 -15.5 -38.5t-38.5 -15.5q-21 0 -37 15.5t-16 38.5v396zM33 605q0 23 15.5 38.5t37.5 15.5t38 -15.5t16 -38.5v-27q0 -22 -15.5 -37.5t-38.5 -15.5q-21 0 -37 15.5t-16 37.5v27z" />
    <glyph glyph-name="r" unicode="r" horiz-adv-x="348" 
d="M33 442q0 23 15.5 38.5t37.5 15.5q25 0 42 -20q43 24 94 24l19 -2t41.5 -9t41.5 -22t19 -40q0 -24 -15.5 -39t-38.5 -15q-17 0 -32 10q-9 5 -18 7t-20 2q-33 0 -55 -21.5t-24 -52.5v-268q0 -23 -15.5 -38.5t-38.5 -15.5q-21 0 -37 15.5t-16 38.5v392z" />
    <glyph glyph-name="m" unicode="m" horiz-adv-x="663" 
d="M32 315q0 38 13 71.5t36.5 59t55.5 40t71 14.5q37 0 68.5 -14t54.5 -37q24 25 54.5 38t69.5 13q38 0 70.5 -14.5t56 -40t36.5 -59t13 -71.5v-265q0 -23 -16 -38.5t-37 -15.5q-23 0 -38.5 15.5t-15.5 38.5v265q0 32 -19 54.5t-50 22.5q-33 0 -51.5 -22.5t-18.5 -54.5v-265
q0 -23 -16 -38.5t-38 -15.5t-37.5 15.5t-15.5 38.5v265q0 32 -19 54.5t-51 22.5t-50.5 -22.5t-18.5 -54.5v-265q0 -23 -16 -38.5t-38 -15.5t-37.5 15.5t-15.5 38.5v265z" />
    <glyph glyph-name="t" unicode="t" horiz-adv-x="401" 
d="M33 595q0 23 15.5 38.5t37.5 15.5t38 -15.5t16 -38.5v-99h161q23 0 38.5 -15.5t15.5 -38.5q0 -21 -15.5 -37t-38.5 -16h-161v-208q0 -16 6.5 -30t17 -24.5t25 -16.5t30.5 -6q23 0 43 12.5t30 35.5q6 14 19 23.5t30 9.5q23 0 38.5 -16t15.5 -38q0 -8 -5 -20
q-20 -45 -49 -68.5t-56 -34t-46 -11.5t-20 -1q-38 0 -72 14.5t-59.5 40t-40 59t-14.5 71.5v414z" />
    <glyph glyph-name="s" unicode="s" horiz-adv-x="419" 
d="M34 352q0 33 13 60t36.5 46.5t56 30.5t70.5 11q31 -1 60 -10q25 -8 51 -24t43 -46q9 -15 9 -30q0 -22 -15 -37.5t-37 -15.5q-11 0 -23 5.5t-20 16.5v-1q-14 18 -29 26t-39 8q-31 0 -50 -11.5t-19 -28.5q0 -23 18.5 -32t50.5 -9q38 0 72 -10t59.5 -30t40 -49t14.5 -68
q0 -40 -15 -69.5t-40.5 -49t-60 -29.5t-72.5 -10q-8 0 -30 2.5t-49 13.5t-54.5 34.5t-45.5 64.5q-4 8 -4 20q0 22 15.5 38t38.5 16q17 0 30 -9.5t19 -23.5q10 -23 34 -35.5t48 -12.5q32 0 55.5 10.5t23.5 39.5t-22.5 39.5t-56.5 10.5q-38 0 -70.5 7.5t-56 24.5t-36.5 45.5
t-13 70.5z" />
    <glyph glyph-name="l" unicode="l" horiz-adv-x="173" 
d="M33 602q0 23 15.5 38.5t37.5 15.5t38 -15.5t16 -38.5v-552q0 -23 -15.5 -38.5t-38.5 -15.5q-21 0 -37 15.5t-16 38.5v552z" />
    <glyph glyph-name="j" unicode="j" horiz-adv-x="177" 
d="M-42 -56q32 0 54.5 22t24.5 53v427q0 23 16 38.5t38 15.5t37.5 -15.5t15.5 -38.5v-424q0 -38 -14.5 -72t-40 -59t-59.5 -39.5t-72 -14.5q-22 0 -37.5 15.5t-15.5 38.5q0 22 15.5 37.5t37.5 15.5zM37 605q0 23 15.5 38.5t38.5 15.5q21 0 37 -15.5t16 -38.5v-27
q0 -22 -15.5 -37.5t-37.5 -15.5t-38 15.5t-16 37.5v27z" />
    <glyph glyph-name="f" unicode="f" horiz-adv-x="399" 
d="M33 474q0 39 15 73t40.5 58.5t60 39t73.5 14.5q7 0 27 -2.5t45.5 -14t51.5 -35t44 -64.5q5 -12 5 -19q0 -23 -15.5 -38.5t-38.5 -15.5q-37 0 -50 34q-9 22 -29 35t-43 13q-16 0 -30.5 -6.5t-25 -17t-17 -24.5t-6.5 -30v-172h82q22 0 37.5 -16t15.5 -38q0 -23 -15.5 -38.5
t-37.5 -15.5h-82v-144q0 -23 -16 -38.5t-38 -15.5t-37.5 15.5t-15.5 38.5v424z" />
    <glyph glyph-name="w" unicode="w" horiz-adv-x="663" 
d="M32 446q0 23 16 38.5t37 15.5q23 0 38.5 -15.5t15.5 -38.5v-265q0 -32 19 -54.5t50 -22.5q33 0 51.5 22.5t18.5 54.5v265q0 23 16 38.5t37 15.5q23 0 38.5 -15.5t15.5 -38.5v-265q0 -32 19 -54.5t51 -22.5t50.5 22.5t18.5 54.5v265q0 23 16 38.5t38 15.5t37.5 -15.5
t15.5 -38.5v-265q0 -38 -13 -71.5t-36.5 -59t-55.5 -40t-71 -14.5q-38 0 -69 14t-55 37q-23 -25 -53.5 -38t-69.5 -13q-38 0 -70.5 14.5t-56 40t-36.5 59t-13 71.5v265z" />
    <glyph glyph-name="v" unicode="v" horiz-adv-x="476" 
d="M20 425q-4 8 -4 21q0 20 14 37t39 17q16 0 29 -8t20 -24l120 -283q29 66 61 141.5t60 141.5q14 32 49 32q24 0 38 -17t14 -37q0 -5 -1 -10.5t-3 -10.5l-169 -396q-14 -33 -49 -33q-37 0 -50 34l1 -1z" />
    <glyph glyph-name="k" unicode="k" horiz-adv-x="421" 
d="M33 602q0 23 15.5 38.5t38.5 15.5q21 0 37 -15.5t16 -38.5v-237q38 30 76 61l76 62q15 12 34 12q20 0 36 -15t16 -39q0 -12 -4 -23t-14 -19l-135 -109q45 -54 87 -105.5t88 -105.5q13 -16 13 -35q0 -20 -15.5 -36.5t-37.5 -16.5q-26 0 -42 19l-177 214l-1 -1v-178
q0 -23 -15.5 -38.5t-37.5 -15.5t-38 15.5t-16 38.5v552z" />
    <glyph glyph-name="x" unicode="x" horiz-adv-x="495" 
d="M46 412h1q-7 8 -10 17t-3 17q0 22 15.5 38t40.5 16q11 0 21.5 -4t18.5 -15q16 -20 30.5 -37t28.5 -34t28 -34.5t31 -37.5q29 35 58.5 71.5t58.5 71.5q8 11 19 15t22 4q24 0 39.5 -16t15.5 -38q0 -19 -12 -34q-34 -41 -66 -82t-67 -83q34 -41 66.5 -81t66.5 -81
q12 -15 12 -35t-15.5 -37t-39.5 -17q-23 0 -41 20q-16 20 -30.5 37t-28 33.5t-28 34t-30.5 37.5q-29 -35 -59 -71t-59 -71q-8 -9 -18.5 -14.5t-21.5 -5.5q-25 0 -40.5 17t-15.5 37t12 35q35 43 65.5 81.5t65.5 81.5z" />
    <glyph glyph-name="z" unicode="z" horiz-adv-x="451" 
d="M100 390q-23 0 -38.5 15.5t-15.5 37.5t15.5 38t38.5 16h251q26 0 45 -13t19 -39q0 -6 -2.5 -14.5t-8.5 -17.5l-213 -306h174q22 0 37.5 -15.5t15.5 -37.5t-15.5 -38t-37.5 -16h-273q-28 0 -44.5 15t-16.5 38q0 16 11 30q29 42 55 79.5t52 74t52.5 74t55.5 79.5h-157z" />
    <glyph glyph-name="y" unicode="y" 
d="M32 446q0 23 15.5 38.5t38.5 15.5q22 0 38 -15.5t16 -38.5v-273q0 -32 22.5 -54.5t55.5 -22.5q16 0 30.5 6t25 16.5t17 24.5t6.5 30v273q0 23 15.5 38.5t38.5 15.5q21 0 37 -15.5t16 -38.5v-273q0 -32 -10 -60.5t-27.5 -51.5t-41.5 -40t-53 -25v-105q0 -23 -15.5 -38.5
t-38.5 -15.5q-21 0 -37 15.5t-16 38.5v105q-29 8 -53.5 25t-42 40t-27.5 51.5t-10 60.5v273z" />
    <glyph glyph-name="O" unicode="O" horiz-adv-x="544" 
d="M28 438q0 50 19.5 94.5t52.5 77.5t77.5 52t94.5 19t94.5 -19t77.5 -52t52.5 -77.5t19.5 -94.5v-216q0 -50 -19.5 -94t-52.5 -77t-77.5 -52.5t-94.5 -19.5t-94.5 19.5t-77.5 52.5t-52.5 77t-19.5 94v216zM138 222q0 -27 10.5 -51.5t29 -42.5t43 -28.5t51.5 -10.5
q28 0 52.5 10.5t42.5 28.5t28.5 42.5t10.5 51.5v216q0 27 -10.5 51.5t-29 42.5t-43 28.5t-51.5 10.5q-28 0 -52.5 -10.5t-42.5 -28.5t-28.5 -42.5t-10.5 -51.5v-216z" />
    <glyph glyph-name="Q" unicode="Q" horiz-adv-x="544" 
d="M28 439q0 50 19.5 94.5t52.5 77.5t77.5 52t94.5 19t94.5 -19t77.5 -52t52.5 -77.5t19.5 -94.5v-221q0 -43 -14.5 -81.5t-39.5 -70t-60 -53.5t-75 -31v-48q0 -23 -16 -39t-39 -16q-22 0 -38 16t-16 39v48q-41 9 -75.5 31t-60 53.5t-40 70t-14.5 81.5v221zM138 218
q0 -27 10.5 -51.5t29 -42.5t43 -28.5t51.5 -10.5q28 0 52.5 10.5t42.5 28.5t28.5 42.5t10.5 51.5v221q0 27 -10.5 51.5t-29 42.5t-43 28.5t-51.5 10.5q-28 0 -52.5 -10.5t-42.5 -28.5t-28.5 -42.5t-10.5 -51.5v-221z" />
    <glyph glyph-name="U" unicode="U" horiz-adv-x="551" 
d="M32 609q0 23 16 39t39 16q22 0 38 -16t16 -39v-386q0 -27 11 -51.5t29.5 -42.5t43 -28.5t51.5 -10.5q28 0 52.5 10.5t42.5 28.5t28.5 42.5t10.5 51.5v386q0 23 16 39t39 16q22 0 38 -16t16 -39v-386q0 -50 -19 -94t-52 -77t-77.5 -52.5t-94.5 -19.5t-94.5 19.5
t-77.5 52.5t-52.5 77t-19.5 94v386z" />
    <glyph glyph-name="N" unicode="N" horiz-adv-x="550" 
d="M32 421q0 50 19 94t52 77t77.5 52.5t94.5 19.5t94.5 -19.5t77.5 -52.5t52.5 -77t19.5 -94v-370q0 -23 -15.5 -39t-38.5 -16q-22 0 -38.5 16t-16.5 39v370q0 27 -10.5 51.5t-29 42.5t-43 28.5t-52.5 10.5t-52.5 -10.5t-42.5 -28.5t-28.5 -42.5t-10.5 -51.5v-370
q0 -23 -15.5 -39t-38.5 -16t-39 16t-16 39v370z" />
    <glyph glyph-name="I" unicode="I" horiz-adv-x="180" 
d="M35 605q0 23 16 39t39 16q22 0 38.5 -16t16.5 -39v-554q0 -23 -16 -39t-39 -16q-22 0 -38.5 16t-16.5 39v554z" />
    <glyph glyph-name="J" unicode="J" horiz-adv-x="286" 
d="M62 89q32 0 55 22t25 54v440q0 23 16 39t39 16t38.5 -16t15.5 -39v-437q0 -39 -15 -73.5t-40.5 -60t-60 -40.5t-73.5 -15q-23 0 -39 16t-16 39t16 39t39 16z" />
    <glyph glyph-name="M" unicode="M" horiz-adv-x="863" 
d="M32 421q0 50 17.5 94t48.5 77t73.5 52.5t93.5 19.5q54 0 95.5 -20t70.5 -52q31 30 73 51t93 21q50 0 93 -19.5t74.5 -52.5t49 -77t17.5 -94v-366q0 -23 -16 -39t-38 -16q-23 0 -39 16t-16 39v366q0 27 -9 51.5t-25.5 42.5t-39.5 28.5t-51 10.5q-27 0 -47.5 -10.5
t-34.5 -28.5t-21.5 -42.5t-7.5 -51.5v-370q0 -23 -16 -39t-39 -16t-38.5 16t-15.5 39v371q0 27 -8 51t-22 42t-35 28.5t-47 10.5q-27 0 -50 -10.5t-39.5 -28.5t-25.5 -42.5t-9 -51.5v-370q0 -23 -16 -39t-39 -16t-38.5 16t-15.5 39v370z" />
    <glyph glyph-name="C" unicode="C" horiz-adv-x="524" 
d="M28 439q0 50 19 94.5t52 77.5t77.5 52t95.5 19q37 0 71 -10.5t63 -30t51.5 -46t36.5 -58.5q4 -7 5.5 -15t1.5 -14q0 -20 -14 -37t-40 -17q-34 0 -50 33q-15 37 -48.5 61t-76.5 24q-28 0 -52.5 -10.5t-43 -28.5t-29 -42.5t-10.5 -51.5v-217q0 -27 11 -51.5t29.5 -42.5
t43 -28.5t51.5 -10.5q43 0 76.5 24.5t49.5 61.5q7 14 21.5 23t27.5 9q25 0 39.5 -17t14.5 -37q0 -12 -4 -21q-13 -34 -35.5 -62t-51.5 -48.5t-64 -31.5t-74 -11q-50 0 -94.5 19.5t-77.5 52.5t-52.5 77t-19.5 94v217z" />
    <glyph glyph-name="G" unicode="G" horiz-adv-x="544" 
d="M28 438q0 50 19.5 94.5t52.5 77.5t77.5 52t94.5 19q38 0 73 -11t64.5 -31t52 -48t36.5 -62q2 -5 2.5 -10.5t0.5 -11.5q0 -20 -14 -37t-40 -17q-14 0 -28 8t-21 24q-16 38 -49.5 62t-76.5 24q-28 0 -52.5 -10.5t-42.5 -28.5t-28.5 -42.5t-10.5 -51.5v-216
q0 -27 10.5 -51.5t29 -42.5t43 -28.5t51.5 -10.5q28 0 52.5 10.5t42.5 28.5t28.5 42.5t10.5 51.5v27h-54q-23 0 -38.5 16t-15.5 39q0 22 15.5 38t38.5 16h109q23 0 39 -15.5t16 -38.5v-82q0 -50 -19.5 -94t-52.5 -77t-77.5 -52.5t-94.5 -19.5t-94.5 19.5t-77.5 52.5
t-52.5 77t-19.5 94v216z" />
    <glyph glyph-name="T" unicode="T" horiz-adv-x="515" 
d="M68 551q-23 0 -38.5 15.5t-15.5 38.5t15.5 39t38.5 16h378q23 0 39 -16t16 -39q0 -22 -16 -38t-39 -16h-134v-500q0 -23 -16 -39t-39 -16q-22 0 -38.5 16t-16.5 39v500h-134z" />
    <glyph glyph-name="H" unicode="H" horiz-adv-x="557" 
d="M35 605q0 23 16 39t39 16t38.5 -16t15.5 -39v-230h269v230q0 23 16 39t39 16t38.5 -16t15.5 -39v-554q0 -23 -16 -39t-38 -16q-23 0 -39 16t-16 39v215h-269v-215q0 -23 -16 -39t-38 -16q-23 0 -39 16t-16 39v554z" />
    <glyph glyph-name="P" unicode="P" horiz-adv-x="531" 
d="M35 605q0 23 16 39t39 16h189q50 0 94 -19t77 -51.5t52.5 -76t19.5 -93.5t-19 -94t-52 -76.5t-77.5 -51.5t-94.5 -19h-135v-128q0 -23 -15.5 -39t-38.5 -16t-39 16t-16 39v554zM144 551v-262h135q28 0 52.5 10t42.5 28t28.5 42t10.5 51t-10.5 51t-29 41.5t-43 28
t-51.5 10.5h-135z" />
    <glyph glyph-name="W" unicode="W" horiz-adv-x="863" 
d="M32 609q0 23 16 39t38 16q23 0 39 -16t16 -39v-371q0 -27 9 -51.5t25.5 -42.5t39.5 -28.5t51 -10.5q27 0 47.5 10.5t34.5 28.5t21.5 42.5t7.5 51.5v371q0 23 15.5 39t38.5 16t39 -16t16 -39v-372q0 -27 7.5 -51t22 -42t35.5 -28.5t47 -10.5q27 0 50 10.5t39.5 28.5
t25.5 42.5t9 51.5v371q0 23 16 39t39 16t38.5 -16t15.5 -39v-371q0 -50 -17.5 -94t-48.5 -77t-73.5 -52.5t-93.5 -19.5q-54 0 -96 19.5t-71 51.5q-32 -32 -71.5 -51.5t-93.5 -19.5q-50 0 -93 19.5t-74.5 52.5t-49 77t-17.5 94v371z" />
    <glyph glyph-name="E" unicode="E" horiz-adv-x="555" 
d="M35 605q0 23 16 39t39 16h378q23 0 38.5 -16t15.5 -39q0 -22 -15.5 -38t-38.5 -16h-324v-176h200q23 0 38.5 -15.5t15.5 -38.5t-15.5 -39t-38.5 -16h-200v-157h324q23 0 38.5 -15.5t15.5 -38.5t-15.5 -39t-38.5 -16h-378q-23 0 -39 16t-16 39v550z" />
    <glyph glyph-name="F" unicode="F" horiz-adv-x="525" 
d="M35 605q0 23 15 38t37 17h381q23 0 38.5 -16t15.5 -39q0 -22 -15.5 -38t-38.5 -16h-324v-176h200q23 0 38.5 -15.5t15.5 -38.5t-15.5 -39t-38.5 -16h-200v-215q0 -23 -15.5 -39t-38.5 -16t-39 16t-16 39v554z" />
    <glyph glyph-name="D" unicode="D" horiz-adv-x="550" 
d="M35 605q0 23 16 39t39 16h188q51 0 95.5 -19t77.5 -51.5t52 -76t19 -93.5v-180q0 -50 -19 -93.5t-52 -76t-77.5 -51.5t-94.5 -19h-189q-23 0 -39 16t-16 39v550zM144 551v-442h135q28 0 52.5 10.5t42.5 28t28.5 41.5t10.5 51v180q0 27 -10.5 51t-28.5 41.5t-43 28
t-53 10.5h-134z" />
    <glyph glyph-name="B" unicode="B" horiz-adv-x="543" 
d="M35 605q0 23 16 39t39 16h188q30 0 56.5 -11.5t46.5 -31t31.5 -45.5t11.5 -56q0 -39 -18 -70q53 -32 84.5 -86t31.5 -120q0 -50 -19 -93.5t-52 -76t-77.5 -51.5t-94.5 -19h-189q-23 0 -39 16t-16 39v550zM413 240q0 27 -10.5 50.5t-28.5 41t-43 28t-53 11.5h-134v-262
h135q28 0 52.5 10.5t42.5 28t28.5 41.5t10.5 51zM144 551v-70h135q15 0 25.5 10t10.5 25t-11 25t-26 10h-134z" />
    <glyph glyph-name="R" unicode="R" horiz-adv-x="558" 
d="M35 605q0 23 16 39t39 16h189q50 0 94.5 -19t77.5 -51.5t52 -76t19 -93.5q0 -67 -30 -120.5t-84 -84.5q26 -32 54.5 -65t54.5 -63q13 -16 13 -36q0 -23 -16 -39.5t-39 -16.5t-41 18l-128 153v-1q-6 6 -12.5 10t-13.5 4h-136v-128q0 -23 -16 -39t-38 -16q-23 0 -39 16
t-16 39v554zM144 551v-262h135q27 0 51.5 10t43 28t29 42t10.5 51t-10.5 51t-28.5 41.5t-42.5 28t-52.5 10.5h-135z" />
    <glyph glyph-name="L" unicode="L" horiz-adv-x="525" 
d="M35 609q0 23 16 39t39 16q22 0 38 -16t16 -39v-500h324q23 0 38.5 -15.5t15.5 -38.5t-15.5 -39t-38.5 -16h-378q-23 0 -39 16t-16 39v554z" />
    <glyph glyph-name="K" unicode="K" horiz-adv-x="508" 
d="M35 609q0 23 16 39t39 16q22 0 38 -16t16 -39v-120q49 39 98 81.5t98 81.5q16 12 34 12q21 0 37.5 -15.5t16.5 -39.5q0 -12 -4.5 -23.5t-14.5 -19.5l-179 -147l238 -333q14 -17 14 -36q0 -21 -15.5 -37.5t-38.5 -16.5q-25 0 -43 19l-239 342l-2 -2v-304q0 -23 -15.5 -39
t-38.5 -16t-39 16t-16 39v558z" />
    <glyph glyph-name="Y" unicode="Y" horiz-adv-x="545" 
d="M28 609q0 23 16 39t39 16q22 0 38.5 -16t16.5 -39v-188q0 -27 10.5 -51t29 -42t43 -28.5t52.5 -10.5t52 10.5t42 28.5t28.5 42t10.5 51v188q0 23 16 39t39 16q22 0 38.5 -16t16.5 -39v-188q0 -42 -14.5 -80.5t-39.5 -70t-60 -53.5t-75 -31v-135q0 -23 -15.5 -39
t-38.5 -16t-39 16t-16 39v135q-41 9 -75.5 31t-60 53.5t-40 70t-14.5 80.5v188z" />
    <glyph glyph-name="X" unicode="X" horiz-adv-x="598" 
d="M46 575q-12 15 -12 34q0 22 15.5 38.5t40.5 16.5q11 0 22.5 -4.5t19.5 -15.5l168 -222q42 55 83.5 111.5t83.5 110.5q8 11 19.5 15.5t22.5 4.5q25 0 40 -16.5t15 -38.5q0 -8 -2 -17t-9 -17q-48 -63 -92.5 -122t-92.5 -122q48 -61 93 -122.5t92 -122.5q7 -8 9 -17t2 -18
q0 -21 -15 -38t-40 -17q-24 0 -42 21l-167 222q-42 -54 -84 -111t-84 -111q-18 -21 -42 -21q-25 0 -40.5 17t-15.5 38q0 20 12 35q48 63 92.5 122.5t92.5 122.5z" />
    <glyph glyph-name="Z" unicode="Z" horiz-adv-x="571" 
d="M98 551q-23 0 -39 15.5t-16 38.5t16 39t39 16h368q27 0 46 -13.5t19 -39.5q0 -6 -2.5 -15t-7.5 -18l-328 -465h290q23 0 39 -15.5t16 -38.5t-16 -39t-39 -16h-389q-29 0 -45.5 15.5t-16.5 38.5q0 7 2.5 15.5t7.5 16.5q81 115 163 231t165 234h-272z" />
    <glyph glyph-name="V" unicode="V" horiz-adv-x="615" 
d="M19 585q-4 7 -4 21q0 21 14.5 38t39.5 17q16 0 29 -8t21 -25l188 -439q48 110 95 220t94 219q13 33 50 33q25 0 39.5 -17t14.5 -38q0 -5 -1 -10.5t-4 -10.5l-238 -556q-7 -19 -29 -29q-8 -4 -21 -4q-34 0 -50 33z" />
    <glyph glyph-name="A" unicode="A" horiz-adv-x="608" 
d="M250 631q16 33 50 33q17 0 30.5 -10t19.5 -23l238 -560q5 -12 5 -21q0 -19 -14.5 -36.5t-39.5 -17.5q-37 0 -50 33l-62 148h-253q-16 -37 -31.5 -74t-30.5 -74q-8 -17 -21 -25t-29 -8q-25 0 -39.5 17.5t-14.5 36.5q0 5 1 11t3 10zM300 472q-11 -24 -20.5 -46.5
t-19.5 -44.5t-20 -45t-21 -49h161z" />
    <glyph glyph-name="ampersand" unicode="&#x26;" horiz-adv-x="592" 
d="M522 472q23 0 38.5 -16t15.5 -38t-15.5 -37.5t-38.5 -15.5h-30v-131q0 -49 -17.5 -92t-48.5 -75.5t-73 -51.5t-91 -19t-92.5 19t-76 51.5t-51.5 75.5t-19 92q0 65 31.5 118t82.5 85q-8 15 -13 32.5t-5 36.5q0 30 11.5 55.5t31 45t45.5 30.5t56 11h103q22 0 37.5 -15.5
t15.5 -38.5q0 -22 -15.5 -38t-37.5 -16h-103q-14 0 -25 -9.5t-11 -24.5q0 -14 9 -23.5t22 -10.5h99h28v12q0 23 15 38.5t38 15.5q21 0 37.5 -15.5t16.5 -38.5v-12h30zM262 365q-27 0 -50.5 -10.5t-41.5 -28.5t-28.5 -41.5t-10.5 -50.5t10 -50.5t28 -41t42 -28t51 -10.5
t49.5 10.5t39 28t25.5 41t9 50.5v131h-28h-95z" />
    <glyph glyph-name="zero" unicode="0" horiz-adv-x="468" 
d="M30 479q0 42 16 78.5t43.5 64t64.5 43.5t79 16t79.5 -16t65.5 -43.5t44 -64t16 -78.5v-297q0 -42 -16 -78.5t-44 -64.5t-65.5 -44t-79.5 -16t-78.5 16t-64.5 44t-44 64.5t-16 78.5v297zM331 479q0 20 -7.5 37.5t-21 30.5t-31.5 20.5t-38 7.5q-40 0 -68 -28t-28 -68v-297
q0 -20 7.5 -37.5t21 -30t30.5 -20t37 -7.5q42 0 70 27.5t28 67.5v297z" />
    <glyph glyph-name="eight" unicode="8" horiz-adv-x="487" 
d="M52 493q0 39 15 73t41.5 60t61 41t73.5 15q40 0 75 -15t61 -41t41 -61t15 -74q0 -35 -13.5 -68.5t-36.5 -59.5q35 -30 56 -73.5t21 -92.5q0 -45 -17 -84.5t-47 -69t-70 -46.5t-85 -17t-84.5 17t-69 47t-47 69.5t-17.5 84.5q0 48 22 91.5t55 73.5q-23 26 -36.5 59
t-13.5 71zM352 197q0 22 -8.5 41t-23 33.5t-34.5 23.5t-43 10q-22 0 -41.5 -8.5t-34 -23t-23 -34.5t-8.5 -43q0 -22 8.5 -41t23 -33.5t34 -22.5t41.5 -8q23 0 43 8.5t34.5 22.5t23 33.5t8.5 41.5zM241 572q-35 0 -58.5 -23.5t-23.5 -57.5q0 -16 6.5 -30.5t17.5 -25t26 -16.5
t32 -6q33 0 56.5 23t23.5 55q0 34 -23.5 57.5t-56.5 23.5zM47 257h1h-1z" />
    <glyph glyph-name="three" unicode="3" horiz-adv-x="455" 
d="M47 505q0 36 14 68.5t38.5 56.5t57 38t69.5 14t69.5 -14t57 -38t38.5 -56.5t14 -69.5q0 -17 -2 -36.5t-7 -38.5t-14 -36t-24 -29q16 -14 29.5 -35.5t23 -46.5t14.5 -51t5 -49q0 -42 -16 -78.5t-43.5 -64.5t-65 -44t-79.5 -16t-79 16t-64.5 44t-44 64.5t-16.5 78.5
q0 23 15.5 38.5t38.5 15.5q22 0 38 -15.5t16 -38.5q0 -40 28 -67.5t68 -27.5q41 0 69 27.5t28 68.5q0 19 -7.5 38.5t-21 36t-31 27t-37.5 11.5q-22 0 -37.5 17.5t-15.5 39.5t13.5 40.5t39.5 18.5h3q21 1 34.5 9.5t21 22t10 29t2.5 29.5q0 29 -21 50t-50 21
q-30 0 -50.5 -20.5t-20.5 -49.5q0 -23 -16 -38.5t-38 -15.5q-23 0 -38.5 15.5t-15.5 40.5z" />
    <glyph glyph-name="five" unicode="5" horiz-adv-x="461" 
d="M52 606q0 23 15.5 38.5t38.5 15.5h250q23 0 38.5 -15.5t15.5 -38.5q0 -22 -15.5 -38t-38.5 -16h-197v-117q33 13 72 13q42 0 79 -16t65 -43.5t44 -64t16 -78.5v-68q0 -42 -16 -78.5t-44 -64.5t-65 -44t-79 -16t-79 16t-64.5 44t-44 64.5t-16.5 78.5q0 23 15.5 38.5
t38.5 15.5q22 0 37.5 -15.5t15.5 -41.5q1 -39 29 -65.5t68 -26.5q41 0 69 27.5t28 67.5v68q0 19 -7.5 36.5t-20.5 30.5t-31 20.5t-38 7.5q-25 0 -45.5 -11t-34.5 -29q-8 -8 -18 -17t-30 -9q-23 0 -37 15t-14 38v278z" />
    <glyph glyph-name="backslash" unicode="\" horiz-adv-x="529" 
d="M16 562q-12 15 -12 33q0 22 15.5 38t40.5 16q11 0 21.5 -4.5t18.5 -15.5l414 -541q11 -14 11 -34t-15 -37t-39 -17q-11 0 -22 5t-19 15z" />
    <glyph glyph-name="underscore" unicode="_" horiz-adv-x="546" 
d="M88 -74q-23 0 -38.5 16t-15.5 38t15.5 37.5t38.5 15.5h371q23 0 38.5 -16t15.5 -37q0 -23 -15.5 -38.5t-38.5 -15.5h-371z" />
    <glyph glyph-name="S" unicode="S" horiz-adv-x="563" 
d="M143 173q15 -32 51.5 -56.5t87.5 -24.5q27 0 53 6.5t46 19.5t32.5 32.5t12.5 46.5t-12 46.5t-32 32t-46 19t-54 6.5q-51 0 -93.5 11t-74 33.5t-49 58t-17.5 85.5q0 45 16.5 81t47 61t74 38t96.5 13q1 0 24.5 -2t55.5 -12.5t66.5 -32.5t58.5 -63q3 -6 6 -15t3 -18
q0 -19 -15.5 -37t-41.5 -18q-13 0 -25 5.5t-20 14.5l1 -1q-11 13 -22 25t-24 21t-29.5 14.5t-38.5 5.5q-65 0 -93 -25t-28 -55q0 -21 9.5 -35.5t26 -23.5t39 -13t47.5 -4q52 0 99 -14t82.5 -41t56 -67.5t20.5 -93.5q0 -55 -21 -96t-56.5 -68t-83.5 -40.5t-102 -13.5
q-11 0 -41 3.5t-67.5 19t-75 47.5t-62.5 89q-7 13 -6 28.5t7.5 28t18.5 21t28 8.5q23 0 39.5 -14.5t24.5 -36.5z" />
    <glyph glyph-name="space" unicode=" " horiz-adv-x="265" 
 />
    <glyph glyph-name="fraction" unicode="&#x2044;" horiz-adv-x="434" 
d="M329 622q6 11 16.5 17t21.5 8q24 3 41 -11t20 -35q1 -8 -0.5 -17.5t-6.5 -17.5q-42 -73 -80.5 -140.5t-76.5 -133.5t-76.5 -133t-80.5 -140q-6 -11 -16 -17t-21 -8q-25 -3 -42.5 12t-20.5 35q-2 19 8 35z" />
    <glyph glyph-name="numbersign" unicode="#" horiz-adv-x="455" 
d="M81 594q0 23 15.5 38.5t37.5 15.5t38 -15.5t16 -38.5v-121h78v121q0 23 15.5 38.5t37.5 15.5t38 -15.5t16 -38.5v-121h6q22 0 37.5 -15.5t15.5 -38.5q0 -21 -15.5 -37t-37.5 -16h-6v-78h6q22 0 37.5 -15.5t15.5 -38.5q0 -22 -15.5 -38t-37.5 -16h-6v-126
q0 -23 -15.5 -38.5t-38.5 -15.5q-21 0 -37 15.5t-16 38.5v126h-78v-126q0 -23 -15.5 -38.5t-38.5 -15.5q-21 0 -37 15.5t-16 38.5v126h-3q-23 0 -38.5 16t-15.5 38t15.5 38t38.5 16h3v78h-3q-23 0 -38.5 15.5t-15.5 37.5t15.5 38t38.5 16h3v121zM188 366v-78h78v78h-78z" />
    <glyph glyph-name="quotesingle" unicode="'" horiz-adv-x="194" 
d="M32 605q0 20 16.5 37t36.5 17h37q23 0 38.5 -16t15.5 -38q0 -18 -9.5 -31.5t-26.5 -19.5v-22q0 -22 -16 -38t-38 -16q-23 0 -38.5 16t-15.5 38v73z" />
    <glyph glyph-name="quotedbl" unicode="&#x22;" horiz-adv-x="294" 
d="M33 605q0 23 15.5 38.5t37.5 15.5t38 -15.5t16 -38.5v-73q0 -22 -15.5 -38t-38.5 -16q-21 0 -37 16t-16 38v73zM154 605q0 23 16 38.5t38 15.5t38 -15.5t16 -38.5v-73q0 -22 -15.5 -38t-38.5 -16q-22 0 -38 16t-16 38v73z" />
    <glyph glyph-name="hyphen" unicode="-" horiz-adv-x="427" 
d="M86 226q-22 0 -37.5 15.5t-15.5 38.5q0 21 15.5 37t37.5 16h255q23 0 38.5 -15.5t15.5 -37.5t-15.5 -38t-38.5 -16h-255z" />
    <glyph glyph-name="plus" unicode="+" horiz-adv-x="382" 
d="M137 406q0 23 15.5 38.5t37.5 15.5t38 -15.5t16 -38.5v-73h74q23 0 38.5 -15.5t15.5 -37.5t-15.5 -38t-38.5 -16h-74v-74q0 -23 -15.5 -38.5t-38.5 -15.5q-21 0 -37 15.5t-16 38.5v74h-74q-22 0 -37.5 15.5t-15.5 38.5q0 21 15.5 37t37.5 16h74v73z" />
    <glyph glyph-name="asterisk" unicode="*" horiz-adv-x="402" 
d="M91 363q-5 6 -6 12.5t-1 13.5q0 20 14.5 37t39.5 17q13 -2 25.5 -8t20.5 -19l18 -30q3 6 8.5 15t8.5 15q8 11 20.5 18.5t26.5 7.5q23 0 37.5 -16t14.5 -38q0 -6 -1 -12.5t-5 -13.5l-17 -29h34q22 0 37.5 -15.5t15.5 -37.5t-15.5 -38t-37.5 -16h-36q5 -8 9 -16t9 -16
q7 -13 7 -26q0 -19 -13.5 -36t-39.5 -17q-14 0 -26.5 7.5t-20.5 19.5q-7 10 -8.5 13.5t-8.5 16.5q-5 -9 -9 -15.5t-9 -14.5q-8 -12 -20 -19.5t-26 -7.5q-24 0 -39 16t-15 38q0 13 7 25l19 32h-35q-23 0 -38.5 15.5t-15.5 38.5q0 21 15.5 37t38.5 16h34z" />
    <glyph glyph-name="comma" unicode="," horiz-adv-x="167" 
d="M31 54q0 22 15.5 37.5t37.5 15.5t38 -15.5t16 -37.5v-76q0 -23 -15.5 -38.5t-38.5 -15.5q-21 0 -37 15.5t-16 38.5v76z" />
    <glyph glyph-name="period" unicode="." horiz-adv-x="158" 
d="M26 54q0 22 15.5 37.5t38.5 15.5q21 0 37 -15.5t16 -37.5q0 -23 -15.5 -38.5t-37.5 -15.5t-38 15.5t-16 38.5z" />
    <glyph glyph-name="exclam" unicode="!" horiz-adv-x="174" 
d="M35 598q0 22 16 38t37 16q23 0 38.5 -16t15.5 -38v-400q0 -23 -16 -38.5t-38 -15.5t-37.5 15.5t-15.5 38.5v400zM35 81q0 22 16 37.5t37 15.5q23 0 38.5 -15.5t15.5 -37.5v-27q0 -23 -16 -38.5t-38 -15.5t-37.5 15.5t-15.5 38.5v27z" />
    <glyph glyph-name="slash" unicode="/" horiz-adv-x="434" 
d="M329 622q6 11 16.5 17t21.5 8q24 3 41 -11t20 -35q1 -8 -0.5 -17.5t-6.5 -17.5q-42 -73 -80.5 -140.5t-76.5 -133.5t-76.5 -133t-80.5 -140q-6 -11 -16 -17t-21 -8q-25 -3 -42.5 12t-20.5 35q-2 19 8 35z" />
    <glyph glyph-name="semicolon" unicode=";" horiz-adv-x="167" 
d="M31 54q0 22 15.5 37.5t38.5 15.5q21 0 37 -15.5t16 -37.5v-76q0 -23 -15.5 -38.5t-37.5 -15.5t-38 15.5t-16 38.5v76zM31 446q0 23 15.5 38.5t38.5 15.5q21 0 37 -15.5t16 -38.5q0 -22 -15.5 -37.5t-37.5 -15.5t-38 15.5t-16 37.5z" />
    <glyph glyph-name="colon" unicode=":" horiz-adv-x="165" 
d="M30 446q0 23 15.5 38.5t38.5 15.5q21 0 37 -15.5t16 -38.5q0 -22 -15.5 -37.5t-37.5 -15.5t-38 15.5t-16 37.5zM30 50q0 22 15.5 37.5t38.5 15.5q21 0 37 -15.5t16 -37.5q0 -23 -15.5 -38.5t-37.5 -15.5t-38 15.5t-16 38.5z" />
    <glyph glyph-name="parenright" unicode=")" horiz-adv-x="292" 
d="M76 -93q31 0 54 22t24 53v519q-1 31 -24 53t-54 22q-23 0 -38.5 15.5t-15.5 37.5q0 23 15.5 38.5t38.5 15.5q38 0 72 -14.5t59.5 -39.5t40 -59t14.5 -72v-513q0 -38 -14.5 -72t-40 -59t-59.5 -39.5t-72 -14.5q-23 0 -38.5 15.5t-15.5 38.5q0 22 15.5 37.5t38.5 15.5z" />
    <glyph glyph-name="parenleft" unicode="(" horiz-adv-x="292" 
d="M30 498q0 38 15 72t40.5 59t59 39.5t71.5 14.5q23 0 38.5 -15.5t15.5 -38.5q0 -22 -15.5 -37.5t-38.5 -15.5q-31 0 -53.5 -22t-24.5 -53v-520q2 -30 24.5 -52t53.5 -22q23 0 38.5 -15.5t15.5 -37.5q0 -23 -15.5 -38.5t-38.5 -15.5q-38 0 -71.5 14.5t-59 39.5t-40.5 59
t-15 72v513z" />
    <glyph glyph-name="equal" unicode="=" horiz-adv-x="428" 
d="M86 155q-22 0 -37.5 16t-15.5 38t15.5 38t37.5 16h255q23 0 38.5 -15.5t15.5 -38.5q0 -22 -15.5 -38t-38.5 -16h-255zM86 297q-22 0 -37.5 15.5t-15.5 38.5q0 21 15.5 37t37.5 16h255q23 0 38.5 -15.5t15.5 -37.5t-15.5 -38t-38.5 -16h-255z" />
    <glyph glyph-name="bar" unicode="|" horiz-adv-x="176" 
d="M36 628q0 23 15.5 38.5t37.5 15.5t38 -15.5t16 -38.5v-737q0 -23 -15.5 -38.5t-38.5 -15.5q-21 0 -37 15.5t-16 38.5v737z" />
    <glyph glyph-name="six" unicode="6" horiz-adv-x="463" 
d="M30 478q0 42 16 78.5t43.5 64.5t65 44t79.5 16q21 0 49 -7.5t53 -21t42.5 -31.5t17.5 -40q0 -23 -15.5 -38.5t-37.5 -15.5q-29 0 -44 21q-13 11 -30 18t-35 7q-41 0 -69 -27.5t-28 -67.5v-6q43 24 96 24q42 0 79.5 -16t65.5 -43t44 -63.5t16 -78.5v-112q0 -42 -16 -78.5
t-44 -64.5t-65.5 -44t-79.5 -16t-78.5 16t-64.5 44t-44 64.5t-16 78.5v295zM137 183q0 -20 7.5 -37.5t21 -30t30.5 -20t37 -7.5q42 0 70 27.5t28 67.5v112q0 19 -7.5 36.5t-21 31t-31.5 21t-38 7.5t-37 -7.5t-30 -20t-20.5 -29t-8.5 -35.5v-116z" />
    <glyph glyph-name="nine" unicode="9" horiz-adv-x="463" 
d="M25 478q0 42 16 78.5t44 64.5t65.5 44t79.5 16t78.5 -16t64.5 -44t44 -64.5t16 -78.5v-296q0 -42 -16 -78.5t-43.5 -64.5t-65 -44t-79.5 -16q-21 0 -49 7.5t-53 21t-42.5 31.5t-17.5 40q0 23 15.5 38.5t37.5 15.5q14 0 25 -6.5t19 -14.5q13 -11 30 -18t35 -7
q41 0 69 27.5t28 67.5v6q-22 -12 -45.5 -18.5t-50.5 -6.5q-42 0 -79.5 16t-65.5 43.5t-44 64t-16 78.5v113zM132 365q0 -20 7.5 -37.5t21 -30.5t31.5 -20.5t38 -7.5q19 0 36.5 7.5t30.5 20t20.5 29.5t8.5 36v116q0 20 -7.5 37.5t-21 30t-31 20t-36.5 7.5q-42 0 -70 -27.5
t-28 -67.5v-113z" />
    <glyph glyph-name="two" unicode="2" horiz-adv-x="472" 
d="M329 479q0 40 -28 67.5t-69 27.5q-19 0 -36.5 -7t-31 -19.5t-21.5 -29.5t-8 -36q0 -23 -15.5 -38.5t-37.5 -15.5q-23 0 -38.5 15.5t-15.5 38.5q0 41 16.5 77.5t44.5 63.5t65 43t78 16q42 0 79.5 -16t65 -44t43.5 -65t16 -79q0 -37 -12 -70t-34 -59l-189 -242h191
q22 0 38 -15.5t16 -37.5q0 -23 -16 -38.5t-38 -15.5h-310q-23 0 -38.5 15.5t-15.5 38.5q0 20 13 35l267 330q9 9 15 26.5t6 33.5z" />
    <glyph glyph-name="one" unicode="1" horiz-adv-x="240" 
d="M123 655h-1q7 4 15 6.5t16 2.5q22 0 37.5 -15.5t15.5 -38.5v-560q0 -23 -15.5 -38.5t-37.5 -15.5t-38 15.5t-16 38.5v466q-6 -3 -12 -7q-14 -8 -28 -8q-19 0 -36 14.5t-17 39.5q0 13 6.5 26.5t20.5 21.5l-1 -1z" />
    <glyph glyph-name="less" unicode="&#x3c;" horiz-adv-x="277" 
d="M150 448q8 11 19 15t22 4q24 0 39 -16t15 -37q0 -19 -11 -34q-24 -32 -51.5 -67t-52.5 -69q27 -35 52 -67.5t52 -67.5q11 -14 11 -34t-15 -37t-39 -17q-25 0 -41 21l-131 170q-11 16 -11 31q0 19 12 36z" />
    <glyph glyph-name="greater" unicode="&#x3e;" horiz-adv-x="279" 
d="M45 380q-12 16 -12 34q0 21 15.5 37t40.5 16q11 0 22 -4t19 -15l130 -170q11 -17 11 -33q0 -19 -12 -34l-129 -169q-18 -21 -41 -21q-25 0 -40.5 17t-15.5 37q0 19 12 34q25 33 52 68t53 68z" />
    <glyph glyph-name="question" unicode="?" horiz-adv-x="493" 
d="M162 241q0 22 16 37.5t37 15.5h12q31 0 57.5 11.5t46 30t30 42t10.5 48.5q0 27 -10 50.5t-28 41t-42 28t-52 10.5q-43 0 -75.5 -24t-48.5 -61q-7 -15 -21 -23t-28 -8q-24 0 -38 16.5t-14 36.5q0 13 3 22q13 33 35.5 60t51.5 47t63.5 31t71.5 11q49 0 93 -19t76 -51
t51 -76t19 -93q0 -41 -15 -81.5t-43 -73.5t-67.5 -54.5t-87.5 -24.5q-6 -16 -19.5 -26t-30.5 -10q-22 0 -37.5 16t-15.5 38v32zM162 77q0 22 16 37.5t37 15.5q23 0 38.5 -15.5t15.5 -37.5v-27q0 -23 -16 -38.5t-38 -15.5t-37.5 15.5t-15.5 38.5v27z" />
    <glyph glyph-name="seven" unicode="7" horiz-adv-x="455" 
d="M391 660q22 0 40.5 -14.5t18.5 -39.5q0 -13 -9 -29l-309 -556q-8 -14 -20 -20t-23 -5q-23 0 -40 15.5t-17 37.5q0 14 9 28q68 121 130.5 237.5t131.5 237.5h-217q-23 0 -38.5 16t-15.5 38q0 23 15.5 38.5t38.5 15.5h305z" />
    <glyph glyph-name="four" unicode="4" 
d="M267 639q7 13 20 19t26 6q23 0 39 -16.5t16 -36.5v-397q19 -4 31.5 -18.5t12.5 -34.5t-12.5 -34.5t-31.5 -18.5v-58q0 -23 -16 -38.5t-38 -15.5q-23 0 -38.5 15.5t-15.5 38.5v58h-203q-21 0 -37 16.5t-16 36.5q0 15 8 29zM260 406q-28 -48 -54 -92.5t-57 -98.5h111v191z
" />
    <glyph glyph-name="bracketleft" unicode="[" horiz-adv-x="295" 
d="M36 629q0 23 16 38.5t38 15.5h132q23 0 38.5 -16t15.5 -38t-15.5 -37.5t-38.5 -15.5h-78v-669h78q23 0 38.5 -15.5t15.5 -37.5t-15.5 -38t-38.5 -16h-132q-22 0 -38 15.5t-16 38.5v775z" />
    <glyph glyph-name="bracketright" unicode="]" horiz-adv-x="295" 
d="M74 576q-23 0 -38.5 15.5t-15.5 37.5t15.5 38t38.5 16h132q22 0 38 -15.5t16 -38.5v-775q0 -23 -16 -38.5t-38 -15.5h-132q-23 0 -38.5 16t-15.5 38t15.5 37.5t38.5 15.5h79v669h-79z" />
    <glyph glyph-name="asciicircum" unicode="^" horiz-adv-x="484" 
d="M210 637q16 11 31 11q20 0 35 -12l170 -130q11 -8 15 -18.5t4 -21.5q0 -25 -16 -40.5t-38 -15.5q-18 0 -33 12q-32 24 -67 51.5t-69 53.5q-35 -27 -67.5 -53t-67.5 -52q-15 -12 -34 -12q-20 0 -37 15.5t-17 40.5q0 11 5 21.5t15 18.5z" />
    <glyph glyph-name="grave" unicode="`" horiz-adv-x="184" 
d="M27 571v-1q-8 13 -8 29q0 21 16 37t39 16q29 0 45 -26l38 -66q5 -8 6 -15t1 -13q0 -22 -15 -37.5t-38 -15.5q-29 0 -46 26z" />
    <glyph glyph-name="acute" unicode="&#xb4;" horiz-adv-x="183" 
d="M65 626q16 26 46 26q23 0 38 -16t15 -37q0 -7 -1 -14.5t-6 -14.5v1q-9 -16 -19 -32.5t-19 -33.5q-16 -26 -45 -26q-23 0 -39 15.5t-16 37.5q0 14 8 28z" />
    <glyph glyph-name="bullet" unicode="&#x2022;" horiz-adv-x="225" 
d="M26 315q0 36 25.5 61.5t61.5 25.5t61.5 -25.5t25.5 -61.5t-25.5 -61.5t-61.5 -25.5t-61.5 25.5t-25.5 61.5z" />
    <glyph glyph-name="braceleft" unicode="{" horiz-adv-x="360" 
d="M95 498q0 38 14.5 72t40 59t59.5 39.5t72 14.5q23 0 38.5 -15.5t15.5 -38.5q0 -22 -15.5 -37.5t-38.5 -15.5q-31 0 -54 -22t-24 -53v-224q0 -10 -4 -19t-9 -16q13 -18 13 -36v-225q1 -30 24 -52t54 -22q23 0 38.5 -15.5t15.5 -37.5q0 -23 -15.5 -38.5t-38.5 -15.5
q-38 0 -72 14.5t-59.5 39.5t-40 59t-14.5 72v190q0 5 -4 9t-9 4h-18q-23 0 -38.5 15.5t-15.5 38.5q0 21 15.5 37t38.5 16h18q5 0 9 4t4 8v191z" />
    <glyph glyph-name="braceright" unicode="}" horiz-adv-x="358" 
d="M157 501q-2 31 -24.5 53t-54.5 22q-22 0 -37.5 15.5t-15.5 37.5q0 23 15.5 38.5t37.5 15.5q38 0 72 -14.5t59.5 -39.5t40 -59t14.5 -72v-191q0 -4 4 -8t9 -4h19q22 0 37.5 -16t15.5 -37q0 -23 -15.5 -38.5t-37.5 -15.5h-19q-5 0 -9 -4t-4 -9v-190q0 -38 -14.5 -72
t-40 -59t-59.5 -39.5t-72 -14.5q-22 0 -37.5 15.5t-15.5 38.5q0 22 15.5 37.5t37.5 15.5q32 0 54.5 22t24.5 53v224q0 18 13 36q-13 15 -13 35v224z" />
    <glyph glyph-name="sterling" unicode="&#xa3;" horiz-adv-x="536" 
d="M111 450q0 42 16 78.5t43.5 64t64.5 43.5t79 16q22 0 49.5 -7.5t52 -20.5t41 -30.5t16.5 -37.5q0 -22 -15.5 -37.5t-37.5 -15.5q-28 0 -44 21q-12 10 -28.5 16t-33.5 6q-40 0 -68 -28t-28 -68v-112h123q23 0 38.5 -15.5t15.5 -38.5q0 -22 -15.5 -38t-38.5 -16h-123v-65
q18 -5 37.5 -14.5t36.5 -22.5l18 -15q8 -7 20.5 -10.5t23.5 -3.5q17 0 33.5 7.5t28.5 22.5v-1q8 11 19 15t23 4q23 0 38 -17t15 -37q0 -18 -12 -33q-28 -34 -66 -51t-80 -17q-29 1 -59.5 10.5t-56.5 30.5q-3 4 -8 7.5t-8 7.5q-8 7 -21 10.5t-24 3.5q-17 0 -33.5 -7.5
t-28.5 -22.5v1q-8 -10 -19 -15t-22 -5q-24 0 -39 17.5t-15 37.5q0 14 9 28t23 26t30 21t30 15v72h-24q-23 0 -38.5 16t-15.5 38t15.5 38t38.5 16h24v112z" />
    <glyph glyph-name="asciitilde" unicode="~" horiz-adv-x="542" 
d="M243 178q-20 18 -35 23t-26 5q-17 0 -33.5 -7t-28.5 -21q-16 -21 -41 -21q-24 0 -39 17.5t-15 37.5q0 18 12 33q28 34 66 51.5t78 17.5q30 0 60 -10t57 -32q22 -18 36.5 -23.5t25.5 -5.5q37 0 62 30q8 10 19 14.5t23 4.5q23 0 38 -17t15 -37q0 -18 -12 -33
q-28 -35 -66 -52t-80 -17q-29 1 -59.5 10.5t-56.5 31.5z" />
    <glyph glyph-name="quotesinglbase" unicode="&#x201a;" horiz-adv-x="192" 
d="M54 50q0 23 16 38.5t38 15.5t38 -15.5t16 -38.5v-73q0 -20 -16.5 -37t-36.5 -17h-37q-23 0 -38.5 16t-15.5 38q0 18 9.5 31.5t26.5 19.5v22z" />
    <glyph glyph-name="quoteleft" unicode="&#x2018;" horiz-adv-x="194" 
d="M32 605q0 20 16.5 37t36.5 17h37q23 0 38.5 -16t15.5 -38q0 -18 -9.5 -31.5t-26.5 -19.5v-22q0 -22 -16 -38t-38 -16q-23 0 -38.5 16t-15.5 38v73z" />
    <glyph glyph-name="quotedblleft" unicode="&#x201c;" horiz-adv-x="365" 
d="M34 605q0 20 16 37t36 17h37q23 0 38.5 -16t15.5 -38q0 -18 -9.5 -31.5t-26.5 -19.5v-22q0 -22 -16 -38t-38 -16t-37.5 16t-15.5 38v73zM195 605q0 20 16 37t36 17h37q23 0 38.5 -16t15.5 -38q0 -18 -9.5 -31.5t-26.5 -19.5v-22q0 -22 -16 -38t-38 -16t-37.5 16t-15.5 38
v73z" />
    <glyph glyph-name="quoteright" unicode="&#x2019;" horiz-adv-x="193" 
d="M55 605q0 23 16 38.5t38 15.5t38 -15.5t16 -38.5v-73q0 -20 -16.5 -37t-36.5 -17h-37q-23 0 -38.5 16t-15.5 38q0 18 9.5 32t26.5 19v22z" />
    <glyph glyph-name="quotedblright" unicode="&#x201d;" horiz-adv-x="375" 
d="M235 605q0 23 16 38.5t38 15.5t37.5 -15.5t15.5 -38.5v-73q0 -20 -16 -37t-36 -17h-37q-23 0 -38.5 16t-15.5 38q0 18 9.5 32t26.5 19v22zM64 605q0 23 16 38.5t38 15.5t37.5 -15.5t15.5 -38.5v-73q0 -20 -16 -37t-36 -17h-37q-23 0 -38.5 16t-15.5 38q0 18 9.5 32
t26.5 19v22z" />
    <glyph glyph-name="endash" unicode="&#x2013;" horiz-adv-x="465" 
d="M87 226q-22 0 -38 15.5t-16 38.5q0 21 16 37t38 16h292q22 0 37.5 -15.5t15.5 -37.5t-15.5 -38t-37.5 -16h-292z" />
    <glyph glyph-name="emdash" unicode="&#x2014;" horiz-adv-x="577" 
d="M87 226q-22 0 -37.5 15.5t-15.5 38.5q0 21 15.5 37t37.5 16h403q23 0 38.5 -15.5t15.5 -37.5t-15.5 -38t-38.5 -16h-403z" />
    <glyph glyph-name="circumflex" unicode="&#x2c6;" horiz-adv-x="277" 
d="M111 642q13 9 27 9q18 0 32 -11l61 -44q11 -8 17 -20t6 -23q0 -23 -17.5 -38.5t-38.5 -15.5q-8 0 -15.5 2t-14.5 8q-10 7 -15.5 10t-15.5 10q-8 -5 -13.5 -10t-13.5 -10q-16 -10 -31 -10q-23 0 -39 15.5t-16 38.5q0 11 6 23t17 20z" />
    <glyph glyph-name="caron" unicode="&#x2c7;" horiz-adv-x="274" 
d="M45 564q-23 17 -23 43q0 23 16 38.5t39 15.5q15 0 31 -10l27 -21q8 6 15.5 10.5t15.5 10.5q13 10 31 10q20 0 37.5 -15.5t17.5 -38.5q0 -26 -23 -43l-61 -45q-14 -10 -32 -10q-8 0 -14.5 2.5t-14.5 6.5z" />
    <glyph glyph-name="ellipsis" unicode="&#x2026;" horiz-adv-x="410" 
d="M33 54q0 22 16 37.5t38 15.5t38 -15.5t16 -37.5q0 -23 -15.5 -38.5t-38.5 -15.5q-22 0 -38 15.5t-16 38.5zM152 54q0 22 15.5 37.5t38.5 15.5q21 0 37 -15.5t16 -37.5q0 -23 -15.5 -38.5t-37.5 -15.5t-38 15.5t-16 38.5zM270 54q0 22 15.5 37.5t38.5 15.5q22 0 38 -15.5
t16 -37.5q0 -23 -15.5 -38.5t-38.5 -15.5q-22 0 -38 15.5t-16 38.5z" />
    <glyph glyph-name="quotedblbase" unicode="&#x201e;" horiz-adv-x="294" 
d="M33 50q0 23 15.5 38.5t37.5 15.5t38 -15.5t16 -38.5v-73q0 -23 -15.5 -38.5t-38.5 -15.5q-21 0 -37 15.5t-16 38.5v73zM154 50q0 23 16 38.5t38 15.5t38 -15.5t16 -38.5v-73q0 -23 -15.5 -38.5t-38.5 -15.5q-22 0 -38 15.5t-16 38.5v73z" />
    <glyph glyph-name="cent" unicode="&#xa2;" horiz-adv-x="398" 
d="M153 514q0 22 15.5 37.5t37.5 15.5t38 -15.5t16 -37.5v-22q15 -4 31 -11.5t31.5 -20t30 -31.5t25.5 -45q2 -5 3 -10.5t1 -8.5q0 -23 -15.5 -38.5t-38.5 -15.5q-36 0 -49 34v-1q-7 16 -19 26v-245q5 5 11 12.5t8 14.5q7 14 19.5 23.5t29.5 9.5q23 0 38.5 -16t15.5 -38
q0 -5 -1 -10t-3 -10q-12 -26 -26.5 -44.5t-30 -31t-31.5 -20t-30 -11.5v-30q0 -23 -15.5 -38.5t-38.5 -15.5q-21 0 -37 15.5t-16 38.5v30q-29 8 -53.5 25t-42 40t-27.5 51.5t-10 60.5v134q0 31 10 59.5t27.5 52t42 40t53.5 25.5v22zM153 372q-25 -21 -25 -57v-134
q0 -16 7 -30.5t18 -25.5v247z" />
    <glyph glyph-name="brokenbar" unicode="&#xa6;" horiz-adv-x="175" 
d="M35 190q0 22 15.5 37.5t37.5 15.5t38 -15.5t16 -37.5v-299q0 -23 -15.5 -38.5t-38.5 -15.5q-21 0 -37 15.5t-16 38.5v299zM35 628q0 23 15.5 38.5t37.5 15.5t38 -15.5t16 -38.5v-299q0 -23 -15.5 -38.5t-38.5 -15.5q-21 0 -37 15.5t-16 38.5v299z" />
    <glyph glyph-name="tilde" unicode="&#x2dc;" horiz-adv-x="340" 
d="M30 583q0 19 11 32t26 20.5t31.5 10.5t27.5 3q7 0 19.5 -3t20.5 -6q18 -7 31 -6.5t23.5 4t19 7.5t17.5 4q22 0 38 -15.5t16 -38.5q0 -19 -12 -31.5t-28.5 -20t-34.5 -10.5t-30 -3q-19 0 -36 5t-30 5q-17 0 -29.5 -5t-25.5 -5q-21 0 -38 15.5t-17 37.5z" />
    <glyph glyph-name="dotaccent" unicode="&#x2d9;" horiz-adv-x="158" 
d="M26 593q0 23 15.5 38.5t38.5 15.5q21 0 37 -15.5t16 -38.5q0 -22 -15.5 -37.5t-37.5 -15.5t-38 15.5t-16 37.5z" />
    <glyph glyph-name="dieresis" unicode="&#xa8;" horiz-adv-x="292" 
d="M32 610q0 23 15.5 38.5t37.5 15.5t38 -15.5t16 -38.5v-27q0 -22 -15.5 -37.5t-38.5 -15.5q-21 0 -37 15.5t-16 37.5v27zM154 610q0 23 15.5 38.5t37.5 15.5t38 -15.5t16 -38.5v-27q0 -22 -15.5 -37.5t-38.5 -15.5q-21 0 -37 15.5t-16 37.5v27z" />
    <glyph glyph-name="guillemotleft" unicode="&#xab;" horiz-adv-x="457" 
d="M158 448q8 11 19 15t22 4q25 0 40 -16t15 -37q0 -19 -11 -34q-25 -32 -52.5 -67t-52.5 -69q27 -35 52.5 -67.5t52.5 -67.5q11 -14 11 -34t-15 -37t-40 -17q-23 0 -41 21l-130 170q-11 14 -11 31q0 21 12 36zM327 448q8 11 19 15t22 4q24 0 39.5 -16t15.5 -37
q0 -19 -12 -34q-24 -32 -51.5 -67t-52.5 -69q27 -35 52 -67.5t52 -67.5q7 -8 9.5 -16.5t2.5 -17.5q0 -20 -15.5 -37t-39.5 -17q-25 0 -41 21l-130 170q-11 14 -11 31q0 21 12 36z" />
    <glyph glyph-name="guillemotright" unicode="&#xbb;" horiz-adv-x="458" 
d="M215 380q-12 16 -12 34q0 21 15.5 37t39.5 16q11 0 22 -4t19 -15l130 -169q12 -17 12 -36q0 -15 -11 -31l-131 -170q-16 -21 -41 -21q-24 0 -39.5 17t-15.5 37t12 34q26 35 51.5 67.5t52.5 67.5zM46 380q-12 16 -12 34q0 21 15.5 37t40.5 16q11 0 21.5 -4t18.5 -15
l130 -169q12 -17 12 -36q0 -15 -11 -31l-131 -170q-8 -10 -18.5 -15.5t-21.5 -5.5q-25 0 -40.5 17t-15.5 37q0 19 12 34q26 35 52 67.5t53 67.5z" />
    <glyph glyph-name="minus" unicode="&#x2212;" horiz-adv-x="427" 
d="M86 226q-22 0 -37.5 15.5t-15.5 38.5q0 21 15.5 37t37.5 16h255q23 0 38.5 -15.5t15.5 -37.5t-15.5 -38t-38.5 -16h-255z" />
    <glyph glyph-name="oe" unicode="&#x153;" horiz-adv-x="712" 
d="M43 315q0 38 14.5 71.5t40 59t59 40t72.5 14.5q38 0 72 -14.5t59.5 -40t40 -59t14.5 -71.5v-134q0 -38 -14.5 -71.5t-40 -59t-59 -40t-72.5 -14.5q-38 0 -72 14.5t-59.5 40t-40 59t-14.5 71.5v134zM151 181q0 -32 23 -54.5t55 -22.5q34 0 56.5 22.5t22.5 54.5v134
q0 16 -6.5 30t-17 24.5t-25 16.5t-30.5 6q-33 0 -55.5 -22.5t-22.5 -54.5v-134zM309 315q0 38 14.5 71.5t40 59t59 40t72.5 14.5q38 0 72 -14.5t59.5 -40t40 -59t14.5 -71.5v-67q0 -23 -15.5 -38.5t-37.5 -15.5h-211v-13q0 -32 23 -54.5t55 -22.5q12 0 27.5 3t29.5 20
q6 7 15 14.5t19.5 11.5t22.5 3.5t24 -9.5q16 -11 21.5 -31.5t-10.5 -43.5q-22 -29 -57 -52.5t-92 -23.5q-38 0 -72 14.5t-59.5 40t-40 59t-14.5 71.5v134zM417 302h157v13q0 16 -6.5 30t-17 24.5t-25 16.5t-30.5 6q-33 0 -55.5 -22.5t-22.5 -54.5v-13z" />
    <glyph glyph-name="OE" unicode="&#x152;" horiz-adv-x="909" 
d="M21 438q0 50 19.5 94.5t52.5 77.5t77.5 52t94.5 19t94.5 -19t77.5 -52t52.5 -77.5t19.5 -94.5v-216q0 -50 -19.5 -94t-52.5 -77t-77.5 -52.5t-94.5 -19.5t-94.5 19.5t-77.5 52.5t-52.5 77t-19.5 94v216zM131 222q0 -27 10.5 -51.5t29 -42.5t43 -28.5t51.5 -10.5
q28 0 52.5 10.5t42.5 28.5t28.5 42.5t10.5 51.5v216q0 27 -10.5 51.5t-29 42.5t-43 28.5t-51.5 10.5q-28 0 -52.5 -10.5t-42.5 -28.5t-28.5 -42.5t-10.5 -51.5v-216zM400 605q0 23 16 39t39 16h378q23 0 38.5 -16t15.5 -39q0 -22 -15.5 -38t-38.5 -16h-324v-176h200
q23 0 38.5 -15.5t15.5 -38.5t-15.5 -39t-38.5 -16h-200v-157h324q23 0 38.5 -15.5t15.5 -38.5t-15.5 -39t-38.5 -16h-378q-23 0 -39 16t-16 39v550z" />
    <glyph glyph-name="dollar" unicode="$" horiz-adv-x="513" 
d="M200 674q0 22 15.5 37.5t38.5 15.5q21 0 37 -15.5t16 -37.5v-30q16 -3 34.5 -9.5t37.5 -18t36 -27.5t31 -39q3 -7 6.5 -15t3.5 -16q0 -17 -15 -35t-38 -18q-12 0 -23.5 5.5t-18.5 14.5l1 -1q-14 15 -26 27.5t-29 20.5v-136q84 -11 136.5 -60.5t52.5 -137.5
q0 -89 -52.5 -139t-136.5 -60v-32q0 -23 -15.5 -38.5t-37.5 -15.5t-38 15.5t-16 38.5v34q-20 4 -44 12.5t-48 25t-46.5 41.5t-39.5 63q-5 14 -5 27q0 23 14.5 38.5t36.5 15.5q21 0 35 -13t22 -33l1 -1q20 -47 74 -65v184q-36 6 -65.5 19.5t-51.5 35t-34 51.5t-12 68
q0 75 42 120.5t121 56.5v26zM307 109q33 9 57.5 31.5t24.5 58.5q0 38 -22.5 59t-59.5 29v-178zM200 537q-32 -8 -43.5 -26t-11.5 -40q0 -27 15 -42t40 -22v130z" />
    <glyph glyph-name="guilsinglleft" unicode="&#x2039;" horiz-adv-x="277" 
d="M151 430l-1 -1q8 11 19 15.5t22 4.5q24 0 39 -16t15 -38q0 -8 -2.5 -17t-9.5 -17l-103 -117q26 -29 51.5 -57.5t51.5 -57.5q12 -15 12 -36q0 -20 -15 -36.5t-39 -16.5t-41 20q-32 37 -66 76.5t-66 76.5q-10 13 -10 30q0 19 12 36z" />
    <glyph glyph-name="guilsinglright" unicode="&#x203a;" horiz-adv-x="279" 
d="M46 361q-7 8 -10 17t-3 17q0 22 15.5 38t40.5 16t41 -20l-1 1q32 -38 64.5 -75.5t64.5 -75.5q13 -17 13 -36q0 -17 -10 -30l-131 -153q-18 -20 -41 -20q-25 0 -40.5 16.5t-15.5 36.5t13 36l103 115z" />
    <glyph glyph-name="dagger" unicode="&#x2020;" horiz-adv-x="376" 
d="M134 597q0 23 15.5 38.5t37.5 15.5t38 -15.5t16 -38.5v-264h74q23 0 38.5 -15.5t15.5 -37.5t-15.5 -38t-38.5 -16h-74v-335q0 -23 -15.5 -38.5t-38.5 -15.5q-21 0 -37 15.5t-16 38.5v335h-73q-23 0 -38.5 15.5t-15.5 38.5q0 21 15.5 37t38.5 16h73v264z" />
    <glyph glyph-name="daggerdbl" unicode="&#x2021;" horiz-adv-x="381" 
d="M137 597q0 23 15.5 38.5t37.5 15.5t38 -15.5t16 -38.5v-193h74q23 0 38.5 -15.5t15.5 -37.5t-15.5 -38t-38.5 -16h-74v-34h74q23 0 38.5 -15.5t15.5 -38.5q0 -22 -15.5 -38t-38.5 -16h-74v-264q0 -23 -15.5 -38.5t-38.5 -15.5q-21 0 -37 15.5t-16 38.5v264h-74
q-22 0 -37.5 16t-15.5 38t15.5 38t37.5 16h74v34h-74q-22 0 -37.5 15.5t-15.5 38.5q0 21 15.5 37t37.5 16h74v193z" />
    <glyph glyph-name="mu" unicode="&#xb5;" horiz-adv-x="425" 
d="M36 446q0 23 15.5 38.5t38.5 15.5q21 0 37 -15.5t16 -38.5v-265q0 -32 22.5 -54.5t56.5 -22.5q32 0 55.5 22.5t23.5 54.5v265q0 23 15.5 38.5t37.5 15.5t38 -15.5t16 -38.5v-265q0 -38 -14.5 -71.5t-40 -59t-59.5 -40t-72 -14.5q-43 0 -79 17v-93q0 -22 -16 -37.5
t-37 -15.5q-23 0 -38.5 15.5t-15.5 37.5v526z" />
    <glyph glyph-name="periodcentered" unicode="&#xb7;" horiz-adv-x="156" 
d="M25 267q0 22 15.5 37.5t38.5 15.5q21 0 37 -15.5t16 -37.5q0 -23 -15.5 -38.5t-37.5 -15.5t-38 15.5t-16 38.5z" />
    <glyph glyph-name="questiondown" unicode="&#xbf;" horiz-adv-x="492" 
d="M329.01 419.015q0 -21.999 -15.999 -37.498t-36.998 -15.499h-11.999q-30.998 0 -57.4961 -11.499q-26.499 -11.499 -45.9971 -29.998q-19.499 -18.499 -29.998 -41.9971q-10.5 -23.499 -10.5 -48.4971q0 -26.999 10 -50.4971q9.99902 -23.499 27.998 -40.998
t41.9971 -27.998q23.999 -10.499 51.9971 -10.499q42.9971 0 75.4951 23.998q32.498 23.999 48.4971 60.9961q7 14.999 20.999 22.999t27.998 8q23.999 0 37.998 -16.499t13.999 -36.498q0 -12.999 -3 -21.999q-12.999 -32.998 -35.498 -59.9961
q-22.498 -26.998 -51.4971 -46.9971q-28.998 -19.999 -63.4961 -30.998q-34.4971 -10.999 -71.4951 -10.999q-48.9971 0 -92.9941 18.998q-43.9971 18.999 -75.9951 50.9971t-50.9971 75.9951q-18.999 43.998 -18.999 92.9951q0 40.9971 14.999 81.4941
q14.999 40.498 42.9971 73.4961t67.4961 54.4961q39.498 21.499 87.4951 24.499q5.99902 15.999 19.498 25.998q13.499 10 30.498 10q21.999 0 37.498 -15.999t15.499 -37.998v-31.998zM329.01 583.005q0 -21.999 -15.999 -37.498t-36.998 -15.499
q-22.998 0 -38.4971 15.499t-15.499 37.498v26.998q0 22.999 15.999 38.498t37.9971 15.499q21.999 0 37.498 -15.499t15.499 -38.498v-26.998z" />
    <glyph glyph-name="exclamdown" unicode="&#xa1;" horiz-adv-x="147" 
d="M112.002 66.0361q0 -21.998 -15.999 -37.9971t-36.9971 -15.999q-22.999 0 -38.498 15.999t-15.499 37.9971v399.976q0 22.999 15.999 38.498t37.998 15.499q21.998 0 37.4971 -15.499t15.499 -38.498v-399.976zM112.002 583.005q0 -21.999 -15.999 -37.498
t-36.9971 -15.499q-22.999 0 -38.498 15.499t-15.499 37.498v26.998q0 22.999 15.999 38.498t37.998 15.499q21.998 0 37.4971 -15.499t15.499 -38.498v-26.998z" />
    <glyph glyph-name="hungarumlaut" unicode="&#x2dd;" horiz-adv-x="343" 
d="M73 626q16 26 45 26q24 0 39 -16t15 -37q0 -7 -1 -14.5t-6 -14.5v1q-9 -16 -19 -32.5t-19 -33.5q-16 -26 -46 -26q-23 0 -38.5 15.5t-15.5 37.5q0 14 8 28zM218 626q16 26 45 26q24 0 39 -16t15 -37q0 -7 -1.5 -14.5t-6.5 -14.5v1q-9 -16 -19 -32.5t-19 -33.5
q-16 -26 -45 -26q-23 0 -39 15.5t-16 37.5q0 14 9 28z" />
    <glyph glyph-name="plusminus" unicode="&#xb1;" horiz-adv-x="402" 
d="M147 453q0 23 15.5 38.5t38.5 15.5q22 0 37.5 -15.5t15.5 -38.5v-73h75q22 0 37.5 -15.5t15.5 -37.5t-15.5 -38t-37.5 -16h-75v-74q0 -23 -15.5 -38.5t-37.5 -15.5t-38 15.5t-16 38.5v74h-73q-23 0 -38.5 15.5t-15.5 38.5q0 21 15.5 37t38.5 16h73v73zM74 31
q-23 0 -38.5 15.5t-15.5 37.5t15.5 38t38.5 16h255q22 0 37.5 -15.5t15.5 -38.5q0 -21 -15.5 -37t-37.5 -16h-255z" />
    <glyph glyph-name="degree" unicode="&#xb0;" horiz-adv-x="295" 
d="M26 528q0 25 9.5 47.5t26 39.5t38.5 26.5t48 9.5q25 0 47.5 -9.5t39 -26.5t26 -39.5t9.5 -47.5t-9.5 -47.5t-26 -39t-39 -26t-47.5 -9.5q-26 0 -48 9.5t-38.5 26t-26 39t-9.5 47.5zM134 528q0 -13 14 -13q5 0 9.5 4t4.5 9q0 6 -4.5 10t-9.5 4q-14 0 -14 -14z" />
    <glyph glyph-name="ring" unicode="&#x2da;" horiz-adv-x="250" 
d="M125 691q21 0 39 -8t32 -21.5t22 -32t8 -39.5q0 -20 -8 -38t-22 -31.5t-32 -21.5t-39 -8t-39 8t-31.5 21.5t-21.5 31.5t-8 38q0 21 8 39.5t21.5 32t31.5 21.5t39 8zM111 590q0 -13 14 -13q5 0 9.5 4t4.5 9q0 6 -4.5 10t-9.5 4q-14 0 -14 -14z" />
    <glyph glyph-name="at" unicode="@" horiz-adv-x="530" 
d="M26 286q0 49 19 92.5t51.5 75.5t76 51t93.5 19q49 0 92.5 -19t76 -51t51.5 -75.5t19 -92.5v-80q0 -17 -6 -38t-19.5 -39.5t-35 -31.5t-52.5 -13h-127q-25 0 -47.5 10t-39 27t-26.5 39.5t-10 47.5v76q0 25 10 48t27 39.5t39.5 26.5t47.5 10t48 -10t39.5 -26.5t26.5 -39.5
t10 -48v-76v-8t-1 -8h3q4 0 5 5t1 9v80q0 27 -10.5 50.5t-28.5 41t-42 28t-51 10.5q-28 0 -52 -10.5t-42 -28t-28 -41t-10 -50.5v-80q0 -27 10.5 -50.5t28.5 -41t42 -28t51 -10.5h161q14 0 18.5 -11t-4.5 -21q-33 -35 -78 -55t-97 -20q-49 0 -92.5 18.5t-76.5 51t-52 75.5
t-19 92v80zM283 284q0 7 -5 12t-12 5t-12 -5t-5 -12v-76q0 -7 5 -11.5t12 -4.5t12 4.5t5 11.5v76z" />
    <glyph glyph-name="scaron" unicode="&#x161;" horiz-adv-x="411" 
d="M32 352q0 33 13 60t36.5 46.5t56 30.5t70.5 11q31 -1 60 -10q25 -8 51 -24t43 -46q9 -15 9 -30q0 -22 -15 -37.5t-37 -15.5q-11 0 -23 5.5t-20 16.5v-1q-14 18 -29 26t-39 8q-31 0 -50 -11.5t-19 -28.5q0 -23 18.5 -32t50.5 -9q38 0 72 -10t59.5 -30t40 -49t14.5 -68
q0 -40 -15 -69.5t-40.5 -49t-60 -29.5t-72.5 -10q-8 0 -30 2.5t-49 13.5t-54.5 34.5t-45.5 64.5q-4 8 -4 20q0 22 15.5 38t38.5 16q17 0 30 -9.5t19 -23.5q10 -23 34 -35.5t48 -12.5q32 0 55.5 10.5t23.5 39.5t-22.5 39.5t-56.5 10.5q-38 0 -70.5 7.5t-56 24.5t-36.5 45.5
t-13 70.5zM119 594q-23 17 -23 43q0 23 16 38.5t39 15.5q15 0 31 -10l27 -21q8 6 15.5 10.5t15.5 10.5q13 10 31 10q20 0 37.5 -15.5t17.5 -38.5q0 -26 -23 -43l-61 -45q-14 -10 -32 -10q-8 0 -14.5 2.5t-14.5 6.5z" />
    <glyph glyph-name="Ydieresis" unicode="&#x178;" horiz-adv-x="517" 
d="M16 609q0 23 16 39t39 16q22 0 38.5 -16t16.5 -39v-188q0 -27 10.5 -51t29 -42t43 -28.5t52.5 -10.5t52 10.5t42 28.5t28.5 42t10.5 51v188q0 23 16 39t39 16q22 0 38.5 -16t16.5 -39v-188q0 -42 -14.5 -80.5t-39.5 -70t-60 -53.5t-75 -31v-135q0 -23 -15.5 -39
t-38.5 -16t-39 16t-16 39v135q-41 9 -75.5 31t-60 53.5t-40 70t-14.5 80.5v188zM145 811q0 23 15.5 38.5t37.5 15.5t38 -15.5t16 -38.5v-27q0 -22 -15.5 -37.5t-38.5 -15.5q-21 0 -37 15.5t-16 37.5v27zM267 811q0 23 15.5 38.5t37.5 15.5t38 -15.5t16 -38.5v-27
q0 -22 -15.5 -37.5t-38.5 -15.5q-21 0 -37 15.5t-16 37.5v27z" />
    <glyph glyph-name="AE" unicode="&#xc6;" horiz-adv-x="688" 
d="M259 627q15 33 50 33h291q23 0 39 -16t16 -39q0 -22 -16 -38t-39 -16h-200v-176h92q23 0 39 -15.5t16 -38.5t-16 -39t-39 -16h-92v-157h200q23 0 39 -15.5t16 -38.5t-16 -39t-39 -16h-255q-22 0 -38.5 16t-16.5 39v122h-107q-16 -37 -31.5 -72.5t-31.5 -72.5
q-7 -17 -20 -25t-29 -8q-25 0 -39.5 17.5t-14.5 36.5q0 5 1 11t3 10zM290 429q-16 -35 -30.5 -68.5t-31.5 -73.5h62v142z" />
    <glyph glyph-name="cedilla" unicode="&#xb8;" horiz-adv-x="229" 
d="M72 19q0 8 5 13t13 5h71q8 0 13 -5t5 -13v-16q0 -5 2 -10t5 -12q6 -14 11.5 -28t5.5 -29q0 -14 -5.5 -27t-20 -22.5t-39.5 -15t-63 -5.5q-22 0 -37.5 15.5t-15.5 37.5q0 15 5.5 24.5t14 15t18.5 8t20 4.5q1 1 5 1q-1 1 -1 2q-5 8 -8.5 18t-3.5 23v16z" />
    <glyph glyph-name="multiply" unicode="&#xd7;" horiz-adv-x="353" 
d="M51 330q-17 16 -17 39q0 22 15.5 37.5t37.5 15.5q20 0 38 -16l53 -52l51 52q18 16 38 16q22 0 37.5 -15.5t15.5 -37.5t-16 -38l-51 -51q13 -14 26 -27.5t26 -26.5q16 -16 16 -37q0 -22 -15 -38t-39 -16q-20 0 -38 16l-51 53l-53 -53q-16 -16 -38 -16t-38 15t-16 39
q0 22 16 38l53 53z" />
    <glyph glyph-name="Oslash" unicode="&#xd8;" horiz-adv-x="568" 
d="M32 438q0 50 19.5 94.5t52.5 77.5t77.5 52t94.5 19t94.5 -19t77.5 -52t52.5 -77.5t19.5 -94.5v-216q0 -50 -19.5 -94t-52.5 -77t-77.5 -52.5t-94.5 -19.5t-94.5 19.5t-77.5 52.5t-52.5 77t-19.5 94v216zM142 222q0 -27 10.5 -51.5t29 -42.5t43 -28.5t51.5 -10.5
q28 0 52.5 10.5t42.5 28.5t28.5 42.5t10.5 51.5v216q0 27 -10.5 51.5t-29 42.5t-43 28.5t-51.5 10.5q-28 0 -52.5 -10.5t-42.5 -28.5t-28.5 -42.5t-10.5 -51.5v-216zM388.715 660.795q6.52441 11.9512 17.9404 18.4697q11.417 6.51953 23.377 8.69238
q26.0947 3.25977 44.5781 -11.9512t21.7451 -38.0273q1.08789 -8.69141 -0.542969 -19.0137q-1.63086 -10.3213 -7.06738 -19.0137q-45.666 -79.3135 -87.5264 -152.651t-83.1768 -145.046t-83.1768 -144.503q-41.8604 -72.7939 -87.5264 -152.107
q-6.52344 -11.9521 -17.3965 -18.4707t-22.833 -8.69141q-27.1816 -3.25977 -46.209 13.0371q-19.0273 16.2979 -22.2891 38.0273q-2.1748 20.6436 8.69824 38.0273z" />
    <glyph glyph-name="ae" unicode="&#xe6;" horiz-adv-x="698" 
d="M22 315q0 38 14.5 71.5t40 59t59 40t72.5 14.5q38 0 72 -14.5t59.5 -40t40 -59t14.5 -71.5v-261q0 -23 -16 -38.5t-37 -15.5q-11 0 -22.5 6t-19.5 13q-43 -23 -91 -23q-38 0 -72 14.5t-59.5 40t-40 59t-14.5 71.5v134zM130 181q0 -32 23 -54.5t55 -22.5t54.5 21t24.5 52
v138q0 16 -6.5 30t-17 24.5t-25 16.5t-30.5 6q-33 0 -55.5 -22.5t-22.5 -54.5v-134zM288 315q0 38 14.5 71.5t40 59t59 40t72.5 14.5q38 0 72 -14.5t59.5 -40t40 -59t14.5 -71.5v-67q0 -23 -15.5 -38.5t-37.5 -15.5h-211v-13q0 -32 23 -54.5t55 -22.5q12 0 27.5 3t29.5 20
q6 7 15 14.5t19.5 11.5t22.5 3.5t24 -9.5q16 -11 21.5 -31.5t-10.5 -43.5q-22 -29 -57 -52.5t-92 -23.5q-38 0 -72 14.5t-59.5 40t-40 59t-14.5 71.5v134zM396 302h157v13q0 16 -6.5 30t-17 24.5t-25 16.5t-30.5 6q-33 0 -55.5 -22.5t-22.5 -54.5v-13z" />
    <glyph glyph-name="ccedilla" unicode="&#xe7;" horiz-adv-x="402" 
d="M25 315q0 39 15 73t41 58.5t60.5 39t73.5 14.5q7 0 28 -3t46.5 -14.5t51 -34.5t42.5 -64q2 -4 3 -9t1 -10q0 -23 -15.5 -38.5t-38.5 -15.5q-16 0 -29.5 9t-19.5 24q-10 22 -30 35t-43 13q-33 0 -56 -22.5t-23 -54.5v-134q0 -16 6.5 -30t17 -24.5t25 -16.5t30.5 -6
q23 0 43 12.5t30 35.5q6 14 19 23.5t30 9.5q23 0 38.5 -16t15.5 -38q0 -8 -5 -20q-20 -45 -49 -68.5t-56 -34t-46 -11.5t-20 -1q-38 0 -72 14.5t-59.5 40t-40 59t-14.5 71.5v134zM148 13q0 8 5 13t13 5h71q8 0 13 -5t5 -13v-16q0 -5 2 -10t5 -12q6 -14 11.5 -28t5.5 -29
q0 -14 -5.5 -27t-20 -22.5t-39.5 -15t-63 -5.5q-22 0 -37.5 15.5t-15.5 37.5q0 15 5.5 24.5t14 15t18.5 8t20 4.5q1 1 5 1q-1 1 -1 2q-5 8 -8.5 18t-3.5 23v16z" />
    <glyph glyph-name="divide" unicode="&#xf7;" horiz-adv-x="381" 
d="M140 416q0 22 15.5 37.5t38.5 15.5q22 0 38 -15.5t16 -37.5q0 -23 -15.5 -38.5t-38.5 -15.5q-22 0 -38 15.5t-16 38.5zM140 147q0 23 15.5 38.5t38.5 15.5q22 0 38 -15.5t16 -38.5q0 -22 -15.5 -38t-38.5 -16q-22 0 -38 16t-16 38zM62 229q-22 0 -37.5 15.5t-15.5 38.5
q0 21 15.5 37t37.5 16h255q23 0 38.5 -15.5t15.5 -37.5t-15.5 -38t-38.5 -16h-255z" />
    <glyph glyph-name="oslash" unicode="&#xf8;" horiz-adv-x="472" 
d="M50 315q0 38 14.5 71.5t40 59t59 40t72.5 14.5q38 0 72 -14.5t59.5 -40t40 -59t14.5 -71.5v-134q0 -38 -14.5 -71.5t-40 -59t-59 -40t-72.5 -14.5q-38 0 -72 14.5t-59.5 40t-40 59t-14.5 71.5v134zM158 181q0 -32 23 -54.5t55 -22.5q34 0 56.5 22.5t22.5 54.5v134
q0 16 -6.5 30t-17 24.5t-25 16.5t-30.5 6q-33 0 -55.5 -22.5t-22.5 -54.5v-134zM341.803 504.631q5.19434 9.52637 14.2832 14.7217q9.08984 5.19629 18.6123 6.92773q20.7754 2.59863 35.4912 -9.52539q14.7168 -12.124 17.3135 -30.3086
q0.866211 -6.92773 -0.432617 -15.1543q-1.29883 -8.22754 -5.62695 -15.1553q-36.3574 -63.2148 -69.6855 -121.668t-66.2227 -115.606q-32.8955 -57.1533 -66.2236 -115.174q-33.3281 -58.0195 -69.6855 -121.235q-5.19434 -9.52539 -13.8506 -14.7207
q-8.65723 -5.19629 -18.1787 -6.92773q-21.6416 -2.59863 -36.791 10.3906q-15.1494 12.9902 -17.7461 30.3096q-1.73145 16.4531 6.92578 30.3086z" />
    <glyph glyph-name="perthousand" unicode="&#x2030;" horiz-adv-x="865" 
d="M401 219q0 27 10.5 51t28.5 42t42 28.5t51 10.5t50 -9.5t40 -25.5q35 35 90 35q27 0 51.5 -10.5t42.5 -28.5t28.5 -42t10.5 -51v-91q0 -27 -10.5 -51t-28.5 -42t-42.5 -28.5t-51.5 -10.5q-52 0 -90 35q-18 -17 -41 -26t-49 -9q-27 0 -51 10.5t-42 28.5t-28.5 42t-10.5 51
v91zM27 532q0 27 10.5 51t28.5 42t42 28.5t52 10.5q27 0 51.5 -10.5t42.5 -28.5t28.5 -42t10.5 -51v-91q0 -27 -10.5 -51t-28.5 -42t-42.5 -28.5t-51.5 -10.5t-51.5 10.5t-42.5 28.5t-28.5 42t-10.5 51v91zM112 441q0 -20 14 -33.5t34 -13.5t34 13.5t14 33.5v91
q0 20 -14.5 33t-33.5 13q-20 0 -34 -13t-14 -33v-91zM666 128q0 -17 15 -32t32 -15q20 0 34 13.5t14 33.5v91q0 20 -14 33.5t-34 13.5q-17 0 -32 -12.5t-15 -34.5v-91zM581 219q0 23 -15.5 35t-32.5 12q-20 0 -33.5 -13.5t-13.5 -33.5v-91q0 -20 14 -33.5t33 -13.5
q18 0 33 13.5t15 33.5v91zM465 629q6 11 16.5 17t21.5 8q24 3 41 -11t20 -35q1 -8 -0.5 -17.5t-6.5 -17.5q-42 -73 -80.5 -140.5t-76.5 -133.5t-76.5 -133t-80.5 -140q-6 -11 -16 -17t-21 -8q-25 -3 -42.5 12t-20.5 35q-2 19 8 35z" />
    <glyph glyph-name="Scaron" unicode="&#x160;" horiz-adv-x="527" 
d="M140 173q15 -32 51.5 -56.5t87.5 -24.5q27 0 53 6.5t46 19.5t32.5 32.5t12.5 46.5t-12 46.5t-32 32t-46 19t-54 6.5q-51 0 -93.5 11t-74 33.5t-49 58t-17.5 85.5q0 45 16.5 81t47 61t74 38t96.5 13q1 0 24.5 -2t55.5 -12.5t66.5 -32.5t58.5 -63q3 -6 6 -15t3 -18
q0 -19 -15.5 -37t-41.5 -18q-13 0 -25 5.5t-20 14.5l1 -1q-11 13 -22 25t-24 21t-29.5 14.5t-38.5 5.5q-65 0 -93 -25t-28 -55q0 -21 9.5 -35.5t26 -23.5t39 -13t47.5 -4q52 0 99 -14t82.5 -41t56 -67.5t20.5 -93.5q0 -55 -21 -96t-56.5 -68t-83.5 -40.5t-102 -13.5
q-11 0 -41 3.5t-67.5 19t-75 47.5t-62.5 89q-7 13 -6 28.5t7.5 28t18.5 21t28 8.5q23 0 39.5 -14.5t24.5 -36.5zM178 758q-23 17 -23 43q0 23 16 38.5t39 15.5q15 0 31 -10l27 -21q8 6 15.5 10.5t15.5 10.5q13 10 31 10q20 0 37.5 -15.5t17.5 -38.5q0 -26 -23 -43l-61 -45
q-14 -10 -32 -10q-8 0 -14.5 2.5t-14.5 6.5z" />
    <glyph glyph-name="trademark" unicode="&#x2122;" horiz-adv-x="746" 
d="M64 577q-16 0 -26.5 9.5t-10.5 26.5q0 15 10.5 26t26.5 11h191q16 0 26.5 -11t10.5 -26t-10.5 -25.5t-26.5 -10.5h-59v-244q0 -14 -11 -25t-26 -11q-14 0 -25.5 11t-11.5 25v244h-58zM289 519q0 27 9.5 51.5t26.5 42.5t40 28.5t51 10.5q26 0 47 -9t37 -24
q17 16 37.5 24.5t47.5 8.5q28 0 51 -10.5t40 -28.5t26.5 -42.5t9.5 -51.5v-186q0 -14 -10.5 -25t-26.5 -11q-14 0 -25 11t-11 25v186q0 25 -15 42t-39 17q-23 0 -35.5 -17t-12.5 -42v-186q0 -14 -10.5 -25t-26.5 -11t-26 11t-10 25v187q0 24 -12.5 41t-35.5 17t-38 -17
t-15 -42v-186q0 -14 -11.5 -25t-25.5 -11q-16 0 -26.5 11t-10.5 25v186z" />
    <glyph glyph-name="Zcaron" unicode="&#x17d;" horiz-adv-x="547" 
d="M87 551q-23 0 -39 15.5t-16 38.5t16 39t39 16h368q27 0 46 -13.5t19 -39.5q0 -6 -2.5 -15t-7.5 -18l-328 -465h290q23 0 39 -15.5t16 -38.5t-16 -39t-39 -16h-389q-29 0 -45.5 15.5t-16.5 38.5q0 7 2.5 15.5t7.5 16.5q81 115 163 231t165 234h-272zM180 745
q-23 17 -23 43q0 23 16 38.5t39 15.5q15 0 31 -10l27 -21q8 6 15.5 10.5t15.5 10.5q13 10 31 10q20 0 37.5 -15.5t17.5 -38.5q0 -26 -23 -43l-61 -45q-14 -10 -32 -10q-8 0 -14.5 2.5t-14.5 6.5z" />
    <glyph glyph-name="zcaron" unicode="&#x17e;" horiz-adv-x="444" 
d="M97 390q-23 0 -38.5 15.5t-15.5 37.5t15.5 38t38.5 16h251q26 0 45 -13t19 -39q0 -6 -2.5 -14.5t-8.5 -17.5l-213 -306h174q22 0 37.5 -15.5t15.5 -37.5t-15.5 -38t-37.5 -16h-273q-28 0 -44.5 15t-16.5 38q0 16 11 30q29 42 55 79.5t52 74t52.5 74t55.5 79.5h-157z
M137 578q-23 17 -23 43q0 23 16 38.5t39 15.5q15 0 31 -10l27 -21q8 6 15.5 10.5t15.5 10.5q13 10 31 10q20 0 37.5 -15.5t17.5 -38.5q0 -26 -23 -43l-61 -45q-14 -10 -32 -10q-8 0 -14.5 2.5t-14.5 6.5z" />
    <glyph glyph-name="ordmasculine" unicode="&#xba;" horiz-adv-x="419" 
d="M82.7871 538.005q0 25.9375 9.89355 48.8027q9.89355 22.8662 27.292 40.2715q17.3994 17.4053 40.2568 27.3018q22.8574 9.89746 49.4678 9.89746q25.9277 0 49.126 -9.89746q23.1992 -9.89648 40.5977 -27.3018q17.3994 -17.4053 27.293 -40.2715
q9.89355 -22.8652 9.89355 -48.8027v-91.4619q0 -25.9375 -9.89355 -48.8027q-9.89355 -22.8662 -27.293 -40.2715q-17.3984 -17.4053 -40.2559 -27.3018q-22.8574 -9.89746 -49.4678 -9.89746q-25.9277 0 -49.127 9.89746q-23.1982 9.89648 -40.5977 27.3018
q-17.3984 17.4053 -27.292 40.2715q-9.89355 22.8652 -9.89355 48.8027v91.4619zM156.477 446.543q0 -21.8418 15.6934 -37.1992t37.5273 -15.3574q23.1982 0 38.5508 15.3574q15.3516 15.3574 15.3516 37.1992v91.4619q0 10.9209 -4.43457 20.4766
q-4.43555 9.55664 -11.5996 16.7227q-7.16406 7.16699 -17.0576 11.2627t-20.8105 4.0957q-22.5166 0 -37.8682 -15.3584q-15.3525 -15.3574 -15.3525 -37.1992v-91.4619z" />
    <glyph glyph-name="ordfeminine" unicode="&#xaa;" horiz-adv-x="422" 
d="M76.9482 537.255q0 26.0879 9.97363 49.0869q9.97461 22.998 27.5146 40.5039q17.541 17.5068 40.584 27.4609q23.0439 9.95508 49.8711 9.95508q26.1387 0 49.5264 -9.95508q23.3867 -9.9541 40.9277 -27.4609q17.541 -17.5059 27.5146 -40.5039
q9.97363 -22.999 9.97363 -49.0869v-179.183q0 -15.79 -11.0059 -26.4316q-11.0059 -10.6406 -25.4512 -10.6406q-7.56641 0 -15.4766 4.11914t-13.4131 8.9248q-29.5781 -15.79 -62.5957 -15.79q-26.1396 0 -49.5264 9.95508q-23.3877 9.9541 -40.9287 27.4609
q-17.54 17.5059 -27.5146 40.5039q-9.97363 22.999 -9.97363 49.0869v91.9941zM151.237 445.261q0 -21.9688 15.8213 -37.415q15.8213 -15.4473 37.833 -15.4473t37.4883 14.417q15.4775 14.417 16.8525 35.6992v94.7402q0 10.9844 -4.4707 20.5957
q-4.47168 9.61133 -11.6943 16.8193q-7.22168 7.20898 -17.1963 11.3281q-9.97363 4.11914 -20.9795 4.11914q-22.7002 0 -38.1768 -15.4473q-15.4775 -15.4463 -15.4775 -37.415v-91.9941z" />
    <glyph glyph-name="a" unicode="a" horiz-adv-x="432" 
d="M29 315q0 38 14.5 71.5t40 59t59 40t72.5 14.5q38 0 72 -14.5t59.5 -40t40 -59t14.5 -71.5v-261q0 -23 -16 -38.5t-37 -15.5q-11 0 -22.5 6t-19.5 13q-43 -23 -91 -23q-38 0 -72 14.5t-59.5 40t-40 59t-14.5 71.5v134zM137 181q0 -32 23 -54.5t55 -22.5t54.5 21t24.5 52
v138q0 16 -6.5 30t-17 24.5t-25 16.5t-30.5 6q-33 0 -55.5 -22.5t-22.5 -54.5v-134z" />
    <glyph glyph-name="percent" unicode="%" horiz-adv-x="685" 
d="M24 519q0 27 10.5 51t28.5 42t42 28.5t52 10.5q27 0 51.5 -10.5t42.5 -28.5t28.5 -42t10.5 -51v-91q0 -27 -10.5 -51t-28.5 -42t-42.5 -28.5t-51.5 -10.5t-51.5 10.5t-42.5 28.5t-28.5 42t-10.5 51v91zM109 428q0 -20 14 -33.5t34 -13.5t34 13.5t14 33.5v91
q0 20 -14.5 33t-33.5 13q-20 0 -34 -13t-14 -33v-91zM574 228q-4 15 -17.5 26.5t-30.5 11.5q-20 0 -33.5 -13.5t-13.5 -33.5v-91q0 -20 14 -33.5t33 -13.5q18 0 31 11t17 27v109zM393 215q0 27 10.5 51t28.5 42t42 28.5t52 10.5q27 0 51.5 -10.5t42.5 -28.5t28.5 -42
t10.5 -51v-91q0 -27 -10.5 -51t-28.5 -42t-42.5 -28.5t-51.5 -10.5t-51.5 10.5t-42.5 28.5t-28.5 42t-10.5 51v91zM462 629q6 11 16.5 17t21.5 8q24 3 41 -11t20 -35q1 -8 -0.5 -17.5t-6.5 -17.5q-42 -73 -80.5 -140.5t-76.5 -133.5t-76.5 -133t-80.5 -140q-6 -11 -16 -17
t-21 -8q-25 -3 -42.5 12t-20.5 35q-2 19 8 35z" />
    <glyph glyph-name="copyright" unicode="&#xa9;" horiz-adv-x="544" 
d="M28 438q0 50 19.5 94.5t52.5 77.5t77.5 52t94.5 19t94.5 -19t77.5 -52t52.5 -77.5t19.5 -94.5v-216q0 -50 -19.5 -94t-52.5 -77t-77.5 -52.5t-94.5 -19.5t-94.5 19.5t-77.5 52.5t-52.5 77t-19.5 94v216zM138 222q0 -27 10.5 -51.5t29 -42.5t43 -28.5t51.5 -10.5
q28 0 52.5 10.5t42.5 28.5t28.5 42.5t10.5 51.5v216q0 27 -10.5 51.5t-29 42.5t-43 28.5t-51.5 10.5q-28 0 -52.5 -10.5t-42.5 -28.5t-28.5 -42.5t-10.5 -51.5v-216zM152 346q0 58 32 97.5t91 39.5q6 0 20.5 -1.5t32 -8.5t34 -22.5t26.5 -43.5q3 -6 3 -14q0 -17 -11.5 -28.5
t-28.5 -11.5q-12 0 -21.5 7t-14.5 17q-8 14 -17 20t-26 6q-21 0 -31 -17t-10 -40v-48q0 -23 9.5 -40t29.5 -17q17 0 28 5.5t17 20.5q5 11 14.5 17.5t21.5 6.5q17 0 28.5 -11.5t11.5 -28.5q0 -7 -4 -15q-14 -29 -33.5 -44t-37.5 -22t-31 -8l-13 -1q-29 0 -51 11t-37.5 29.5
t-23.5 43.5t-8 53v48z" />
    <glyph glyph-name="registered" unicode="&#xae;" horiz-adv-x="544" 
d="M28 438q0 50 19.5 94.5t52.5 77.5t77.5 52t94.5 19t94.5 -19t77.5 -52t52.5 -77.5t19.5 -94.5v-216q0 -50 -19.5 -94t-52.5 -77t-77.5 -52.5t-94.5 -19.5t-94.5 19.5t-77.5 52.5t-52.5 77t-19.5 94v216zM138 222q0 -27 10.5 -51.5t29 -42.5t43 -28.5t51.5 -10.5
q28 0 52.5 10.5t42.5 28.5t28.5 42.5t10.5 51.5v216q0 27 -10.5 51.5t-29 42.5t-43 28.5t-51.5 10.5q-28 0 -52.5 -10.5t-42.5 -28.5t-28.5 -42.5t-10.5 -51.5v-216zM157 450q0 15 10 25t25 10h75q50 0 80 -24t39.5 -56t-3 -64t-47.5 -48l45 -66q15 -26 -10 -45
q-8 -6 -15.5 -5.5t-14.5 4t-12 8.5l-8 8l-53 74h-43v-59q0 -15 -9.5 -25t-23.5 -10q-15 0 -25 10t-10 25v238zM225 417v-77h42q35 0 46 9t11 32q0 18 -15 27t-42 9h-42z" />
    <glyph glyph-name="Euro" unicode="&#x20ac;" horiz-adv-x="582" 
d="M73 352q-22 0 -37.5 15.5t-15.5 38.5q0 21 15.5 37t37.5 16h13q4 46 24 87t52.5 71t75.5 47.5t91 17.5q37 0 71 -10.5t63 -30t51.5 -46t36.5 -58.5q4 -7 5.5 -15t1.5 -14q0 -20 -14 -37t-40 -17q-34 0 -50 33q-15 37 -48.5 61t-76.5 24q-26 0 -48.5 -9t-40.5 -24
t-29.5 -35.5t-15.5 -44.5h133q23 0 38.5 -15.5t15.5 -37.5t-15.5 -38t-38.5 -16h-134v-34h134q23 0 38.5 -15.5t15.5 -38.5q0 -22 -15.5 -38t-38.5 -16h-134q3 -26 14.5 -48t29.5 -38t41.5 -25.5t49.5 -9.5q43 0 76.5 24.5t49.5 61.5q7 14 21.5 23t27.5 9q25 0 39.5 -17
t14.5 -37q0 -12 -4 -21q-13 -34 -35.5 -62t-51.5 -48.5t-64 -31.5t-74 -11q-49 0 -92.5 18t-76.5 49.5t-53 73.5t-22 90h-12q-22 0 -37.5 16t-15.5 38t15.5 38t37.5 16h12v34h-12z" />
    <glyph glyph-name="yen" unicode="&#xa5;" horiz-adv-x="538" 
d="M141 56q-22 0 -37.5 16t-15.5 38t15.5 38t37.5 16h74v14h-74q-22 0 -37.5 15.5t-15.5 38.5q0 16 9.5 29.5t23.5 19.5q-44 33 -70 82.5t-26 107.5v134q0 23 16 39t39 16q22 0 38.5 -16t16.5 -39v-134q0 -27 10.5 -51t29 -42t43 -28.5t52.5 -10.5t52 10.5t42 28.5t28.5 42
t10.5 51v134q0 23 16 39t39 16q22 0 38.5 -16t16.5 -39v-134q0 -58 -25.5 -107.5t-69.5 -83.5q14 -6 23 -19t9 -29q0 -22 -15.5 -38t-38.5 -16h-72v-14h72q23 0 38.5 -15.5t15.5 -38.5q0 -22 -15.5 -38t-38.5 -16h-72v-1q0 -23 -15.5 -39t-38.5 -16t-39 16t-16 39v1h-74z
" />
    <glyph glyph-name="b" unicode="b" horiz-adv-x="434" 
d="M33 602q0 23 15.5 38.5t38.5 15.5q21 0 37 -15.5t16 -38.5v-120q18 8 37.5 13t41.5 5q39 0 72.5 -14.5t59 -40t40 -59t14.5 -71.5v-134q0 -38 -14.5 -71.5t-40 -59t-59.5 -40t-72 -14.5q-39 0 -72.5 14.5t-59 40t-40 59t-14.5 71.5v421zM140 181q0 -32 23 -54.5t56 -22.5
q16 0 30.5 6t25 16.5t17 24.5t6.5 30v134q0 32 -23 54.5t-56 22.5q-32 0 -54.5 -21.5t-24.5 -52.5v-137z" />
    <glyph glyph-name="germandbls" unicode="&#xdf;" horiz-adv-x="506" 
d="M188 426q0 23 16 39t39 16q15 0 25.5 10t10.5 25t-11 25.5t-26 10.5h-22q-16 0 -30.5 -6.5t-25 -17t-17 -24.5t-6.5 -30v-420q0 -23 -16 -38.5t-38 -15.5t-37.5 15.5t-15.5 38.5v420q0 39 15 73t40.5 58.5t60 39t73.5 14.5h2h17q30 0 56.5 -11t46.5 -30.5t31.5 -45.5
t11.5 -56q0 -39 -18 -70q53 -32 84.5 -86t31.5 -120q0 -50 -19 -93.5t-52 -76t-77.5 -51.5t-94.5 -19h-6q-23 0 -39 16t-16 39t16 39t39 16h4h3q27 0 51.5 10t42.5 27.5t28.5 41.5t10.5 51t-10.5 50.5t-28.5 41t-43 28t-53 11.5h5h-4q-23 0 -39 16t-16 39z" />
    <glyph glyph-name="Lslash" unicode="&#x141;" horiz-adv-x="580" 
d="M87 609q0 23 16 39t39 16q22 0 38 -16t16 -39v-500h324q23 0 38.5 -15.5t15.5 -38.5t-15.5 -39t-38.5 -16h-378q-23 0 -39 16t-16 39v554zM56.1738 220.677q-18.25 0 -31.5234 16.3691t-13.2734 40.6592q0 22.1787 13.2734 39.0762t31.5234 16.8975h242.24
q18.252 0 31.1104 -16.3701q12.8584 -16.3691 12.8584 -39.6035q0 -23.2334 -12.8584 -40.1309t-31.1104 -16.8975h-242.24z" />
    <glyph glyph-name="lslash" unicode="&#x142;" horiz-adv-x="361" 
d="M127 602q0 23 15.5 38.5t37.5 15.5t38 -15.5t16 -38.5v-552q0 -23 -15.5 -38.5t-38.5 -15.5q-21 0 -37 15.5t-16 38.5v552zM65.5566 228.669q-17.5889 0 -30.3809 15.0654t-12.792 37.4219q0 20.4111 12.792 35.9629t30.3809 15.5518h233.454q17.5889 0 29.9805 -15.0654
q12.3926 -15.0664 12.3926 -36.4492q0 -21.3838 -12.3926 -36.9355q-12.3916 -15.5518 -29.9805 -15.5518h-233.454z" />
    <glyph glyph-name="dotlessi" unicode="&#x131;" horiz-adv-x="173" 
d="M33 446q0 23 15.5 38.5t37.5 15.5t38 -15.5t16 -38.5v-396q0 -23 -15.5 -38.5t-38.5 -15.5q-21 0 -37 15.5t-16 38.5v396z" />
    <glyph glyph-name="ogonek" unicode="&#x2db;" horiz-adv-x="373" 
d="M229.004 13q0 8 -4.99902 13q-5 5 -12.999 5h-70.9961q-7.99902 0 -12.999 -5t-5 -13v-16q0 -5 -2 -10t-4.99902 -12q-6 -14 -11.5 -28q-5.49902 -14 -5.49902 -29q0 -14 5.49902 -27q5.5 -13 19.999 -22.5t39.498 -15q24.998 -5.5 62.9961 -5.5q21.998 0 37.4971 15.5
t15.499 37.5q0 15 -5.49902 24.5q-5.5 9.5 -13.999 15q-8.5 5.5 -18.499 8q-10 2.5 -19.999 4.5q-1 1 -5 1q1 1 1 2q5 8 8.5 18q3.49902 10 3.49902 23v16z" />
    <glyph glyph-name="florin" unicode="&#x192;" horiz-adv-x="501" 
d="M56 -56q32 0 54.5 22t24.5 53v26v5v424q0 39 15 73t40.5 58.5t60 39t73.5 14.5q7 0 27 -2.5t45.5 -14t51.5 -35t44 -64.5q5 -12 5 -19q0 -23 -15.5 -38.5t-38.5 -15.5q-37 0 -50 34l1 -1q-10 23 -30 36t-43 13q-16 0 -30.5 -6.5t-25 -17t-17 -24.5t-6.5 -30v-24v-4v-144
h82q22 0 37.5 -16t15.5 -38q0 -23 -15.5 -38.5t-37.5 -15.5h-82v-172q0 -38 -14.5 -72t-40 -59t-59.5 -39.5t-72 -14.5q-22 0 -37.5 15.5t-15.5 38.5q0 22 15.5 37.5t37.5 15.5z" />
    <glyph glyph-name="breve" unicode="&#x2d8;" horiz-adv-x="278" 
d="M133 617q8 0 18.5 5.5t18.5 11.5q10 7 19 17q13 10 27.5 6.5t25 -15.5t14 -28t-4.5 -30q-2 -3 -11.5 -15t-24.5 -25t-35 -23.5t-43 -10.5h-6q-23 0 -43 10.5t-35 23.5t-24.5 25t-11.5 15q-8 14 -4.5 30t13.5 28t24.5 15.5t28.5 -6.5q9 -10 19 -17q8 -6 17.5 -11.5
t17.5 -5.5z" />
    <glyph glyph-name="Agrave" unicode="&#xc0;" horiz-adv-x="615" 
d="M257 631q16 33 50 33q17 0 30.5 -10t19.5 -23l238 -560q5 -12 5 -21q0 -19 -14.5 -36.5t-39.5 -17.5q-37 0 -50 33l-62 148h-253q-16 -37 -31.5 -74t-30.5 -74q-8 -17 -21 -25t-29 -8q-25 0 -39.5 17.5t-14.5 36.5q0 5 1 11t3 10zM307 472q-11 -24 -20.5 -46.5
t-19.5 -44.5t-20 -45t-21 -49h161zM212 771v-1q-8 13 -8 29q0 21 16 37t39 16q29 0 45 -26l38 -66q5 -8 6 -15t1 -13q0 -22 -15 -37.5t-38 -15.5q-29 0 -46 26z" />
    <glyph glyph-name="Aacute" unicode="&#xc1;" horiz-adv-x="615" 
d="M257 631q16 33 50 33q17 0 30.5 -10t19.5 -23l238 -560q5 -12 5 -21q0 -19 -14.5 -36.5t-39.5 -17.5q-37 0 -50 33l-62 148h-253q-16 -37 -31.5 -74t-30.5 -74q-8 -17 -21 -25t-29 -8q-25 0 -39.5 17.5t-14.5 36.5q0 5 1 11t3 10zM307 472q-11 -24 -20.5 -46.5
t-19.5 -44.5t-20 -45t-21 -49h161zM312 827q16 26 46 26q23 0 38 -16t15 -37q0 -7 -1 -14.5t-6 -14.5v1q-9 -16 -19 -32.5t-19 -33.5q-16 -26 -45 -26q-23 0 -39 15.5t-16 37.5q0 14 8 28z" />
    <glyph glyph-name="Acircumflex" unicode="&#xc2;" horiz-adv-x="615" 
d="M257 631q16 33 50 33q17 0 30.5 -10t19.5 -23l238 -560q5 -12 5 -21q0 -19 -14.5 -36.5t-39.5 -17.5q-37 0 -50 33l-62 148h-253q-16 -37 -31.5 -74t-30.5 -74q-8 -17 -21 -25t-29 -8q-25 0 -39.5 17.5t-14.5 36.5q0 5 1 11t3 10zM307 472q-11 -24 -20.5 -46.5
t-19.5 -44.5t-20 -45t-21 -49h161zM279 825q13 9 27 9q18 0 32 -11l61 -44q11 -8 17 -20t6 -23q0 -23 -17.5 -38.5t-38.5 -15.5q-8 0 -15.5 2t-14.5 8q-10 7 -15.5 10t-15.5 10q-8 -5 -13.5 -10t-13.5 -10q-16 -10 -31 -10q-23 0 -39 15.5t-16 38.5q0 11 6 23t17 20z" />
    <glyph glyph-name="Atilde" unicode="&#xc3;" horiz-adv-x="615" 
d="M257 631q16 33 50 33q17 0 30.5 -10t19.5 -23l238 -560q5 -12 5 -21q0 -19 -14.5 -36.5t-39.5 -17.5q-37 0 -50 33l-62 148h-253q-16 -37 -31.5 -74t-30.5 -74q-8 -17 -21 -25t-29 -8q-25 0 -39.5 17.5t-14.5 36.5q0 5 1 11t3 10zM307 472q-11 -24 -20.5 -46.5
t-19.5 -44.5t-20 -45t-21 -49h161zM167 746q0 19 11 32t26 20.5t31.5 10.5t27.5 3q7 0 19.5 -3t20.5 -6q18 -7 31 -6.5t23.5 4t19 7.5t17.5 4q22 0 38 -15.5t16 -38.5q0 -19 -12 -31.5t-28.5 -20t-34.5 -10.5t-30 -3q-19 0 -36 5t-30 5q-17 0 -29.5 -5t-25.5 -5
q-21 0 -38 15.5t-17 37.5z" />
    <glyph glyph-name="Adieresis" unicode="&#xc4;" horiz-adv-x="615" 
d="M257 631q16 33 50 33q17 0 30.5 -10t19.5 -23l238 -560q5 -12 5 -21q0 -19 -14.5 -36.5t-39.5 -17.5q-37 0 -50 33l-62 148h-253q-16 -37 -31.5 -74t-30.5 -74q-8 -17 -21 -25t-29 -8q-25 0 -39.5 17.5t-14.5 36.5q0 5 1 11t3 10zM307 472q-11 -24 -20.5 -46.5
t-19.5 -44.5t-20 -45t-21 -49h161zM193 773q0 23 15.5 38.5t37.5 15.5t38 -15.5t16 -38.5v-27q0 -22 -15.5 -37.5t-38.5 -15.5q-21 0 -37 15.5t-16 37.5v27zM315 773q0 23 15.5 38.5t37.5 15.5t38 -15.5t16 -38.5v-27q0 -22 -15.5 -37.5t-38.5 -15.5q-21 0 -37 15.5
t-16 37.5v27z" />
    <glyph glyph-name="Aring" unicode="&#xc5;" horiz-adv-x="615" 
d="M257 631q16 33 50 33q17 0 30.5 -10t19.5 -23l238 -560q5 -12 5 -21q0 -19 -14.5 -36.5t-39.5 -17.5q-37 0 -50 33l-62 148h-253q-16 -37 -31.5 -74t-30.5 -74q-8 -17 -21 -25t-29 -8q-25 0 -39.5 17.5t-14.5 36.5q0 5 1 11t3 10zM307 472q-11 -24 -20.5 -46.5
t-19.5 -44.5t-20 -45t-21 -49h161zM307 881q21 0 39 -8t32 -21.5t22 -32t8 -39.5q0 -20 -8 -38t-22 -31.5t-32 -21.5t-39 -8t-39 8t-31.5 21.5t-21.5 31.5t-8 38q0 21 8 39.5t21.5 32t31.5 21.5t39 8zM293 780q0 -13 14 -13q5 0 9.5 4t4.5 9q0 6 -4.5 10t-9.5 4
q-14 0 -14 -14z" />
    <glyph glyph-name="Ccedilla" unicode="&#xc7;" horiz-adv-x="524" 
d="M28 439q0 50 19 94.5t52 77.5t77.5 52t95.5 19q37 0 71 -10.5t63 -30t51.5 -46t36.5 -58.5q4 -7 5.5 -15t1.5 -14q0 -20 -14 -37t-40 -17q-34 0 -50 33q-15 37 -48.5 61t-76.5 24q-28 0 -52.5 -10.5t-43 -28.5t-29 -42.5t-10.5 -51.5v-217q0 -27 11 -51.5t29.5 -42.5
t43 -28.5t51.5 -10.5q43 0 76.5 24.5t49.5 61.5q7 14 21.5 23t27.5 9q25 0 39.5 -17t14.5 -37q0 -12 -4 -21q-13 -34 -35.5 -62t-51.5 -48.5t-64 -31.5t-74 -11q-50 0 -94.5 19.5t-77.5 52.5t-52.5 77t-19.5 94v217zM221 10q0 8 5 13t13 5h71q8 0 13 -5t5 -13v-16
q0 -5 2 -10t5 -12q6 -14 11.5 -28t5.5 -29q0 -14 -5.5 -27t-20 -22.5t-39.5 -15t-63 -5.5q-22 0 -37.5 15.5t-15.5 37.5q0 15 5.5 24.5t14 15t18.5 8t20 4.5q1 1 5 1q-1 1 -1 2q-5 8 -8.5 18t-3.5 23v16z" />
    <glyph glyph-name="Egrave" unicode="&#xc8;" horiz-adv-x="555" 
d="M35 605q0 23 16 39t39 16h378q23 0 38.5 -16t15.5 -39q0 -22 -15.5 -38t-38.5 -16h-324v-176h200q23 0 38.5 -15.5t15.5 -38.5t-15.5 -39t-38.5 -16h-200v-157h324q23 0 38.5 -15.5t15.5 -38.5t-15.5 -39t-38.5 -16h-378q-23 0 -39 16t-16 39v550zM178 773v-1
q-8 13 -8 29q0 21 16 37t39 16q29 0 45 -26l38 -66q5 -8 6 -15t1 -13q0 -22 -15 -37.5t-38 -15.5q-29 0 -46 26z" />
    <glyph glyph-name="Eacute" unicode="&#xc9;" horiz-adv-x="555" 
d="M35 605q0 23 16 39t39 16h378q23 0 38.5 -16t15.5 -39q0 -22 -15.5 -38t-38.5 -16h-324v-176h200q23 0 38.5 -15.5t15.5 -38.5t-15.5 -39t-38.5 -16h-200v-157h324q23 0 38.5 -15.5t15.5 -38.5t-15.5 -39t-38.5 -16h-378q-23 0 -39 16t-16 39v550zM203 829q16 26 46 26
q23 0 38 -16t15 -37q0 -7 -1 -14.5t-6 -14.5v1q-9 -16 -19 -32.5t-19 -33.5q-16 -26 -45 -26q-23 0 -39 15.5t-16 37.5q0 14 8 28z" />
    <glyph glyph-name="Ecircumflex" unicode="&#xca;" horiz-adv-x="555" 
d="M35 605q0 23 16 39t39 16h378q23 0 38.5 -16t15.5 -39q0 -22 -15.5 -38t-38.5 -16h-324v-176h200q23 0 38.5 -15.5t15.5 -38.5t-15.5 -39t-38.5 -16h-200v-157h324q23 0 38.5 -15.5t15.5 -38.5t-15.5 -39t-38.5 -16h-378q-23 0 -39 16t-16 39v550zM248 823q13 9 27 9
q18 0 32 -11l61 -44q11 -8 17 -20t6 -23q0 -23 -17.5 -38.5t-38.5 -15.5q-8 0 -15.5 2t-14.5 8q-10 7 -15.5 10t-15.5 10q-8 -5 -13.5 -10t-13.5 -10q-16 -10 -31 -10q-23 0 -39 15.5t-16 38.5q0 11 6 23t17 20z" />
    <glyph glyph-name="Edieresis" unicode="&#xcb;" horiz-adv-x="555" 
d="M35 605q0 23 16 39t39 16h378q23 0 38.5 -16t15.5 -39q0 -22 -15.5 -38t-38.5 -16h-324v-176h200q23 0 38.5 -15.5t15.5 -38.5t-15.5 -39t-38.5 -16h-200v-157h324q23 0 38.5 -15.5t15.5 -38.5t-15.5 -39t-38.5 -16h-378q-23 0 -39 16t-16 39v550zM163 773
q0 23 15.5 38.5t37.5 15.5t38 -15.5t16 -38.5v-27q0 -22 -15.5 -37.5t-38.5 -15.5q-21 0 -37 15.5t-16 37.5v27zM285 773q0 23 15.5 38.5t37.5 15.5t38 -15.5t16 -38.5v-27q0 -22 -15.5 -37.5t-38.5 -15.5q-21 0 -37 15.5t-16 37.5v27z" />
    <glyph glyph-name="Igrave" unicode="&#xcc;" horiz-adv-x="180" 
d="M35 605q0 23 16 39t39 16q22 0 38.5 -16t16.5 -39v-554q0 -23 -16 -39t-39 -16q-22 0 -38.5 16t-16.5 39v554zM4 774v-1q-8 13 -8 29q0 21 16 37t39 16q29 0 45 -26l38 -66q5 -8 6 -15t1 -13q0 -22 -15 -37.5t-38 -15.5q-29 0 -46 26z" />
    <glyph glyph-name="Icircumflex" unicode="&#xce;" horiz-adv-x="180" 
d="M35 605q0 23 16 39t39 16q22 0 38.5 -16t16.5 -39v-554q0 -23 -16 -39t-39 -16q-22 0 -38.5 16t-16.5 39v554zM63 825q13 9 27 9q18 0 32 -11l61 -44q11 -8 17 -20t6 -23q0 -23 -17.5 -38.5t-38.5 -15.5q-8 0 -15.5 2t-14.5 8q-10 7 -15.5 10t-15.5 10q-8 -5 -13.5 -10
t-13.5 -10q-16 -10 -31 -10q-23 0 -39 15.5t-16 38.5q0 11 6 23t17 20z" />
    <glyph glyph-name="Iacute" unicode="&#xcd;" horiz-adv-x="180" 
d="M35 605q0 23 16 39t39 16q22 0 38.5 -16t16.5 -39v-554q0 -23 -16 -39t-39 -16q-22 0 -38.5 16t-16.5 39v554zM89 828q16 26 46 26q23 0 38 -16t15 -37q0 -7 -1 -14.5t-6 -14.5v1q-9 -16 -19 -32.5t-19 -33.5q-16 -26 -45 -26q-23 0 -39 15.5t-16 37.5q0 14 8 28z" />
    <glyph glyph-name="Idieresis" unicode="&#xcf;" horiz-adv-x="180" 
d="M35 605q0 23 16 39t39 16q22 0 38.5 -16t16.5 -39v-554q0 -23 -16 -39t-39 -16q-22 0 -38.5 16t-16.5 39v554zM-23 773q0 23 15.5 38.5t37.5 15.5t38 -15.5t16 -38.5v-27q0 -22 -15.5 -37.5t-38.5 -15.5q-21 0 -37 15.5t-16 37.5v27zM99 773q0 23 15.5 38.5t37.5 15.5
t38 -15.5t16 -38.5v-27q0 -22 -15.5 -37.5t-38.5 -15.5q-21 0 -37 15.5t-16 37.5v27z" />
    <glyph glyph-name="Ograve" unicode="&#xd2;" horiz-adv-x="544" 
d="M28 438q0 50 19.5 94.5t52.5 77.5t77.5 52t94.5 19t94.5 -19t77.5 -52t52.5 -77.5t19.5 -94.5v-216q0 -50 -19.5 -94t-52.5 -77t-77.5 -52.5t-94.5 -19.5t-94.5 19.5t-77.5 52.5t-52.5 77t-19.5 94v216zM138 222q0 -27 10.5 -51.5t29 -42.5t43 -28.5t51.5 -10.5
q28 0 52.5 10.5t42.5 28.5t28.5 42.5t10.5 51.5v216q0 27 -10.5 51.5t-29 42.5t-43 28.5t-51.5 10.5q-28 0 -52.5 -10.5t-42.5 -28.5t-28.5 -42.5t-10.5 -51.5v-216zM182 787v-1q-8 13 -8 29q0 21 16 37t39 16q29 0 45 -26l38 -66q5 -8 6 -15t1 -13q0 -22 -15 -37.5
t-38 -15.5q-29 0 -46 26z" />
    <glyph glyph-name="Ntilde" unicode="&#xd1;" horiz-adv-x="550" 
d="M32 421q0 50 19 94t52 77t77.5 52.5t94.5 19.5t94.5 -19.5t77.5 -52.5t52.5 -77t19.5 -94v-370q0 -23 -15.5 -39t-38.5 -16q-22 0 -38.5 16t-16.5 39v370q0 27 -10.5 51.5t-29 42.5t-43 28.5t-52.5 10.5t-52.5 -10.5t-42.5 -28.5t-28.5 -42.5t-10.5 -51.5v-370
q0 -23 -15.5 -39t-38.5 -16t-39 16t-16 39v370zM134 746q0 19 11 32t26 20.5t31.5 10.5t27.5 3q7 0 19.5 -3t20.5 -6q18 -7 31 -6.5t23.5 4t19 7.5t17.5 4q22 0 38 -15.5t16 -38.5q0 -19 -12 -31.5t-28.5 -20t-34.5 -10.5t-30 -3q-19 0 -36 5t-30 5q-17 0 -29.5 -5t-25.5 -5
q-21 0 -38 15.5t-17 37.5z" />
    <glyph glyph-name="Oacute" unicode="&#xd3;" horiz-adv-x="544" 
d="M28 438q0 50 19.5 94.5t52.5 77.5t77.5 52t94.5 19t94.5 -19t77.5 -52t52.5 -77.5t19.5 -94.5v-216q0 -50 -19.5 -94t-52.5 -77t-77.5 -52.5t-94.5 -19.5t-94.5 19.5t-77.5 52.5t-52.5 77t-19.5 94v216zM138 222q0 -27 10.5 -51.5t29 -42.5t43 -28.5t51.5 -10.5
q28 0 52.5 10.5t42.5 28.5t28.5 42.5t10.5 51.5v216q0 27 -10.5 51.5t-29 42.5t-43 28.5t-51.5 10.5q-28 0 -52.5 -10.5t-42.5 -28.5t-28.5 -42.5t-10.5 -51.5v-216zM269 848q16 26 46 26q23 0 38 -16t15 -37q0 -7 -1 -14.5t-6 -14.5v1q-9 -16 -19 -32.5t-19 -33.5
q-16 -26 -45 -26q-23 0 -39 15.5t-16 37.5q0 14 8 28z" />
    <glyph glyph-name="Ocircumflex" unicode="&#xd4;" horiz-adv-x="544" 
d="M28 438q0 50 19.5 94.5t52.5 77.5t77.5 52t94.5 19t94.5 -19t77.5 -52t52.5 -77.5t19.5 -94.5v-216q0 -50 -19.5 -94t-52.5 -77t-77.5 -52.5t-94.5 -19.5t-94.5 19.5t-77.5 52.5t-52.5 77t-19.5 94v216zM138 222q0 -27 10.5 -51.5t29 -42.5t43 -28.5t51.5 -10.5
q28 0 52.5 10.5t42.5 28.5t28.5 42.5t10.5 51.5v216q0 27 -10.5 51.5t-29 42.5t-43 28.5t-51.5 10.5q-28 0 -52.5 -10.5t-42.5 -28.5t-28.5 -42.5t-10.5 -51.5v-216zM244 840q13 9 27 9q18 0 32 -11l61 -44q11 -8 17 -20t6 -23q0 -23 -17.5 -38.5t-38.5 -15.5q-8 0 -15.5 2
t-14.5 8q-10 7 -15.5 10t-15.5 10q-8 -5 -13.5 -10t-13.5 -10q-16 -10 -31 -10q-23 0 -39 15.5t-16 38.5q0 11 6 23t17 20z" />
    <glyph glyph-name="Otilde" unicode="&#xd5;" horiz-adv-x="544" 
d="M28 438q0 50 19.5 94.5t52.5 77.5t77.5 52t94.5 19t94.5 -19t77.5 -52t52.5 -77.5t19.5 -94.5v-216q0 -50 -19.5 -94t-52.5 -77t-77.5 -52.5t-94.5 -19.5t-94.5 19.5t-77.5 52.5t-52.5 77t-19.5 94v216zM138 222q0 -27 10.5 -51.5t29 -42.5t43 -28.5t51.5 -10.5
q28 0 52.5 10.5t42.5 28.5t28.5 42.5t10.5 51.5v216q0 27 -10.5 51.5t-29 42.5t-43 28.5t-51.5 10.5q-28 0 -52.5 -10.5t-42.5 -28.5t-28.5 -42.5t-10.5 -51.5v-216zM131 746q0 19 11 32t26 20.5t31.5 10.5t27.5 3q7 0 19.5 -3t20.5 -6q18 -7 31 -6.5t23.5 4t19 7.5t17.5 4
q22 0 38 -15.5t16 -38.5q0 -19 -12 -31.5t-28.5 -20t-34.5 -10.5t-30 -3q-19 0 -36 5t-30 5q-17 0 -29.5 -5t-25.5 -5q-21 0 -38 15.5t-17 37.5z" />
    <glyph glyph-name="Odieresis" unicode="&#xd6;" horiz-adv-x="544" 
d="M28 438q0 50 19.5 94.5t52.5 77.5t77.5 52t94.5 19t94.5 -19t77.5 -52t52.5 -77.5t19.5 -94.5v-216q0 -50 -19.5 -94t-52.5 -77t-77.5 -52.5t-94.5 -19.5t-94.5 19.5t-77.5 52.5t-52.5 77t-19.5 94v216zM138 222q0 -27 10.5 -51.5t29 -42.5t43 -28.5t51.5 -10.5
q28 0 52.5 10.5t42.5 28.5t28.5 42.5t10.5 51.5v216q0 27 -10.5 51.5t-29 42.5t-43 28.5t-51.5 10.5q-28 0 -52.5 -10.5t-42.5 -28.5t-28.5 -42.5t-10.5 -51.5v-216zM157 773q0 23 15.5 38.5t37.5 15.5t38 -15.5t16 -38.5v-27q0 -22 -15.5 -37.5t-38.5 -15.5q-21 0 -37 15.5
t-16 37.5v27zM279 773q0 23 15.5 38.5t37.5 15.5t38 -15.5t16 -38.5v-27q0 -22 -15.5 -37.5t-38.5 -15.5q-21 0 -37 15.5t-16 37.5v27z" />
    <glyph glyph-name="Ugrave" unicode="&#xd9;" horiz-adv-x="551" 
d="M32 609q0 23 16 39t39 16q22 0 38 -16t16 -39v-386q0 -27 11 -51.5t29.5 -42.5t43 -28.5t51.5 -10.5q28 0 52.5 10.5t42.5 28.5t28.5 42.5t10.5 51.5v386q0 23 16 39t39 16q22 0 38 -16t16 -39v-386q0 -50 -19 -94t-52 -77t-77.5 -52.5t-94.5 -19.5t-94.5 19.5
t-77.5 52.5t-52.5 77t-19.5 94v386zM189 772v-1q-8 13 -8 29q0 21 16 37t39 16q29 0 45 -26l38 -66q5 -8 6 -15t1 -13q0 -22 -15 -37.5t-38 -15.5q-29 0 -46 26z" />
    <glyph glyph-name="Uacute" unicode="&#xda;" horiz-adv-x="551" 
d="M32 609q0 23 16 39t39 16q22 0 38 -16t16 -39v-386q0 -27 11 -51.5t29.5 -42.5t43 -28.5t51.5 -10.5q28 0 52.5 10.5t42.5 28.5t28.5 42.5t10.5 51.5v386q0 23 16 39t39 16q22 0 38 -16t16 -39v-386q0 -50 -19 -94t-52 -77t-77.5 -52.5t-94.5 -19.5t-94.5 19.5
t-77.5 52.5t-52.5 77t-19.5 94v386zM270 828q16 26 46 26q23 0 38 -16t15 -37q0 -7 -1 -14.5t-6 -14.5v1q-9 -16 -19 -32.5t-19 -33.5q-16 -26 -45 -26q-23 0 -39 15.5t-16 37.5q0 14 8 28z" />
    <glyph glyph-name="Ucircumflex" unicode="&#xdb;" horiz-adv-x="551" 
d="M32 609q0 23 16 39t39 16q22 0 38 -16t16 -39v-386q0 -27 11 -51.5t29.5 -42.5t43 -28.5t51.5 -10.5q28 0 52.5 10.5t42.5 28.5t28.5 42.5t10.5 51.5v386q0 23 16 39t39 16q22 0 38 -16t16 -39v-386q0 -50 -19 -94t-52 -77t-77.5 -52.5t-94.5 -19.5t-94.5 19.5
t-77.5 52.5t-52.5 77t-19.5 94v386zM247 825q13 9 27 9q18 0 32 -11l61 -44q11 -8 17 -20t6 -23q0 -23 -17.5 -38.5t-38.5 -15.5q-8 0 -15.5 2t-14.5 8q-10 7 -15.5 10t-15.5 10q-8 -5 -13.5 -10t-13.5 -10q-16 -10 -31 -10q-23 0 -39 15.5t-16 38.5q0 11 6 23t17 20z" />
    <glyph glyph-name="Udieresis" unicode="&#xdc;" horiz-adv-x="551" 
d="M32 609q0 23 16 39t39 16q22 0 38 -16t16 -39v-386q0 -27 11 -51.5t29.5 -42.5t43 -28.5t51.5 -10.5q28 0 52.5 10.5t42.5 28.5t28.5 42.5t10.5 51.5v386q0 23 16 39t39 16q22 0 38 -16t16 -39v-386q0 -50 -19 -94t-52 -77t-77.5 -52.5t-94.5 -19.5t-94.5 19.5
t-77.5 52.5t-52.5 77t-19.5 94v386zM161 773q0 23 15.5 38.5t37.5 15.5t38 -15.5t16 -38.5v-27q0 -22 -15.5 -37.5t-38.5 -15.5q-21 0 -37 15.5t-16 37.5v27zM283 773q0 23 15.5 38.5t37.5 15.5t38 -15.5t16 -38.5v-27q0 -22 -15.5 -37.5t-38.5 -15.5q-21 0 -37 15.5
t-16 37.5v27z" />
    <glyph glyph-name="Yacute" unicode="&#xdd;" horiz-adv-x="545" 
d="M28 609q0 23 16 39t39 16q22 0 38.5 -16t16.5 -39v-188q0 -27 10.5 -51t29 -42t43 -28.5t52.5 -10.5t52 10.5t42 28.5t28.5 42t10.5 51v188q0 23 16 39t39 16q22 0 38.5 -16t16.5 -39v-188q0 -42 -14.5 -80.5t-39.5 -70t-60 -53.5t-75 -31v-135q0 -23 -15.5 -39
t-38.5 -16t-39 16t-16 39v135q-41 9 -75.5 31t-60 53.5t-40 70t-14.5 80.5v188zM272 825q16 26 46 26q23 0 38 -16t15 -37q0 -7 -1 -14.5t-6 -14.5v1q-9 -16 -19 -32.5t-19 -33.5q-16 -26 -45 -26q-23 0 -39 15.5t-16 37.5q0 14 8 28z" />
    <glyph glyph-name="agrave" unicode="&#xe0;" horiz-adv-x="432" 
d="M29 315q0 38 14.5 71.5t40 59t59 40t72.5 14.5q38 0 72 -14.5t59.5 -40t40 -59t14.5 -71.5v-261q0 -23 -16 -38.5t-37 -15.5q-11 0 -22.5 6t-19.5 13q-43 -23 -91 -23q-38 0 -72 14.5t-59.5 40t-40 59t-14.5 71.5v134zM137 181q0 -32 23 -54.5t55 -22.5t54.5 21t24.5 52
v138q0 16 -6.5 30t-17 24.5t-25 16.5t-30.5 6q-33 0 -55.5 -22.5t-22.5 -54.5v-134zM120 612v-1q-8 13 -8 29q0 21 16 37t39 16q29 0 45 -26l38 -66q5 -8 6 -15t1 -13q0 -22 -15 -37.5t-38 -15.5q-29 0 -46 26z" />
    <glyph glyph-name="aacute" unicode="&#xe1;" horiz-adv-x="432" 
d="M29 315q0 38 14.5 71.5t40 59t59 40t72.5 14.5q38 0 72 -14.5t59.5 -40t40 -59t14.5 -71.5v-261q0 -23 -16 -38.5t-37 -15.5q-11 0 -22.5 6t-19.5 13q-43 -23 -91 -23q-38 0 -72 14.5t-59.5 40t-40 59t-14.5 71.5v134zM137 181q0 -32 23 -54.5t55 -22.5t54.5 21t24.5 52
v138q0 16 -6.5 30t-17 24.5t-25 16.5t-30.5 6q-33 0 -55.5 -22.5t-22.5 -54.5v-134zM219 666q16 26 46 26q23 0 38 -16t15 -37q0 -7 -1 -14.5t-6 -14.5v1q-9 -16 -19 -32.5t-19 -33.5q-16 -26 -45 -26q-23 0 -39 15.5t-16 37.5q0 14 8 28z" />
    <glyph glyph-name="acircumflex" unicode="&#xe2;" horiz-adv-x="432" 
d="M29 315q0 38 14.5 71.5t40 59t59 40t72.5 14.5q38 0 72 -14.5t59.5 -40t40 -59t14.5 -71.5v-261q0 -23 -16 -38.5t-37 -15.5q-11 0 -22.5 6t-19.5 13q-43 -23 -91 -23q-38 0 -72 14.5t-59.5 40t-40 59t-14.5 71.5v134zM137 181q0 -32 23 -54.5t55 -22.5t54.5 21t24.5 52
v138q0 16 -6.5 30t-17 24.5t-25 16.5t-30.5 6q-33 0 -55.5 -22.5t-22.5 -54.5v-134zM188 662q13 9 27 9q18 0 32 -11l61 -44q11 -8 17 -20t6 -23q0 -23 -17.5 -38.5t-38.5 -15.5q-8 0 -15.5 2t-14.5 8q-10 7 -15.5 10t-15.5 10q-8 -5 -13.5 -10t-13.5 -10q-16 -10 -31 -10
q-23 0 -39 15.5t-16 38.5q0 11 6 23t17 20z" />
    <glyph glyph-name="atilde" unicode="&#xe3;" horiz-adv-x="432" 
d="M29 315q0 38 14.5 71.5t40 59t59 40t72.5 14.5q38 0 72 -14.5t59.5 -40t40 -59t14.5 -71.5v-261q0 -23 -16 -38.5t-37 -15.5q-11 0 -22.5 6t-19.5 13q-43 -23 -91 -23q-38 0 -72 14.5t-59.5 40t-40 59t-14.5 71.5v134zM137 181q0 -32 23 -54.5t55 -22.5t54.5 21t24.5 52
v138q0 16 -6.5 30t-17 24.5t-25 16.5t-30.5 6q-33 0 -55.5 -22.5t-22.5 -54.5v-134zM75 583q0 19 11 32t26 20.5t31.5 10.5t27.5 3q7 0 19.5 -3t20.5 -6q18 -7 31 -6.5t23.5 4t19 7.5t17.5 4q22 0 38 -15.5t16 -38.5q0 -19 -12 -31.5t-28.5 -20t-34.5 -10.5t-30 -3
q-19 0 -36 5t-30 5q-17 0 -29.5 -5t-25.5 -5q-21 0 -38 15.5t-17 37.5z" />
    <glyph glyph-name="adieresis" unicode="&#xe4;" horiz-adv-x="432" 
d="M29 315q0 38 14.5 71.5t40 59t59 40t72.5 14.5q38 0 72 -14.5t59.5 -40t40 -59t14.5 -71.5v-261q0 -23 -16 -38.5t-37 -15.5q-11 0 -22.5 6t-19.5 13q-43 -23 -91 -23q-38 0 -72 14.5t-59.5 40t-40 59t-14.5 71.5v134zM137 181q0 -32 23 -54.5t55 -22.5t54.5 21t24.5 52
v138q0 16 -6.5 30t-17 24.5t-25 16.5t-30.5 6q-33 0 -55.5 -22.5t-22.5 -54.5v-134zM101 610q0 23 15.5 38.5t37.5 15.5t38 -15.5t16 -38.5v-27q0 -22 -15.5 -37.5t-38.5 -15.5q-21 0 -37 15.5t-16 37.5v27zM223 610q0 23 15.5 38.5t37.5 15.5t38 -15.5t16 -38.5v-27
q0 -22 -15.5 -37.5t-38.5 -15.5q-21 0 -37 15.5t-16 37.5v27z" />
    <glyph glyph-name="aring" unicode="&#xe5;" horiz-adv-x="432" 
d="M29 315q0 38 14.5 71.5t40 59t59 40t72.5 14.5q38 0 72 -14.5t59.5 -40t40 -59t14.5 -71.5v-261q0 -23 -16 -38.5t-37 -15.5q-11 0 -22.5 6t-19.5 13q-43 -23 -91 -23q-38 0 -72 14.5t-59.5 40t-40 59t-14.5 71.5v134zM137 181q0 -32 23 -54.5t55 -22.5t54.5 21t24.5 52
v138q0 16 -6.5 30t-17 24.5t-25 16.5t-30.5 6q-33 0 -55.5 -22.5t-22.5 -54.5v-134zM215 719q21 0 39 -8t32 -21.5t22 -32t8 -39.5q0 -20 -8 -38t-22 -31.5t-32 -21.5t-39 -8t-39 8t-31.5 21.5t-21.5 31.5t-8 38q0 21 8 39.5t21.5 32t31.5 21.5t39 8zM201 618q0 -13 14 -13
q5 0 9.5 4t4.5 9q0 6 -4.5 10t-9.5 4q-14 0 -14 -14z" />
    <glyph glyph-name="egrave" unicode="&#xe8;" horiz-adv-x="430" 
d="M29 315q0 38 14.5 71.5t40 59t59 40t72.5 14.5q38 0 72 -14.5t59.5 -40t40 -59t14.5 -71.5v-67q0 -23 -15.5 -38.5t-37.5 -15.5h-211v-13q0 -32 23 -54.5t55 -22.5q12 0 27.5 3t29.5 20q6 7 15 14.5t19.5 11.5t22.5 3.5t24 -9.5q16 -11 21.5 -31.5t-10.5 -43.5
q-22 -29 -57 -52.5t-92 -23.5q-38 0 -72 14.5t-59.5 40t-40 59t-14.5 71.5v134zM137 302h157v13q0 16 -6.5 30t-17 24.5t-25 16.5t-30.5 6q-33 0 -55.5 -22.5t-22.5 -54.5v-13zM127 614v-1q-8 13 -8 29q0 21 16 37t39 16q29 0 45 -26l38 -66q5 -8 6 -15t1 -13
q0 -22 -15 -37.5t-38 -15.5q-29 0 -46 26z" />
    <glyph glyph-name="eacute" unicode="&#xe9;" horiz-adv-x="430" 
d="M29 315q0 38 14.5 71.5t40 59t59 40t72.5 14.5q38 0 72 -14.5t59.5 -40t40 -59t14.5 -71.5v-67q0 -23 -15.5 -38.5t-37.5 -15.5h-211v-13q0 -32 23 -54.5t55 -22.5q12 0 27.5 3t29.5 20q6 7 15 14.5t19.5 11.5t22.5 3.5t24 -9.5q16 -11 21.5 -31.5t-10.5 -43.5
q-22 -29 -57 -52.5t-92 -23.5q-38 0 -72 14.5t-59.5 40t-40 59t-14.5 71.5v134zM137 302h157v13q0 16 -6.5 30t-17 24.5t-25 16.5t-30.5 6q-33 0 -55.5 -22.5t-22.5 -54.5v-13zM222 669q16 26 46 26q23 0 38 -16t15 -37q0 -7 -1 -14.5t-6 -14.5v1q-9 -16 -19 -32.5
t-19 -33.5q-16 -26 -45 -26q-23 0 -39 15.5t-16 37.5q0 14 8 28z" />
    <glyph glyph-name="ecircumflex" unicode="&#xea;" horiz-adv-x="430" 
d="M29 315q0 38 14.5 71.5t40 59t59 40t72.5 14.5q38 0 72 -14.5t59.5 -40t40 -59t14.5 -71.5v-67q0 -23 -15.5 -38.5t-37.5 -15.5h-211v-13q0 -32 23 -54.5t55 -22.5q12 0 27.5 3t29.5 20q6 7 15 14.5t19.5 11.5t22.5 3.5t24 -9.5q16 -11 21.5 -31.5t-10.5 -43.5
q-22 -29 -57 -52.5t-92 -23.5q-38 0 -72 14.5t-59.5 40t-40 59t-14.5 71.5v134zM137 302h157v13q0 16 -6.5 30t-17 24.5t-25 16.5t-30.5 6q-33 0 -55.5 -22.5t-22.5 -54.5v-13zM187 662q13 9 27 9q18 0 32 -11l61 -44q11 -8 17 -20t6 -23q0 -23 -17.5 -38.5t-38.5 -15.5
q-8 0 -15.5 2t-14.5 8q-10 7 -15.5 10t-15.5 10q-8 -5 -13.5 -10t-13.5 -10q-16 -10 -31 -10q-23 0 -39 15.5t-16 38.5q0 11 6 23t17 20z" />
    <glyph glyph-name="edieresis" unicode="&#xeb;" horiz-adv-x="430" 
d="M29 315q0 38 14.5 71.5t40 59t59 40t72.5 14.5q38 0 72 -14.5t59.5 -40t40 -59t14.5 -71.5v-67q0 -23 -15.5 -38.5t-37.5 -15.5h-211v-13q0 -32 23 -54.5t55 -22.5q12 0 27.5 3t29.5 20q6 7 15 14.5t19.5 11.5t22.5 3.5t24 -9.5q16 -11 21.5 -31.5t-10.5 -43.5
q-22 -29 -57 -52.5t-92 -23.5q-38 0 -72 14.5t-59.5 40t-40 59t-14.5 71.5v134zM137 302h157v13q0 16 -6.5 30t-17 24.5t-25 16.5t-30.5 6q-33 0 -55.5 -22.5t-22.5 -54.5v-13zM100 610q0 23 15.5 38.5t37.5 15.5t38 -15.5t16 -38.5v-27q0 -22 -15.5 -37.5t-38.5 -15.5
q-21 0 -37 15.5t-16 37.5v27zM222 610q0 23 15.5 38.5t37.5 15.5t38 -15.5t16 -38.5v-27q0 -22 -15.5 -37.5t-38.5 -15.5q-21 0 -37 15.5t-16 37.5v27z" />
    <glyph glyph-name="igrave" unicode="&#xec;" horiz-adv-x="173" 
d="M33 446q0 23 15.5 38.5t37.5 15.5t38 -15.5t16 -38.5v-396q0 -23 -15.5 -38.5t-38.5 -15.5q-21 0 -37 15.5t-16 38.5v396zM-5 611v-1q-8 13 -8 29q0 21 16 37t39 16q29 0 45 -26l38 -66q5 -8 6 -15t1 -13q0 -22 -15 -37.5t-38 -15.5q-29 0 -46 26z" />
    <glyph glyph-name="iacute" unicode="&#xed;" horiz-adv-x="173" 
d="M33 446q0 23 15.5 38.5t37.5 15.5t38 -15.5t16 -38.5v-396q0 -23 -15.5 -38.5t-38.5 -15.5q-21 0 -37 15.5t-16 38.5v396zM89 664q16 26 46 26q23 0 38 -16t15 -37q0 -7 -1 -14.5t-6 -14.5v1q-9 -16 -19 -32.5t-19 -33.5q-16 -26 -45 -26q-23 0 -39 15.5t-16 37.5
q0 14 8 28z" />
    <glyph glyph-name="icircumflex" unicode="&#xee;" horiz-adv-x="173" 
d="M33 446q0 23 15.5 38.5t37.5 15.5t38 -15.5t16 -38.5v-396q0 -23 -15.5 -38.5t-38.5 -15.5q-21 0 -37 15.5t-16 38.5v396zM60 664q13 9 27 9q18 0 32 -11l61 -44q11 -8 17 -20t6 -23q0 -23 -17.5 -38.5t-38.5 -15.5q-8 0 -15.5 2t-14.5 8q-10 7 -15.5 10t-15.5 10
q-8 -5 -13.5 -10t-13.5 -10q-16 -10 -31 -10q-23 0 -39 15.5t-16 38.5q0 11 6 23t17 20z" />
    <glyph glyph-name="idieresis" unicode="&#xef;" horiz-adv-x="173" 
d="M33 446q0 23 15.5 38.5t37.5 15.5t38 -15.5t16 -38.5v-396q0 -23 -15.5 -38.5t-38.5 -15.5q-21 0 -37 15.5t-16 38.5v396zM-27 610q0 23 15.5 38.5t37.5 15.5t38 -15.5t16 -38.5v-27q0 -22 -15.5 -37.5t-38.5 -15.5q-21 0 -37 15.5t-16 37.5v27zM95 610q0 23 15.5 38.5
t37.5 15.5t38 -15.5t16 -38.5v-27q0 -22 -15.5 -37.5t-38.5 -15.5q-21 0 -37 15.5t-16 37.5v27z" />
    <glyph glyph-name="odieresis" unicode="&#xf6;" horiz-adv-x="430" 
d="M29 315q0 38 14.5 71.5t40 59t59 40t72.5 14.5q38 0 72 -14.5t59.5 -40t40 -59t14.5 -71.5v-134q0 -38 -14.5 -71.5t-40 -59t-59 -40t-72.5 -14.5q-38 0 -72 14.5t-59.5 40t-40 59t-14.5 71.5v134zM137 181q0 -32 23 -54.5t55 -22.5q34 0 56.5 22.5t22.5 54.5v134
q0 16 -6.5 30t-17 24.5t-25 16.5t-30.5 6q-33 0 -55.5 -22.5t-22.5 -54.5v-134zM100 610q0 23 15.5 38.5t37.5 15.5t38 -15.5t16 -38.5v-27q0 -22 -15.5 -37.5t-38.5 -15.5q-21 0 -37 15.5t-16 37.5v27zM222 610q0 23 15.5 38.5t37.5 15.5t38 -15.5t16 -38.5v-27
q0 -22 -15.5 -37.5t-38.5 -15.5q-21 0 -37 15.5t-16 37.5v27z" />
    <glyph glyph-name="otilde" unicode="&#xf5;" horiz-adv-x="430" 
d="M29 315q0 38 14.5 71.5t40 59t59 40t72.5 14.5q38 0 72 -14.5t59.5 -40t40 -59t14.5 -71.5v-134q0 -38 -14.5 -71.5t-40 -59t-59 -40t-72.5 -14.5q-38 0 -72 14.5t-59.5 40t-40 59t-14.5 71.5v134zM137 181q0 -32 23 -54.5t55 -22.5q34 0 56.5 22.5t22.5 54.5v134
q0 16 -6.5 30t-17 24.5t-25 16.5t-30.5 6q-33 0 -55.5 -22.5t-22.5 -54.5v-134zM74 583q0 19 11 32t26 20.5t31.5 10.5t27.5 3q7 0 19.5 -3t20.5 -6q18 -7 31 -6.5t23.5 4t19 7.5t17.5 4q22 0 38 -15.5t16 -38.5q0 -19 -12 -31.5t-28.5 -20t-34.5 -10.5t-30 -3q-19 0 -36 5
t-30 5q-17 0 -29.5 -5t-25.5 -5q-21 0 -38 15.5t-17 37.5z" />
    <glyph glyph-name="ocircumflex" unicode="&#xf4;" horiz-adv-x="430" 
d="M29 315q0 38 14.5 71.5t40 59t59 40t72.5 14.5q38 0 72 -14.5t59.5 -40t40 -59t14.5 -71.5v-134q0 -38 -14.5 -71.5t-40 -59t-59 -40t-72.5 -14.5q-38 0 -72 14.5t-59.5 40t-40 59t-14.5 71.5v134zM137 181q0 -32 23 -54.5t55 -22.5q34 0 56.5 22.5t22.5 54.5v134
q0 16 -6.5 30t-17 24.5t-25 16.5t-30.5 6q-33 0 -55.5 -22.5t-22.5 -54.5v-134zM187 662q13 9 27 9q18 0 32 -11l61 -44q11 -8 17 -20t6 -23q0 -23 -17.5 -38.5t-38.5 -15.5q-8 0 -15.5 2t-14.5 8q-10 7 -15.5 10t-15.5 10q-8 -5 -13.5 -10t-13.5 -10q-16 -10 -31 -10
q-23 0 -39 15.5t-16 38.5q0 11 6 23t17 20z" />
    <glyph glyph-name="oacute" unicode="&#xf3;" horiz-adv-x="430" 
d="M29 315q0 38 14.5 71.5t40 59t59 40t72.5 14.5q38 0 72 -14.5t59.5 -40t40 -59t14.5 -71.5v-134q0 -38 -14.5 -71.5t-40 -59t-59 -40t-72.5 -14.5q-38 0 -72 14.5t-59.5 40t-40 59t-14.5 71.5v134zM137 181q0 -32 23 -54.5t55 -22.5q34 0 56.5 22.5t22.5 54.5v134
q0 16 -6.5 30t-17 24.5t-25 16.5t-30.5 6q-33 0 -55.5 -22.5t-22.5 -54.5v-134zM202 667q16 26 46 26q23 0 38 -16t15 -37q0 -7 -1 -14.5t-6 -14.5v1q-9 -16 -19 -32.5t-19 -33.5q-16 -26 -45 -26q-23 0 -39 15.5t-16 37.5q0 14 8 28z" />
    <glyph glyph-name="ograve" unicode="&#xf2;" horiz-adv-x="430" 
d="M29 315q0 38 14.5 71.5t40 59t59 40t72.5 14.5q38 0 72 -14.5t59.5 -40t40 -59t14.5 -71.5v-134q0 -38 -14.5 -71.5t-40 -59t-59 -40t-72.5 -14.5q-38 0 -72 14.5t-59.5 40t-40 59t-14.5 71.5v134zM137 181q0 -32 23 -54.5t55 -22.5q34 0 56.5 22.5t22.5 54.5v134
q0 16 -6.5 30t-17 24.5t-25 16.5t-30.5 6q-33 0 -55.5 -22.5t-22.5 -54.5v-134zM120 610v-1q-8 13 -8 29q0 21 16 37t39 16q29 0 45 -26l38 -66q5 -8 6 -15t1 -13q0 -22 -15 -37.5t-38 -15.5q-29 0 -46 26z" />
    <glyph glyph-name="ntilde" unicode="&#xf1;" 
d="M32 315q0 38 14.5 71.5t40 59t59 40t72.5 14.5q38 0 72 -14.5t59.5 -40t40 -59t14.5 -71.5v-265q0 -23 -16 -38.5t-38 -15.5t-37.5 15.5t-15.5 38.5v265q0 16 -6.5 30t-17 24.5t-25 16.5t-30.5 6q-33 0 -56 -22.5t-23 -54.5v-265q0 -23 -16 -38.5t-37 -15.5
q-23 0 -38.5 15.5t-15.5 38.5v265zM77 583q0 19 11 32t26 20.5t31.5 10.5t27.5 3q7 0 19.5 -3t20.5 -6q18 -7 31 -6.5t23.5 4t19 7.5t17.5 4q22 0 38 -15.5t16 -38.5q0 -19 -12 -31.5t-28.5 -20t-34.5 -10.5t-30 -3q-19 0 -36 5t-30 5q-17 0 -29.5 -5t-25.5 -5
q-21 0 -38 15.5t-17 37.5z" />
    <glyph glyph-name="ugrave" unicode="&#xf9;" 
d="M32 446q0 23 15.5 38.5t38.5 15.5q21 0 37 -15.5t16 -38.5v-265q0 -32 23 -54.5t56 -22.5q16 0 30.5 6t25 16.5t17 24.5t6.5 30v265q0 23 15.5 38.5t37.5 15.5t38 -15.5t16 -38.5v-265q0 -38 -14.5 -71.5t-40 -59t-59.5 -40t-72 -14.5q-39 0 -72.5 14.5t-59 40t-40 59
t-14.5 71.5v265zM133 607v-1q-8 13 -8 29q0 21 16 37t39 16q29 0 45 -26l38 -66q5 -8 6 -15t1 -13q0 -22 -15 -37.5t-38 -15.5q-29 0 -46 26z" />
    <glyph glyph-name="uacute" unicode="&#xfa;" 
d="M32 446q0 23 15.5 38.5t38.5 15.5q21 0 37 -15.5t16 -38.5v-265q0 -32 23 -54.5t56 -22.5q16 0 30.5 6t25 16.5t17 24.5t6.5 30v265q0 23 15.5 38.5t37.5 15.5t38 -15.5t16 -38.5v-265q0 -38 -14.5 -71.5t-40 -59t-59.5 -40t-72 -14.5q-39 0 -72.5 14.5t-59 40t-40 59
t-14.5 71.5v265zM215 664q16 26 46 26q23 0 38 -16t15 -37q0 -7 -1 -14.5t-6 -14.5v1q-9 -16 -19 -32.5t-19 -33.5q-16 -26 -45 -26q-23 0 -39 15.5t-16 37.5q0 14 8 28z" />
    <glyph glyph-name="ucircumflex" unicode="&#xfb;" 
d="M32 446q0 23 15.5 38.5t38.5 15.5q21 0 37 -15.5t16 -38.5v-265q0 -32 23 -54.5t56 -22.5q16 0 30.5 6t25 16.5t17 24.5t6.5 30v265q0 23 15.5 38.5t37.5 15.5t38 -15.5t16 -38.5v-265q0 -38 -14.5 -71.5t-40 -59t-59.5 -40t-72 -14.5q-39 0 -72.5 14.5t-59 40t-40 59
t-14.5 71.5v265zM190 662q13 9 27 9q18 0 32 -11l61 -44q11 -8 17 -20t6 -23q0 -23 -17.5 -38.5t-38.5 -15.5q-8 0 -15.5 2t-14.5 8q-10 7 -15.5 10t-15.5 10q-8 -5 -13.5 -10t-13.5 -10q-16 -10 -31 -10q-23 0 -39 15.5t-16 38.5q0 11 6 23t17 20z" />
    <glyph glyph-name="udieresis" unicode="&#xfc;" 
d="M32 446q0 23 15.5 38.5t38.5 15.5q21 0 37 -15.5t16 -38.5v-265q0 -32 23 -54.5t56 -22.5q16 0 30.5 6t25 16.5t17 24.5t6.5 30v265q0 23 15.5 38.5t37.5 15.5t38 -15.5t16 -38.5v-265q0 -38 -14.5 -71.5t-40 -59t-59.5 -40t-72 -14.5q-39 0 -72.5 14.5t-59 40t-40 59
t-14.5 71.5v265zM103 610q0 23 15.5 38.5t37.5 15.5t38 -15.5t16 -38.5v-27q0 -22 -15.5 -37.5t-38.5 -15.5q-21 0 -37 15.5t-16 37.5v27zM225 610q0 23 15.5 38.5t37.5 15.5t38 -15.5t16 -38.5v-27q0 -22 -15.5 -37.5t-38.5 -15.5q-21 0 -37 15.5t-16 37.5v27z" />
    <glyph glyph-name="yacute" unicode="&#xfd;" 
d="M32 446q0 23 15.5 38.5t38.5 15.5q22 0 38 -15.5t16 -38.5v-273q0 -32 22.5 -54.5t55.5 -22.5q16 0 30.5 6t25 16.5t17 24.5t6.5 30v273q0 23 15.5 38.5t38.5 15.5q21 0 37 -15.5t16 -38.5v-273q0 -32 -10 -60.5t-27.5 -51.5t-41.5 -40t-53 -25v-105q0 -23 -15.5 -38.5
t-38.5 -15.5q-21 0 -37 15.5t-16 38.5v105q-29 8 -53.5 25t-42 40t-27.5 51.5t-10 60.5v273zM212 661q16 26 46 26q23 0 38 -16t15 -37q0 -7 -1 -14.5t-6 -14.5v1q-9 -16 -19 -32.5t-19 -33.5q-16 -26 -45 -26q-23 0 -39 15.5t-16 37.5q0 14 8 28z" />
    <glyph glyph-name="ydieresis" unicode="&#xff;" 
d="M32 446q0 23 15.5 38.5t38.5 15.5q22 0 38 -15.5t16 -38.5v-273q0 -32 22.5 -54.5t55.5 -22.5q16 0 30.5 6t25 16.5t17 24.5t6.5 30v273q0 23 15.5 38.5t38.5 15.5q21 0 37 -15.5t16 -38.5v-273q0 -32 -10 -60.5t-27.5 -51.5t-41.5 -40t-53 -25v-105q0 -23 -15.5 -38.5
t-38.5 -15.5q-21 0 -37 15.5t-16 38.5v105q-29 8 -53.5 25t-42 40t-27.5 51.5t-10 60.5v273zM103 610q0 23 15.5 38.5t37.5 15.5t38 -15.5t16 -38.5v-27q0 -22 -15.5 -37.5t-38.5 -15.5q-21 0 -37 15.5t-16 37.5v27zM225 610q0 23 15.5 38.5t37.5 15.5t38 -15.5t16 -38.5
v-27q0 -22 -15.5 -37.5t-38.5 -15.5q-21 0 -37 15.5t-16 37.5v27z" />
    <glyph glyph-name="Aogonek" unicode="&#x104;" horiz-adv-x="608" 
d="M250 631q16 33 50 33q17 0 30.5 -10t19.5 -23l238 -560q5 -12 5 -21q0 -19 -14.5 -36.5t-39.5 -17.5q-37 0 -50 33l-62 148h-253q-16 -37 -31.5 -74t-30.5 -74q-8 -17 -21 -25t-29 -8q-25 0 -39.5 17.5t-14.5 36.5q0 5 1 11t3 10zM300 472q-11 -24 -20.5 -46.5
t-19.5 -44.5t-20 -45t-21 -49h161zM485 54q0 8 5 13t13 5h71q8 0 13 -5t5 -13v-16q0 -5 2 -10t5 -12q6 -14 11.5 -28t5.5 -29q0 -14 -5.5 -27t-20 -22.5t-39.5 -15t-63 -5.5q-22 0 -37.5 15.5t-15.5 37.5q0 15 5.5 24.5t14 15t18.5 8t20 4.5q1 1 5 1q-1 1 -1 2q-5 8 -8.5 18
t-3.5 23v16z" />
    <glyph glyph-name="Lcaron" unicode="&#x13d;" horiz-adv-x="525" 
d="M35 609q0 23 16 39t39 16q22 0 38 -16t16 -39v-500h324q23 0 38.5 -15.5t15.5 -38.5t-15.5 -39t-38.5 -16h-378q-23 0 -39 16t-16 39v554zM307 608q0 23 16 38.5t38 15.5t38 -15.5t16 -38.5v-73q0 -20 -16.5 -37t-36.5 -17h-37q-23 0 -38.5 16t-15.5 38q0 18 9.5 32
t26.5 19v22z" />
    <glyph glyph-name="Sacute" unicode="&#x15a;" horiz-adv-x="563" 
d="M143 173q15 -32 51.5 -56.5t87.5 -24.5q27 0 53 6.5t46 19.5t32.5 32.5t12.5 46.5t-12 46.5t-32 32t-46 19t-54 6.5q-51 0 -93.5 11t-74 33.5t-49 58t-17.5 85.5q0 45 16.5 81t47 61t74 38t96.5 13q1 0 24.5 -2t55.5 -12.5t66.5 -32.5t58.5 -63q3 -6 6 -15t3 -18
q0 -19 -15.5 -37t-41.5 -18q-13 0 -25 5.5t-20 14.5l1 -1q-11 13 -22 25t-24 21t-29.5 14.5t-38.5 5.5q-65 0 -93 -25t-28 -55q0 -21 9.5 -35.5t26 -23.5t39 -13t47.5 -4q52 0 99 -14t82.5 -41t56 -67.5t20.5 -93.5q0 -55 -21 -96t-56.5 -68t-83.5 -40.5t-102 -13.5
q-11 0 -41 3.5t-67.5 19t-75 47.5t-62.5 89q-7 13 -6 28.5t7.5 28t18.5 21t28 8.5q23 0 39.5 -14.5t24.5 -36.5zM255 843q16 26 46 26q23 0 38 -16t15 -37q0 -7 -1 -14.5t-6 -14.5v1q-9 -16 -19 -32.5t-19 -33.5q-16 -26 -45 -26q-23 0 -39 15.5t-16 37.5q0 14 8 28z" />
    <glyph glyph-name="Tcaron" unicode="&#x164;" horiz-adv-x="515" 
d="M68 551q-23 0 -38.5 15.5t-15.5 38.5t15.5 39t38.5 16h378q23 0 39 -16t16 -39q0 -22 -16 -38t-39 -16h-134v-500q0 -23 -16 -39t-39 -16q-22 0 -38.5 16t-16.5 39v500h-134zM165 727q-23 17 -23 43q0 23 16 38.5t39 15.5q15 0 31 -10l27 -21q8 6 15.5 10.5t15.5 10.5
q13 10 31 10q20 0 37.5 -15.5t17.5 -38.5q0 -26 -23 -43l-61 -45q-14 -10 -32 -10q-8 0 -14.5 2.5t-14.5 6.5z" />
    <glyph glyph-name="Zacute" unicode="&#x179;" horiz-adv-x="571" 
d="M98 551q-23 0 -39 15.5t-16 38.5t16 39t39 16h368q27 0 46 -13.5t19 -39.5q0 -6 -2.5 -15t-7.5 -18l-328 -465h290q23 0 39 -15.5t16 -38.5t-16 -39t-39 -16h-389q-29 0 -45.5 15.5t-16.5 38.5q0 7 2.5 15.5t7.5 16.5q81 115 163 231t165 234h-272zM286 823q16 26 46 26
q23 0 38 -16t15 -37q0 -7 -1 -14.5t-6 -14.5v1q-9 -16 -19 -32.5t-19 -33.5q-16 -26 -45 -26q-23 0 -39 15.5t-16 37.5q0 14 8 28z" />
    <glyph glyph-name="Zdotaccent" unicode="&#x17b;" horiz-adv-x="571" 
d="M98 551q-23 0 -39 15.5t-16 38.5t16 39t39 16h368q27 0 46 -13.5t19 -39.5q0 -6 -2.5 -15t-7.5 -18l-328 -465h290q23 0 39 -15.5t16 -38.5t-16 -39t-39 -16h-389q-29 0 -45.5 15.5t-16.5 38.5q0 7 2.5 15.5t7.5 16.5q81 115 163 231t165 234h-272zM232 756
q0 23 15.5 38.5t38.5 15.5q21 0 37 -15.5t16 -38.5q0 -22 -15.5 -37.5t-37.5 -15.5t-38 15.5t-16 37.5z" />
    <glyph glyph-name="aogonek" unicode="&#x105;" horiz-adv-x="432" 
d="M29 315q0 38 14.5 71.5t40 59t59 40t72.5 14.5q38 0 72 -14.5t59.5 -40t40 -59t14.5 -71.5v-261q0 -23 -16 -38.5t-37 -15.5q-11 0 -22.5 6t-19.5 13q-43 -23 -91 -23q-38 0 -72 14.5t-59.5 40t-40 59t-14.5 71.5v134zM137 181q0 -32 23 -54.5t55 -22.5t54.5 21t24.5 52
v138q0 16 -6.5 30t-17 24.5t-25 16.5t-30.5 6q-33 0 -55.5 -22.5t-22.5 -54.5v-134zM294 36q0 8 5 13t13 5h71q8 0 13 -5t5 -13v-16q0 -5 2 -10t5 -12q6 -14 11.5 -28t5.5 -29q0 -14 -5.5 -27t-20 -22.5t-39.5 -15t-63 -5.5q-22 0 -37.5 15.5t-15.5 37.5q0 15 5.5 24.5
t14 15t18.5 8t20 4.5q1 1 5 1q-1 1 -1 2q-5 8 -8.5 18t-3.5 23v16z" />
    <glyph glyph-name="sacute" unicode="&#x15b;" horiz-adv-x="419" 
d="M34 352q0 33 13 60t36.5 46.5t56 30.5t70.5 11q31 -1 60 -10q25 -8 51 -24t43 -46q9 -15 9 -30q0 -22 -15 -37.5t-37 -15.5q-11 0 -23 5.5t-20 16.5v-1q-14 18 -29 26t-39 8q-31 0 -50 -11.5t-19 -28.5q0 -23 18.5 -32t50.5 -9q38 0 72 -10t59.5 -30t40 -49t14.5 -68
q0 -40 -15 -69.5t-40.5 -49t-60 -29.5t-72.5 -10q-8 0 -30 2.5t-49 13.5t-54.5 34.5t-45.5 64.5q-4 8 -4 20q0 22 15.5 38t38.5 16q17 0 30 -9.5t19 -23.5q10 -23 34 -35.5t48 -12.5q32 0 55.5 10.5t23.5 39.5t-22.5 39.5t-56.5 10.5q-38 0 -70.5 7.5t-56 24.5t-36.5 45.5
t-13 70.5zM183 661q16 26 46 26q23 0 38 -16t15 -37q0 -7 -1 -14.5t-6 -14.5v1q-9 -16 -19 -32.5t-19 -33.5q-16 -26 -45 -26q-23 0 -39 15.5t-16 37.5q0 14 8 28z" />
    <glyph glyph-name="tcaron" unicode="&#x165;" horiz-adv-x="594" 
d="M33 595q0 23 15.5 38.5t37.5 15.5t38 -15.5t16 -38.5v-99h161q23 0 38.5 -15.5t15.5 -38.5q0 -21 -15.5 -37t-38.5 -16h-161v-208q0 -16 6.5 -30t17 -24.5t25 -16.5t30.5 -6q23 0 43 12.5t30 35.5q6 14 19 23.5t30 9.5q23 0 38.5 -16t15.5 -38q0 -8 -5 -20
q-20 -45 -49 -68.5t-56 -34t-46 -11.5t-20 -1q-38 0 -72 14.5t-59.5 40t-40 59t-14.5 71.5v414zM214 667q0 23 16 38.5t38 15.5t38 -15.5t16 -38.5v-73q0 -20 -16.5 -37t-36.5 -17h-37q-23 0 -38.5 16t-15.5 38q0 18 9.5 32t26.5 19v22z" />
    <glyph glyph-name="zacute" unicode="&#x17a;" horiz-adv-x="451" 
d="M100 390q-23 0 -38.5 15.5t-15.5 37.5t15.5 38t38.5 16h251q26 0 45 -13t19 -39q0 -6 -2.5 -14.5t-8.5 -17.5l-213 -306h174q22 0 37.5 -15.5t15.5 -37.5t-15.5 -38t-37.5 -16h-273q-28 0 -44.5 15t-16.5 38q0 16 11 30q29 42 55 79.5t52 74t52.5 74t55.5 79.5h-157z
M225 665q16 26 46 26q23 0 38 -16t15 -37q0 -7 -1 -14.5t-6 -14.5v1q-9 -16 -19 -32.5t-19 -33.5q-16 -26 -45 -26q-23 0 -39 15.5t-16 37.5q0 14 8 28z" />
    <glyph glyph-name="zdotaccent" unicode="&#x17c;" horiz-adv-x="451" 
d="M100 390q-23 0 -38.5 15.5t-15.5 37.5t15.5 38t38.5 16h251q26 0 45 -13t19 -39q0 -6 -2.5 -14.5t-8.5 -17.5l-213 -306h174q22 0 37.5 -15.5t15.5 -37.5t-15.5 -38t-37.5 -16h-273q-28 0 -44.5 15t-16.5 38q0 16 11 30q29 42 55 79.5t52 74t52.5 74t55.5 79.5h-157z
M172 593q0 23 15.5 38.5t38.5 15.5q21 0 37 -15.5t16 -38.5q0 -22 -15.5 -37.5t-37.5 -15.5t-38 15.5t-16 37.5z" />
    <glyph glyph-name="Racute" unicode="&#x154;" horiz-adv-x="558" 
d="M35 605q0 23 16 39t39 16h189q50 0 94.5 -19t77.5 -51.5t52 -76t19 -93.5q0 -67 -30 -120.5t-84 -84.5q26 -32 54.5 -65t54.5 -63q13 -16 13 -36q0 -23 -16 -39.5t-39 -16.5t-41 18l-128 153v-1q-6 6 -12.5 10t-13.5 4h-136v-128q0 -23 -16 -39t-38 -16q-23 0 -39 16
t-16 39v554zM144 551v-262h135q27 0 51.5 10t43 28t29 42t10.5 51t-10.5 51t-28.5 41.5t-42.5 28t-52.5 10.5h-135zM194 829q16 26 46 26q23 0 38 -16t15 -37q0 -7 -1 -14.5t-6 -14.5v1q-9 -16 -19 -32.5t-19 -33.5q-16 -26 -45 -26q-23 0 -39 15.5t-16 37.5q0 14 8 28z" />
    <glyph glyph-name="Abreve" unicode="&#x102;" horiz-adv-x="608" 
d="M250 631q16 33 50 33q17 0 30.5 -10t19.5 -23l238 -560q5 -12 5 -21q0 -19 -14.5 -36.5t-39.5 -17.5q-37 0 -50 33l-62 148h-253q-16 -37 -31.5 -74t-30.5 -74q-8 -17 -21 -25t-29 -8q-25 0 -39.5 17.5t-14.5 36.5q0 5 1 11t3 10zM300 472q-11 -24 -20.5 -46.5
t-19.5 -44.5t-20 -45t-21 -49h161zM300 788q8 0 18.5 5.5t18.5 11.5q10 7 19 17q13 10 27.5 6.5t25 -15.5t14 -28t-4.5 -30q-2 -3 -11.5 -15t-24.5 -25t-35 -23.5t-43 -10.5h-6q-23 0 -43 10.5t-35 23.5t-24.5 25t-11.5 15q-8 14 -4.5 30t13.5 28t24.5 15.5t28.5 -6.5
q9 -10 19 -17q8 -6 17.5 -11.5t17.5 -5.5z" />
    <glyph glyph-name="Ccaron" unicode="&#x10c;" horiz-adv-x="524" 
d="M28 439q0 50 19 94.5t52 77.5t77.5 52t95.5 19q37 0 71 -10.5t63 -30t51.5 -46t36.5 -58.5q4 -7 5.5 -15t1.5 -14q0 -20 -14 -37t-40 -17q-34 0 -50 33q-15 37 -48.5 61t-76.5 24q-28 0 -52.5 -10.5t-43 -28.5t-29 -42.5t-10.5 -51.5v-217q0 -27 11 -51.5t29.5 -42.5
t43 -28.5t51.5 -10.5q43 0 76.5 24.5t49.5 61.5q7 14 21.5 23t27.5 9q25 0 39.5 -17t14.5 -37q0 -12 -4 -21q-13 -34 -35.5 -62t-51.5 -48.5t-64 -31.5t-74 -11q-50 0 -94.5 19.5t-77.5 52.5t-52.5 77t-19.5 94v217zM170 758q-23 17 -23 43q0 23 16 38.5t39 15.5
q15 0 31 -10l27 -21q8 6 15.5 10.5t15.5 10.5q13 10 31 10q20 0 37.5 -15.5t17.5 -38.5q0 -26 -23 -43l-61 -45q-14 -10 -32 -10q-8 0 -14.5 2.5t-14.5 6.5z" />
    <glyph glyph-name="Cacute" unicode="&#x106;" horiz-adv-x="524" 
d="M28 439q0 50 19 94.5t52 77.5t77.5 52t95.5 19q37 0 71 -10.5t63 -30t51.5 -46t36.5 -58.5q4 -7 5.5 -15t1.5 -14q0 -20 -14 -37t-40 -17q-34 0 -50 33q-15 37 -48.5 61t-76.5 24q-28 0 -52.5 -10.5t-43 -28.5t-29 -42.5t-10.5 -51.5v-217q0 -27 11 -51.5t29.5 -42.5
t43 -28.5t51.5 -10.5q43 0 76.5 24.5t49.5 61.5q7 14 21.5 23t27.5 9q25 0 39.5 -17t14.5 -37q0 -12 -4 -21q-13 -34 -35.5 -62t-51.5 -48.5t-64 -31.5t-74 -11q-50 0 -94.5 19.5t-77.5 52.5t-52.5 77t-19.5 94v217zM262 849q16 26 46 26q23 0 38 -16t15 -37q0 -7 -1 -14.5
t-6 -14.5v1q-9 -16 -19 -32.5t-19 -33.5q-16 -26 -45 -26q-23 0 -39 15.5t-16 37.5q0 14 8 28z" />
    <glyph glyph-name="Lacute" unicode="&#x139;" horiz-adv-x="525" 
d="M35 609q0 23 16 39t39 16q22 0 38 -16t16 -39v-500h324q23 0 38.5 -15.5t15.5 -38.5t-15.5 -39t-38.5 -16h-378q-23 0 -39 16t-16 39v554zM88 832q16 26 46 26q23 0 38 -16t15 -37q0 -7 -1 -14.5t-6 -14.5v1q-9 -16 -19 -32.5t-19 -33.5q-16 -26 -45 -26q-23 0 -39 15.5
t-16 37.5q0 14 8 28z" />
    <glyph glyph-name="Eogonek" unicode="&#x118;" horiz-adv-x="555" 
d="M35 605q0 23 16 39t39 16h378q23 0 38.5 -16t15.5 -39q0 -22 -15.5 -38t-38.5 -16h-324v-176h200q23 0 38.5 -15.5t15.5 -38.5t-15.5 -39t-38.5 -16h-200v-157h324q23 0 38.5 -15.5t15.5 -38.5t-15.5 -39t-38.5 -16h-378q-23 0 -39 16t-16 39v550zM233 -13q0 8 5 13t13 5
h71q8 0 13 -5t5 -13v-16q0 -5 2 -10t5 -12q6 -14 11.5 -28t5.5 -29q0 -14 -5.5 -27t-20 -22.5t-39.5 -15t-63 -5.5q-22 0 -37.5 15.5t-15.5 37.5q0 15 5.5 24.5t14 15t18.5 8t20 4.5q1 1 5 1q-1 1 -1 2q-5 8 -8.5 18t-3.5 23v16z" />
    <glyph glyph-name="Ecaron" unicode="&#x11a;" horiz-adv-x="555" 
d="M35 605q0 23 16 39t39 16h378q23 0 38.5 -16t15.5 -39q0 -22 -15.5 -38t-38.5 -16h-324v-176h200q23 0 38.5 -15.5t15.5 -38.5t-15.5 -39t-38.5 -16h-200v-157h324q23 0 38.5 -15.5t15.5 -38.5t-15.5 -39t-38.5 -16h-378q-23 0 -39 16t-16 39v550zM185 727q-23 17 -23 43
q0 23 16 38.5t39 15.5q15 0 31 -10l27 -21q8 6 15.5 10.5t15.5 10.5q13 10 31 10q20 0 37.5 -15.5t17.5 -38.5q0 -26 -23 -43l-61 -45q-14 -10 -32 -10q-8 0 -14.5 2.5t-14.5 6.5z" />
    <glyph glyph-name="Ncaron" unicode="&#x147;" horiz-adv-x="550" 
d="M32 421q0 50 19 94t52 77t77.5 52.5t94.5 19.5t94.5 -19.5t77.5 -52.5t52.5 -77t19.5 -94v-370q0 -23 -15.5 -39t-38.5 -16q-22 0 -38.5 16t-16.5 39v370q0 27 -10.5 51.5t-29 42.5t-43 28.5t-52.5 10.5t-52.5 -10.5t-42.5 -28.5t-28.5 -42.5t-10.5 -51.5v-370
q0 -23 -15.5 -39t-38.5 -16t-39 16t-16 39v370zM183 736q-23 17 -23 43q0 23 16 38.5t39 15.5q15 0 31 -10l27 -21q8 6 15.5 10.5t15.5 10.5q13 10 31 10q20 0 37.5 -15.5t17.5 -38.5q0 -26 -23 -43l-61 -45q-14 -10 -32 -10q-8 0 -14.5 2.5t-14.5 6.5z" />
    <glyph glyph-name="Nacute" unicode="&#x143;" horiz-adv-x="550" 
d="M32 421q0 50 19 94t52 77t77.5 52.5t94.5 19.5t94.5 -19.5t77.5 -52.5t52.5 -77t19.5 -94v-370q0 -23 -15.5 -39t-38.5 -16q-22 0 -38.5 16t-16.5 39v370q0 27 -10.5 51.5t-29 42.5t-43 28.5t-52.5 10.5t-52.5 -10.5t-42.5 -28.5t-28.5 -42.5t-10.5 -51.5v-370
q0 -23 -15.5 -39t-38.5 -16t-39 16t-16 39v370zM270 829q16 26 46 26q23 0 38 -16t15 -37q0 -7 -1 -14.5t-6 -14.5v1q-9 -16 -19 -32.5t-19 -33.5q-16 -26 -45 -26q-23 0 -39 15.5t-16 37.5q0 14 8 28z" />
    <glyph glyph-name="Dcaron" unicode="&#x10e;" horiz-adv-x="550" 
d="M35 605q0 23 16 39t39 16h188q51 0 95.5 -19t77.5 -51.5t52 -76t19 -93.5v-180q0 -50 -19 -93.5t-52 -76t-77.5 -51.5t-94.5 -19h-189q-23 0 -39 16t-16 39v550zM144 551v-442h135q28 0 52.5 10.5t42.5 28t28.5 41.5t10.5 51v180q0 27 -10.5 51t-28.5 41.5t-43 28
t-53 10.5h-134zM167 734q-23 17 -23 43q0 23 16 38.5t39 15.5q15 0 31 -10l27 -21q8 6 15.5 10.5t15.5 10.5q13 10 31 10q20 0 37.5 -15.5t17.5 -38.5q0 -26 -23 -43l-61 -45q-14 -10 -32 -10q-8 0 -14.5 2.5t-14.5 6.5z" />
    <glyph glyph-name="Ohungarumlaut" unicode="&#x150;" horiz-adv-x="544" 
d="M28 438q0 50 19.5 94.5t52.5 77.5t77.5 52t94.5 19t94.5 -19t77.5 -52t52.5 -77.5t19.5 -94.5v-216q0 -50 -19.5 -94t-52.5 -77t-77.5 -52.5t-94.5 -19.5t-94.5 19.5t-77.5 52.5t-52.5 77t-19.5 94v216zM138 222q0 -27 10.5 -51.5t29 -42.5t43 -28.5t51.5 -10.5
q28 0 52.5 10.5t42.5 28.5t28.5 42.5t10.5 51.5v216q0 27 -10.5 51.5t-29 42.5t-43 28.5t-51.5 10.5q-28 0 -52.5 -10.5t-42.5 -28.5t-28.5 -42.5t-10.5 -51.5v-216zM197 840q16 26 45 26q24 0 39 -16t15 -37q0 -7 -1 -14.5t-6 -14.5v1q-9 -16 -19 -32.5t-19 -33.5
q-16 -26 -46 -26q-23 0 -38.5 15.5t-15.5 37.5q0 14 8 28zM342 840q16 26 45 26q24 0 39 -16t15 -37q0 -7 -1.5 -14.5t-6.5 -14.5v1q-9 -16 -19 -32.5t-19 -33.5q-16 -26 -45 -26q-23 0 -39 15.5t-16 37.5q0 14 9 28z" />
    <glyph glyph-name="Rcaron" unicode="&#x158;" horiz-adv-x="558" 
d="M35 605q0 23 16 39t39 16h189q50 0 94.5 -19t77.5 -51.5t52 -76t19 -93.5q0 -67 -30 -120.5t-84 -84.5q26 -32 54.5 -65t54.5 -63q13 -16 13 -36q0 -23 -16 -39.5t-39 -16.5t-41 18l-128 153v-1q-6 6 -12.5 10t-13.5 4h-136v-128q0 -23 -16 -39t-38 -16q-23 0 -39 16
t-16 39v554zM144 551v-262h135q27 0 51.5 10t43 28t29 42t10.5 51t-10.5 51t-28.5 41.5t-42.5 28t-52.5 10.5h-135zM150 736q-23 17 -23 43q0 23 16 38.5t39 15.5q15 0 31 -10l27 -21q8 6 15.5 10.5t15.5 10.5q13 10 31 10q20 0 37.5 -15.5t17.5 -38.5q0 -26 -23 -43
l-61 -45q-14 -10 -32 -10q-8 0 -14.5 2.5t-14.5 6.5z" />
    <glyph glyph-name="ohungarumlaut" unicode="&#x151;" horiz-adv-x="430" 
d="M29 315q0 38 14.5 71.5t40 59t59 40t72.5 14.5q38 0 72 -14.5t59.5 -40t40 -59t14.5 -71.5v-134q0 -38 -14.5 -71.5t-40 -59t-59 -40t-72.5 -14.5q-38 0 -72 14.5t-59.5 40t-40 59t-14.5 71.5v134zM137 181q0 -32 23 -54.5t55 -22.5q34 0 56.5 22.5t22.5 54.5v134
q0 16 -6.5 30t-17 24.5t-25 16.5t-30.5 6q-33 0 -55.5 -22.5t-22.5 -54.5v-134zM138 667q16 26 45 26q24 0 39 -16t15 -37q0 -7 -1 -14.5t-6 -14.5v1q-9 -16 -19 -32.5t-19 -33.5q-16 -26 -46 -26q-23 0 -38.5 15.5t-15.5 37.5q0 14 8 28zM283 667q16 26 45 26q24 0 39 -16
t15 -37q0 -7 -1.5 -14.5t-6.5 -14.5v1q-9 -16 -19 -32.5t-19 -33.5q-16 -26 -45 -26q-23 0 -39 15.5t-16 37.5q0 14 9 28z" />
    <glyph glyph-name="ncaron" unicode="&#x148;" 
d="M32 315q0 38 14.5 71.5t40 59t59 40t72.5 14.5q38 0 72 -14.5t59.5 -40t40 -59t14.5 -71.5v-265q0 -23 -16 -38.5t-38 -15.5t-37.5 15.5t-15.5 38.5v265q0 16 -6.5 30t-17 24.5t-25 16.5t-30.5 6q-33 0 -56 -22.5t-23 -54.5v-265q0 -23 -16 -38.5t-37 -15.5
q-23 0 -38.5 15.5t-15.5 38.5v265zM126 564q-23 17 -23 43q0 23 16 38.5t39 15.5q15 0 31 -10l27 -21q8 6 15.5 10.5t15.5 10.5q13 10 31 10q20 0 37.5 -15.5t17.5 -38.5q0 -26 -23 -43l-61 -45q-14 -10 -32 -10q-8 0 -14.5 2.5t-14.5 6.5z" />
    <glyph glyph-name="nacute" unicode="&#x144;" 
d="M32 315q0 38 14.5 71.5t40 59t59 40t72.5 14.5q38 0 72 -14.5t59.5 -40t40 -59t14.5 -71.5v-265q0 -23 -16 -38.5t-38 -15.5t-37.5 15.5t-15.5 38.5v265q0 16 -6.5 30t-17 24.5t-25 16.5t-30.5 6q-33 0 -56 -22.5t-23 -54.5v-265q0 -23 -16 -38.5t-37 -15.5
q-23 0 -38.5 15.5t-15.5 38.5v265zM210 662q16 26 46 26q23 0 38 -16t15 -37q0 -7 -1 -14.5t-6 -14.5v1q-9 -16 -19 -32.5t-19 -33.5q-16 -26 -45 -26q-23 0 -39 15.5t-16 37.5q0 14 8 28z" />
    <glyph glyph-name="dcroat" unicode="&#x111;" horiz-adv-x="434" 
d="M293 602q0 23 16 38.5t38 15.5t38 -15.5t16 -38.5v-421q0 -38 -14.5 -71.5t-40 -59t-59.5 -40t-72 -14.5q-39 0 -72.5 14.5t-59 40t-40 59t-14.5 71.5v134q0 38 14.5 71.5t40 59t59.5 40t72 14.5q21 0 40.5 -5.5t37.5 -13.5v121zM136 181q0 -32 22.5 -54.5t56.5 -22.5
q32 0 55 22.5t23 54.5v134q0 32 -22.5 54.5t-55.5 22.5q-16 0 -30.5 -6t-25 -16.5t-17 -24.5t-6.5 -30v-134zM246.143 514.89q-16.4082 0 -27.9688 15.3555q-11.5605 15.3545 -11.5605 38.1396q0 20.8047 11.5605 36.6553t27.9688 15.8506h190.192
q17.1543 0 28.7148 -15.3555t11.5605 -37.1504q0 -21.7939 -11.5605 -37.6445t-28.7148 -15.8506h-190.192z" />
    <glyph glyph-name="dcaron" unicode="&#x10f;" horiz-adv-x="627" 
d="M293 602q0 23 16 38.5t38 15.5t38 -15.5t16 -38.5v-421q0 -38 -14.5 -71.5t-40 -59t-59.5 -40t-72 -14.5q-39 0 -72.5 14.5t-59 40t-40 59t-14.5 71.5v134q0 38 14.5 71.5t40 59t59.5 40t72 14.5q21 0 40.5 -5.5t37.5 -13.5v121zM136 181q0 -32 22.5 -54.5t56.5 -22.5
q32 0 55 22.5t23 54.5v134q0 32 -22.5 54.5t-55.5 22.5q-16 0 -30.5 -6t-25 -16.5t-17 -24.5t-6.5 -30v-134zM489 605q0 23 16 38.5t38 15.5t38 -15.5t16 -38.5v-73q0 -20 -16.5 -37t-36.5 -17h-37q-23 0 -38.5 16t-15.5 38q0 18 9.5 32t26.5 19v22z" />
    <glyph glyph-name="ecaron" unicode="&#x11b;" horiz-adv-x="430" 
d="M29 315q0 38 14.5 71.5t40 59t59 40t72.5 14.5q38 0 72 -14.5t59.5 -40t40 -59t14.5 -71.5v-67q0 -23 -15.5 -38.5t-37.5 -15.5h-211v-13q0 -32 23 -54.5t55 -22.5q12 0 27.5 3t29.5 20q6 7 15 14.5t19.5 11.5t22.5 3.5t24 -9.5q16 -11 21.5 -31.5t-10.5 -43.5
q-22 -29 -57 -52.5t-92 -23.5q-38 0 -72 14.5t-59.5 40t-40 59t-14.5 71.5v134zM137 302h157v13q0 16 -6.5 30t-17 24.5t-25 16.5t-30.5 6q-33 0 -55.5 -22.5t-22.5 -54.5v-13zM123 564q-23 17 -23 43q0 23 16 38.5t39 15.5q15 0 31 -10l27 -21q8 6 15.5 10.5t15.5 10.5
q13 10 31 10q20 0 37.5 -15.5t17.5 -38.5q0 -26 -23 -43l-61 -45q-14 -10 -32 -10q-8 0 -14.5 2.5t-14.5 6.5z" />
    <glyph glyph-name="eogonek" unicode="&#x119;" horiz-adv-x="430" 
d="M29 315q0 38 14.5 71.5t40 59t59 40t72.5 14.5q38 0 72 -14.5t59.5 -40t40 -59t14.5 -71.5v-67q0 -23 -15.5 -38.5t-37.5 -15.5h-211v-13q0 -32 23 -54.5t55 -22.5q12 0 27.5 3t29.5 20q6 7 15 14.5t19.5 11.5t22.5 3.5t24 -9.5q16 -11 21.5 -31.5t-10.5 -43.5
q-22 -29 -57 -52.5t-92 -23.5q-38 0 -72 14.5t-59.5 40t-40 59t-14.5 71.5v134zM137 302h157v13q0 16 -6.5 30t-17 24.5t-25 16.5t-30.5 6q-33 0 -55.5 -22.5t-22.5 -54.5v-13zM163 13q0 8 5 13t13 5h71q8 0 13 -5t5 -13v-16q0 -5 2 -10t5 -12q6 -14 11.5 -28t5.5 -29
q0 -14 -5.5 -27t-20 -22.5t-39.5 -15t-63 -5.5q-22 0 -37.5 15.5t-15.5 37.5q0 15 5.5 24.5t14 15t18.5 8t20 4.5q1 1 5 1q-1 1 -1 2q-5 8 -8.5 18t-3.5 23v16z" />
    <glyph glyph-name="ccaron" unicode="&#x10d;" horiz-adv-x="415" 
d="M29 315q0 39 15 73t41 58.5t60.5 39t73.5 14.5q7 0 28 -3t46.5 -14.5t51 -34.5t42.5 -64q2 -4 3 -9t1 -10q0 -23 -15.5 -38.5t-38.5 -15.5q-16 0 -29.5 9t-19.5 24q-10 22 -30 35t-43 13q-33 0 -56 -22.5t-23 -54.5v-134q0 -16 6.5 -30t17 -24.5t25 -16.5t30.5 -6
q23 0 43 12.5t30 35.5q6 14 19 23.5t30 9.5q23 0 38.5 -16t15.5 -38q0 -8 -5 -20q-20 -45 -49 -68.5t-56 -34t-46 -11.5t-20 -1q-38 0 -72 14.5t-59.5 40t-40 59t-14.5 71.5v134zM115 564q-23 17 -23 43q0 23 16 38.5t39 15.5q15 0 31 -10l27 -21q8 6 15.5 10.5t15.5 10.5
q13 10 31 10q20 0 37.5 -15.5t17.5 -38.5q0 -26 -23 -43l-61 -45q-14 -10 -32 -10q-8 0 -14.5 2.5t-14.5 6.5z" />
    <glyph glyph-name="cacute" unicode="&#x107;" horiz-adv-x="415" 
d="M29 315q0 39 15 73t41 58.5t60.5 39t73.5 14.5q7 0 28 -3t46.5 -14.5t51 -34.5t42.5 -64q2 -4 3 -9t1 -10q0 -23 -15.5 -38.5t-38.5 -15.5q-16 0 -29.5 9t-19.5 24q-10 22 -30 35t-43 13q-33 0 -56 -22.5t-23 -54.5v-134q0 -16 6.5 -30t17 -24.5t25 -16.5t30.5 -6
q23 0 43 12.5t30 35.5q6 14 19 23.5t30 9.5q23 0 38.5 -16t15.5 -38q0 -8 -5 -20q-20 -45 -49 -68.5t-56 -34t-46 -11.5t-20 -1q-38 0 -72 14.5t-59.5 40t-40 59t-14.5 71.5v134zM198 655q16 26 46 26q23 0 38 -16t15 -37q0 -7 -1 -14.5t-6 -14.5v1q-9 -16 -19 -32.5
t-19 -33.5q-16 -26 -45 -26q-23 0 -39 15.5t-16 37.5q0 14 8 28z" />
    <glyph glyph-name="abreve" unicode="&#x103;" horiz-adv-x="432" 
d="M29 315q0 38 14.5 71.5t40 59t59 40t72.5 14.5q38 0 72 -14.5t59.5 -40t40 -59t14.5 -71.5v-261q0 -23 -16 -38.5t-37 -15.5q-11 0 -22.5 6t-19.5 13q-43 -23 -91 -23q-38 0 -72 14.5t-59.5 40t-40 59t-14.5 71.5v134zM137 181q0 -32 23 -54.5t55 -22.5t54.5 21t24.5 52
v138q0 16 -6.5 30t-17 24.5t-25 16.5t-30.5 6q-33 0 -55.5 -22.5t-22.5 -54.5v-134zM215 617q8 0 18.5 5.5t18.5 11.5q10 7 19 17q13 10 27.5 6.5t25 -15.5t14 -28t-4.5 -30q-2 -3 -11.5 -15t-24.5 -25t-35 -23.5t-43 -10.5h-6q-23 0 -43 10.5t-35 23.5t-24.5 25t-11.5 15
q-8 14 -4.5 30t13.5 28t24.5 15.5t28.5 -6.5q9 -10 19 -17q8 -6 17.5 -11.5t17.5 -5.5z" />
    <glyph glyph-name="racute" unicode="&#x155;" horiz-adv-x="348" 
d="M33 442q0 23 15.5 38.5t37.5 15.5q25 0 42 -20q43 24 94 24l19 -2t41.5 -9t41.5 -22t19 -40q0 -24 -15.5 -39t-38.5 -15q-17 0 -32 10q-9 5 -18 7t-20 2q-33 0 -55 -21.5t-24 -52.5v-268q0 -23 -15.5 -38.5t-38.5 -15.5q-21 0 -37 15.5t-16 38.5v392zM174 663
q16 26 46 26q23 0 38 -16t15 -37q0 -7 -1 -14.5t-6 -14.5v1q-9 -16 -19 -32.5t-19 -33.5q-16 -26 -45 -26q-23 0 -39 15.5t-16 37.5q0 14 8 28z" />
    <glyph glyph-name="Uhungarumlaut" unicode="&#x170;" horiz-adv-x="551" 
d="M32 609q0 23 16 39t39 16q22 0 38 -16t16 -39v-386q0 -27 11 -51.5t29.5 -42.5t43 -28.5t51.5 -10.5q28 0 52.5 10.5t42.5 28.5t28.5 42.5t10.5 51.5v386q0 23 16 39t39 16q22 0 38 -16t16 -39v-386q0 -50 -19 -94t-52 -77t-77.5 -52.5t-94.5 -19.5t-94.5 19.5
t-77.5 52.5t-52.5 77t-19.5 94v386zM190 808q16 26 45 26q24 0 39 -16t15 -37q0 -7 -1 -14.5t-6 -14.5v1q-9 -16 -19 -32.5t-19 -33.5q-16 -26 -46 -26q-23 0 -38.5 15.5t-15.5 37.5q0 14 8 28zM335 808q16 26 45 26q24 0 39 -16t15 -37q0 -7 -1.5 -14.5t-6.5 -14.5v1
q-9 -16 -19 -32.5t-19 -33.5q-16 -26 -45 -26q-23 0 -39 15.5t-16 37.5q0 14 9 28z" />
    <glyph glyph-name="Uring" unicode="&#x16e;" horiz-adv-x="551" 
d="M32 609q0 23 16 39t39 16q22 0 38 -16t16 -39v-386q0 -27 11 -51.5t29.5 -42.5t43 -28.5t51.5 -10.5q28 0 52.5 10.5t42.5 28.5t28.5 42.5t10.5 51.5v386q0 23 16 39t39 16q22 0 38 -16t16 -39v-386q0 -50 -19 -94t-52 -77t-77.5 -52.5t-94.5 -19.5t-94.5 19.5
t-77.5 52.5t-52.5 77t-19.5 94v386zM275 876q21 0 39 -8t32 -21.5t22 -32t8 -39.5q0 -20 -8 -38t-22 -31.5t-32 -21.5t-39 -8t-39 8t-31.5 21.5t-21.5 31.5t-8 38q0 21 8 39.5t21.5 32t31.5 21.5t39 8zM261 775q0 -13 14 -13q5 0 9.5 4t4.5 9q0 6 -4.5 10t-9.5 4
q-14 0 -14 -14z" />
    <glyph glyph-name="uring" unicode="&#x16f;" 
d="M32 446q0 23 15.5 38.5t38.5 15.5q21 0 37 -15.5t16 -38.5v-265q0 -32 23 -54.5t56 -22.5q16 0 30.5 6t25 16.5t17 24.5t6.5 30v265q0 23 15.5 38.5t37.5 15.5t38 -15.5t16 -38.5v-265q0 -38 -14.5 -71.5t-40 -59t-59.5 -40t-72 -14.5q-39 0 -72.5 14.5t-59 40t-40 59
t-14.5 71.5v265zM217 703q21 0 39 -8t32 -21.5t22 -32t8 -39.5q0 -20 -8 -38t-22 -31.5t-32 -21.5t-39 -8t-39 8t-31.5 21.5t-21.5 31.5t-8 38q0 21 8 39.5t21.5 32t31.5 21.5t39 8zM203 602q0 -13 14 -13q5 0 9.5 4t4.5 9q0 6 -4.5 10t-9.5 4q-14 0 -14 -14z" />
    <glyph glyph-name="rcaron" unicode="&#x159;" horiz-adv-x="348" 
d="M33 442q0 23 15.5 38.5t37.5 15.5q25 0 42 -20q43 24 94 24l19 -2t41.5 -9t41.5 -22t19 -40q0 -24 -15.5 -39t-38.5 -15q-17 0 -32 10q-9 5 -18 7t-20 2q-33 0 -55 -21.5t-24 -52.5v-268q0 -23 -15.5 -38.5t-38.5 -15.5q-21 0 -37 15.5t-16 38.5v392zM82 564
q-23 17 -23 43q0 23 16 38.5t39 15.5q15 0 31 -10l27 -21q8 6 15.5 10.5t15.5 10.5q13 10 31 10q20 0 37.5 -15.5t17.5 -38.5q0 -26 -23 -43l-61 -45q-14 -10 -32 -10q-8 0 -14.5 2.5t-14.5 6.5z" />
    <glyph glyph-name="uhungarumlaut" unicode="&#x171;" 
d="M32 446q0 23 15.5 38.5t38.5 15.5q21 0 37 -15.5t16 -38.5v-265q0 -32 23 -54.5t56 -22.5q16 0 30.5 6t25 16.5t17 24.5t6.5 30v265q0 23 15.5 38.5t37.5 15.5t38 -15.5t16 -38.5v-265q0 -38 -14.5 -71.5t-40 -59t-59.5 -40t-72 -14.5q-39 0 -72.5 14.5t-59 40t-40 59
t-14.5 71.5v265zM138 658q16 26 45 26q24 0 39 -16t15 -37q0 -7 -1 -14.5t-6 -14.5v1q-9 -16 -19 -32.5t-19 -33.5q-16 -26 -46 -26q-23 0 -38.5 15.5t-15.5 37.5q0 14 8 28zM283 658q16 26 45 26q24 0 39 -16t15 -37q0 -7 -1.5 -14.5t-6.5 -14.5v1q-9 -16 -19 -32.5
t-19 -33.5q-16 -26 -45 -26q-23 0 -39 15.5t-16 37.5q0 14 9 28z" />
    <glyph glyph-name="ebreve" unicode="&#x115;" horiz-adv-x="430" 
d="M29 315q0 38 14.5 71.5t40 59t59 40t72.5 14.5q38 0 72 -14.5t59.5 -40t40 -59t14.5 -71.5v-67q0 -23 -15.5 -38.5t-37.5 -15.5h-211v-13q0 -32 23 -54.5t55 -22.5q12 0 27.5 3t29.5 20q6 7 15 14.5t19.5 11.5t22.5 3.5t24 -9.5q16 -11 21.5 -31.5t-10.5 -43.5
q-22 -29 -57 -52.5t-92 -23.5q-38 0 -72 14.5t-59.5 40t-40 59t-14.5 71.5v134zM137 302h157v13q0 16 -6.5 30t-17 24.5t-25 16.5t-30.5 6q-33 0 -55.5 -22.5t-22.5 -54.5v-13zM214 617q8 0 18.5 5.5t18.5 11.5q10 7 19 17q13 10 27.5 6.5t25 -15.5t14 -28t-4.5 -30
q-2 -3 -11.5 -15t-24.5 -25t-35 -23.5t-43 -10.5h-6q-23 0 -43 10.5t-35 23.5t-24.5 25t-11.5 15q-8 14 -4.5 30t13.5 28t24.5 15.5t28.5 -6.5q9 -10 19 -17q8 -6 17.5 -11.5t17.5 -5.5z" />
    <glyph glyph-name="ibreve" unicode="&#x12d;" horiz-adv-x="173" 
d="M33 446q0 23 15.5 38.5t37.5 15.5t38 -15.5t16 -38.5v-396q0 -23 -15.5 -38.5t-38.5 -15.5q-21 0 -37 15.5t-16 38.5v396zM87 617q8 0 18.5 5.5t18.5 11.5q10 7 19 17q13 10 27.5 6.5t25 -15.5t14 -28t-4.5 -30q-2 -3 -11.5 -15t-24.5 -25t-35 -23.5t-43 -10.5h-6
q-23 0 -43 10.5t-35 23.5t-24.5 25t-11.5 15q-8 14 -4.5 30t13.5 28t24.5 15.5t28.5 -6.5q9 -10 19 -17q8 -6 17.5 -11.5t17.5 -5.5z" />
    <glyph glyph-name="macron" unicode="&#xaf;" horiz-adv-x="362" 
d="M69 535q-22 0 -37.5 15.5t-15.5 38.5q0 21 15.5 37t37.5 16h178q23 0 38.5 -15.5t15.5 -37.5t-15.5 -38t-38.5 -16h-178z" />
    <glyph glyph-name="imacron" unicode="&#x12b;" horiz-adv-x="173" 
d="M33 446q0 23 15.5 38.5t37.5 15.5t38 -15.5t16 -38.5v-396q0 -23 -15.5 -38.5t-38.5 -15.5q-21 0 -37 15.5t-16 38.5v396zM-2 535q-22 0 -37.5 15.5t-15.5 38.5q0 21 15.5 37t37.5 16h178q23 0 38.5 -15.5t15.5 -37.5t-15.5 -38t-38.5 -16h-178z" />
    <glyph glyph-name="itilde" unicode="&#x129;" horiz-adv-x="173" 
d="M33 446q0 23 15.5 38.5t37.5 15.5t38 -15.5t16 -38.5v-396q0 -23 -15.5 -38.5t-38.5 -15.5q-21 0 -37 15.5t-16 38.5v396zM-53 583q0 19 11 32t26 20.5t31.5 10.5t27.5 3q7 0 19.5 -3t20.5 -6q18 -7 31 -6.5t23.5 4t19 7.5t17.5 4q22 0 38 -15.5t16 -38.5
q0 -19 -12 -31.5t-28.5 -20t-34.5 -10.5t-30 -3q-19 0 -36 5t-30 5q-17 0 -29.5 -5t-25.5 -5q-21 0 -38 15.5t-17 37.5z" />
    <glyph glyph-name="omacron" unicode="&#x14d;" horiz-adv-x="430" 
d="M29 315q0 38 14.5 71.5t40 59t59 40t72.5 14.5q38 0 72 -14.5t59.5 -40t40 -59t14.5 -71.5v-134q0 -38 -14.5 -71.5t-40 -59t-59 -40t-72.5 -14.5q-38 0 -72 14.5t-59.5 40t-40 59t-14.5 71.5v134zM137 181q0 -32 23 -54.5t55 -22.5q34 0 56.5 22.5t22.5 54.5v134
q0 16 -6.5 30t-17 24.5t-25 16.5t-30.5 6q-33 0 -55.5 -22.5t-22.5 -54.5v-134zM125 535q-22 0 -37.5 15.5t-15.5 38.5q0 21 15.5 37t37.5 16h178q23 0 38.5 -15.5t15.5 -37.5t-15.5 -38t-38.5 -16h-178z" />
    <glyph glyph-name="lacute" unicode="&#x13a;" horiz-adv-x="173" 
d="M33 602q0 23 15.5 38.5t37.5 15.5t38 -15.5t16 -38.5v-552q0 -23 -15.5 -38.5t-38.5 -15.5q-21 0 -37 15.5t-16 38.5v552zM75 829q16 26 46 26q23 0 38 -16t15 -37q0 -7 -1 -14.5t-6 -14.5v1q-9 -16 -19 -32.5t-19 -33.5q-16 -26 -45 -26q-23 0 -39 15.5t-16 37.5
q0 14 8 28z" />
    <glyph glyph-name="lcaron" unicode="&#x13e;" horiz-adv-x="366" 
d="M33 602q0 23 15.5 38.5t37.5 15.5t38 -15.5t16 -38.5v-552q0 -23 -15.5 -38.5t-38.5 -15.5q-21 0 -37 15.5t-16 38.5v552zM228 605q0 23 16 38.5t38 15.5t38 -15.5t16 -38.5v-73q0 -20 -16.5 -37t-36.5 -17h-37q-23 0 -38.5 16t-15.5 38q0 18 9.5 32t26.5 19v22z" />
    <glyph glyph-name="Omacron" unicode="&#x14c;" horiz-adv-x="544" 
d="M28 438q0 50 19.5 94.5t52.5 77.5t77.5 52t94.5 19t94.5 -19t77.5 -52t52.5 -77.5t19.5 -94.5v-216q0 -50 -19.5 -94t-52.5 -77t-77.5 -52.5t-94.5 -19.5t-94.5 19.5t-77.5 52.5t-52.5 77t-19.5 94v216zM138 222q0 -27 10.5 -51.5t29 -42.5t43 -28.5t51.5 -10.5
q28 0 52.5 10.5t42.5 28.5t28.5 42.5t10.5 51.5v216q0 27 -10.5 51.5t-29 42.5t-43 28.5t-51.5 10.5q-28 0 -52.5 -10.5t-42.5 -28.5t-28.5 -42.5t-10.5 -51.5v-216zM182 698q-22 0 -37.5 15.5t-15.5 38.5q0 21 15.5 37t37.5 16h178q23 0 38.5 -15.5t15.5 -37.5t-15.5 -38
t-38.5 -16h-178z" />
    <glyph glyph-name="Oslashacute" unicode="&#x1fe;" horiz-adv-x="544" 
d="M28 438q0 50 19.5 94.5t52.5 77.5t77.5 52t94.5 19t94.5 -19t77.5 -52t52.5 -77.5t19.5 -94.5v-216q0 -50 -19.5 -94t-52.5 -77t-77.5 -52.5t-94.5 -19.5t-94.5 19.5t-77.5 52.5t-52.5 77t-19.5 94v216zM138 222q0 -27 10.5 -51.5t29 -42.5t43 -28.5t51.5 -10.5
q28 0 52.5 10.5t42.5 28.5t28.5 42.5t10.5 51.5v216q0 27 -10.5 51.5t-29 42.5t-43 28.5t-51.5 10.5q-28 0 -52.5 -10.5t-42.5 -28.5t-28.5 -42.5t-10.5 -51.5v-216zM384 622q6 11 16.5 17t21.5 8q24 3 41 -11t20 -35q1 -8 -0.5 -17.5t-6.5 -17.5q-42 -73 -80.5 -140.5
t-76.5 -133.5t-76.5 -133t-80.5 -140q-6 -11 -16 -17t-21 -8q-25 -3 -42.5 12t-20.5 35q-2 19 8 35zM267 846q16 26 46 26q23 0 38 -16t15 -37q0 -7 -1 -14.5t-6 -14.5v1q-9 -16 -19 -32.5t-19 -33.5q-16 -26 -45 -26q-23 0 -39 15.5t-16 37.5q0 14 8 28z" />
    <glyph glyph-name="Imacron" unicode="&#x12a;" horiz-adv-x="180" 
d="M35 605q0 23 16 39t39 16q22 0 38.5 -16t16.5 -39v-554q0 -23 -16 -39t-39 -16q-22 0 -38.5 16t-16.5 39v554zM2 698q-22 0 -37.5 15.5t-15.5 38.5q0 21 15.5 37t37.5 16h178q23 0 38.5 -15.5t15.5 -37.5t-15.5 -38t-38.5 -16h-178z" />
    <glyph glyph-name="Amacron" unicode="&#x100;" horiz-adv-x="608" 
d="M250 631q16 33 50 33q17 0 30.5 -10t19.5 -23l238 -560q5 -12 5 -21q0 -19 -14.5 -36.5t-39.5 -17.5q-37 0 -50 33l-62 148h-253q-16 -37 -31.5 -74t-30.5 -74q-8 -17 -21 -25t-29 -8q-25 0 -39.5 17.5t-14.5 36.5q0 5 1 11t3 10zM300 472q-11 -24 -20.5 -46.5
t-19.5 -44.5t-20 -45t-21 -49h161zM214 682q-22 0 -37.5 15.5t-15.5 38.5q0 21 15.5 37t37.5 16h178q23 0 38.5 -15.5t15.5 -37.5t-15.5 -38t-38.5 -16h-178z" />
    <glyph glyph-name="Ccircumflex" unicode="&#x108;" horiz-adv-x="524" 
d="M28 439q0 50 19 94.5t52 77.5t77.5 52t95.5 19q37 0 71 -10.5t63 -30t51.5 -46t36.5 -58.5q4 -7 5.5 -15t1.5 -14q0 -20 -14 -37t-40 -17q-34 0 -50 33q-15 37 -48.5 61t-76.5 24q-28 0 -52.5 -10.5t-43 -28.5t-29 -42.5t-10.5 -51.5v-217q0 -27 11 -51.5t29.5 -42.5
t43 -28.5t51.5 -10.5q43 0 76.5 24.5t49.5 61.5q7 14 21.5 23t27.5 9q25 0 39.5 -17t14.5 -37q0 -12 -4 -21q-13 -34 -35.5 -62t-51.5 -48.5t-64 -31.5t-74 -11q-50 0 -94.5 19.5t-77.5 52.5t-52.5 77t-19.5 94v217zM234 840q13 9 27 9q18 0 32 -11l61 -44q11 -8 17 -20
t6 -23q0 -23 -17.5 -38.5t-38.5 -15.5q-8 0 -15.5 2t-14.5 8q-10 7 -15.5 10t-15.5 10q-8 -5 -13.5 -10t-13.5 -10q-16 -10 -31 -10q-23 0 -39 15.5t-16 38.5q0 11 6 23t17 20z" />
    <glyph glyph-name="Cdotaccent" unicode="&#x10a;" horiz-adv-x="524" 
d="M28 439q0 50 19 94.5t52 77.5t77.5 52t95.5 19q37 0 71 -10.5t63 -30t51.5 -46t36.5 -58.5q4 -7 5.5 -15t1.5 -14q0 -20 -14 -37t-40 -17q-34 0 -50 33q-15 37 -48.5 61t-76.5 24q-28 0 -52.5 -10.5t-43 -28.5t-29 -42.5t-10.5 -51.5v-217q0 -27 11 -51.5t29.5 -42.5
t43 -28.5t51.5 -10.5q43 0 76.5 24.5t49.5 61.5q7 14 21.5 23t27.5 9q25 0 39.5 -17t14.5 -37q0 -12 -4 -21q-13 -34 -35.5 -62t-51.5 -48.5t-64 -31.5t-74 -11q-50 0 -94.5 19.5t-77.5 52.5t-52.5 77t-19.5 94v217zM208 756q0 23 15.5 38.5t38.5 15.5q21 0 37 -15.5
t16 -38.5q0 -22 -15.5 -37.5t-37.5 -15.5t-38 15.5t-16 37.5z" />
    <glyph glyph-name="Ebreve" unicode="&#x114;" horiz-adv-x="555" 
d="M35 605q0 23 16 39t39 16h378q23 0 38.5 -16t15.5 -39q0 -22 -15.5 -38t-38.5 -16h-324v-176h200q23 0 38.5 -15.5t15.5 -38.5t-15.5 -39t-38.5 -16h-200v-157h324q23 0 38.5 -15.5t15.5 -38.5t-15.5 -39t-38.5 -16h-378q-23 0 -39 16t-16 39v550zM276 780q8 0 18.5 5.5
t18.5 11.5q10 7 19 17q13 10 27.5 6.5t25 -15.5t14 -28t-4.5 -30q-2 -3 -11.5 -15t-24.5 -25t-35 -23.5t-43 -10.5h-6q-23 0 -43 10.5t-35 23.5t-24.5 25t-11.5 15q-8 14 -4.5 30t13.5 28t24.5 15.5t28.5 -6.5q9 -10 19 -17q8 -6 17.5 -11.5t17.5 -5.5z" />
    <glyph glyph-name="Edotaccent" unicode="&#x116;" horiz-adv-x="555" 
d="M35 605q0 23 16 39t39 16h378q23 0 38.5 -16t15.5 -39q0 -22 -15.5 -38t-38.5 -16h-324v-176h200q23 0 38.5 -15.5t15.5 -38.5t-15.5 -39t-38.5 -16h-200v-157h324q23 0 38.5 -15.5t15.5 -38.5t-15.5 -39t-38.5 -16h-378q-23 0 -39 16t-16 39v550zM224 756
q0 23 15.5 38.5t38.5 15.5q21 0 37 -15.5t16 -38.5q0 -22 -15.5 -37.5t-37.5 -15.5t-38 15.5t-16 37.5z" />
    <glyph glyph-name="periodcentered" horiz-adv-x="833" 
 />
    <glyph glyph-name="Emacron" unicode="&#x112;" horiz-adv-x="555" 
d="M35 605q0 23 16 39t39 16h378q23 0 38.5 -16t15.5 -39q0 -22 -15.5 -38t-38.5 -16h-324v-176h200q23 0 38.5 -15.5t15.5 -38.5t-15.5 -39t-38.5 -16h-200v-157h324q23 0 38.5 -15.5t15.5 -38.5t-15.5 -39t-38.5 -16h-378q-23 0 -39 16t-16 39v550zM172 684
q-22 0 -37.5 15.5t-15.5 38.5q0 21 15.5 37t37.5 16h178q23 0 38.5 -15.5t15.5 -37.5t-15.5 -38t-38.5 -16h-178z" />
    <glyph glyph-name="Gbreve" unicode="&#x11e;" horiz-adv-x="544" 
d="M28 438q0 50 19.5 94.5t52.5 77.5t77.5 52t94.5 19q38 0 73 -11t64.5 -31t52 -48t36.5 -62q2 -5 2.5 -10.5t0.5 -11.5q0 -20 -14 -37t-40 -17q-14 0 -28 8t-21 24q-16 38 -49.5 62t-76.5 24q-28 0 -52.5 -10.5t-42.5 -28.5t-28.5 -42.5t-10.5 -51.5v-216
q0 -27 10.5 -51.5t29 -42.5t43 -28.5t51.5 -10.5q28 0 52.5 10.5t42.5 28.5t28.5 42.5t10.5 51.5v27h-54q-23 0 -38.5 16t-15.5 39q0 22 15.5 38t38.5 16h109q23 0 39 -15.5t16 -38.5v-82q0 -50 -19.5 -94t-52.5 -77t-77.5 -52.5t-94.5 -19.5t-94.5 19.5t-77.5 52.5
t-52.5 77t-19.5 94v216zM274 809q8 0 18.5 5.5t18.5 11.5q10 7 19 17q13 10 27.5 6.5t25 -15.5t14 -28t-4.5 -30q-2 -3 -11.5 -15t-24.5 -25t-35 -23.5t-43 -10.5h-6q-23 0 -43 10.5t-35 23.5t-24.5 25t-11.5 15q-8 14 -4.5 30t13.5 28t24.5 15.5t28.5 -6.5q9 -10 19 -17
q8 -6 17.5 -11.5t17.5 -5.5z" />
    <glyph glyph-name="Gcircumflex" unicode="&#x11c;" horiz-adv-x="544" 
d="M28 438q0 50 19.5 94.5t52.5 77.5t77.5 52t94.5 19q38 0 73 -11t64.5 -31t52 -48t36.5 -62q2 -5 2.5 -10.5t0.5 -11.5q0 -20 -14 -37t-40 -17q-14 0 -28 8t-21 24q-16 38 -49.5 62t-76.5 24q-28 0 -52.5 -10.5t-42.5 -28.5t-28.5 -42.5t-10.5 -51.5v-216
q0 -27 10.5 -51.5t29 -42.5t43 -28.5t51.5 -10.5q28 0 52.5 10.5t42.5 28.5t28.5 42.5t10.5 51.5v27h-54q-23 0 -38.5 16t-15.5 39q0 22 15.5 38t38.5 16h109q23 0 39 -15.5t16 -38.5v-82q0 -50 -19.5 -94t-52.5 -77t-77.5 -52.5t-94.5 -19.5t-94.5 19.5t-77.5 52.5
t-52.5 77t-19.5 94v216zM244 840q13 9 27 9q18 0 32 -11l61 -44q11 -8 17 -20t6 -23q0 -23 -17.5 -38.5t-38.5 -15.5q-8 0 -15.5 2t-14.5 8q-10 7 -15.5 10t-15.5 10q-8 -5 -13.5 -10t-13.5 -10q-16 -10 -31 -10q-23 0 -39 15.5t-16 38.5q0 11 6 23t17 20z" />
    <glyph glyph-name="Gdotaccent" unicode="&#x120;" horiz-adv-x="544" 
d="M28 438q0 50 19.5 94.5t52.5 77.5t77.5 52t94.5 19q38 0 73 -11t64.5 -31t52 -48t36.5 -62q2 -5 2.5 -10.5t0.5 -11.5q0 -20 -14 -37t-40 -17q-14 0 -28 8t-21 24q-16 38 -49.5 62t-76.5 24q-28 0 -52.5 -10.5t-42.5 -28.5t-28.5 -42.5t-10.5 -51.5v-216
q0 -27 10.5 -51.5t29 -42.5t43 -28.5t51.5 -10.5q28 0 52.5 10.5t42.5 28.5t28.5 42.5t10.5 51.5v27h-54q-23 0 -38.5 16t-15.5 39q0 22 15.5 38t38.5 16h109q23 0 39 -15.5t16 -38.5v-82q0 -50 -19.5 -94t-52.5 -77t-77.5 -52.5t-94.5 -19.5t-94.5 19.5t-77.5 52.5
t-52.5 77t-19.5 94v216zM218 756q0 23 15.5 38.5t38.5 15.5q21 0 37 -15.5t16 -38.5q0 -22 -15.5 -37.5t-37.5 -15.5t-38 15.5t-16 37.5z" />
    <glyph glyph-name="Hcircumflex" unicode="&#x124;" horiz-adv-x="557" 
d="M35 605q0 23 16 39t39 16t38.5 -16t15.5 -39v-230h269v230q0 23 16 39t39 16t38.5 -16t15.5 -39v-554q0 -23 -16 -39t-38 -16q-23 0 -39 16t-16 39v215h-269v-215q0 -23 -16 -39t-38 -16q-23 0 -39 16t-16 39v554zM250 805q13 9 27 9q18 0 32 -11l61 -44q11 -8 17 -20
t6 -23q0 -23 -17.5 -38.5t-38.5 -15.5q-8 0 -15.5 2t-14.5 8q-10 7 -15.5 10t-15.5 10q-8 -5 -13.5 -10t-13.5 -10q-16 -10 -31 -10q-23 0 -39 15.5t-16 38.5q0 11 6 23t17 20z" />
    <glyph glyph-name="Hbar" unicode="&#x126;" horiz-adv-x="557" 
d="M35 605q0 23 16 39t39 16t38.5 -16t15.5 -39v-230h269v230q0 23 16 39t39 16t38.5 -16t15.5 -39v-554q0 -23 -16 -39t-38 -16q-23 0 -39 16t-16 39v215h-269v-215q0 -23 -16 -39t-38 -16q-23 0 -39 16t-16 39v554zM129.21 475.992q-37.0527 0 -63.1572 15.7891
q-26.1055 15.79 -26.1055 39.2197q0 21.3916 26.1055 37.6904q26.1045 16.2988 63.1572 16.2988h299.788q38.7373 0 64.8418 -15.7891q26.1055 -15.79 26.1055 -38.2002q0 -22.4111 -26.1055 -38.71q-26.1045 -16.2988 -64.8418 -16.2988h-299.788z" />
    <glyph glyph-name="Ibreve" unicode="&#x12c;" horiz-adv-x="180" 
d="M35 605q0 23 16 39t39 16q22 0 38.5 -16t16.5 -39v-554q0 -23 -16 -39t-39 -16q-22 0 -38.5 16t-16.5 39v554zM90 780q8 0 18.5 5.5t18.5 11.5q10 7 19 17q13 10 27.5 6.5t25 -15.5t14 -28t-4.5 -30q-2 -3 -11.5 -15t-24.5 -25t-35 -23.5t-43 -10.5h-6q-23 0 -43 10.5
t-35 23.5t-24.5 25t-11.5 15q-8 14 -4.5 30t13.5 28t24.5 15.5t28.5 -6.5q9 -10 19 -17q8 -6 17.5 -11.5t17.5 -5.5z" />
    <glyph glyph-name="Idotaccent" unicode="&#x130;" horiz-adv-x="180" 
d="M35 605q0 23 16 39t39 16q22 0 38.5 -16t16.5 -39v-554q0 -23 -16 -39t-39 -16q-22 0 -38.5 16t-16.5 39v554zM36 756q0 23 15.5 38.5t38.5 15.5q21 0 37 -15.5t16 -38.5q0 -22 -15.5 -37.5t-37.5 -15.5t-38 15.5t-16 37.5z" />
    <glyph glyph-name="Iogonek" unicode="&#x12e;" horiz-adv-x="180" 
d="M35 605q0 23 16 39t39 16q22 0 38.5 -16t16.5 -39v-554q0 -23 -16 -39t-39 -16q-22 0 -38.5 16t-16.5 39v554zM38 14q0 8 5 13t13 5h71q8 0 13 -5t5 -13v-16q0 -5 2 -10t5 -12q6 -14 11.5 -28t5.5 -29q0 -14 -5.5 -27t-20 -22.5t-39.5 -15t-63 -5.5q-22 0 -37.5 15.5
t-15.5 37.5q0 15 5.5 24.5t14 15t18.5 8t20 4.5q1 1 5 1q-1 1 -1 2q-5 8 -8.5 18t-3.5 23v16z" />
    <glyph glyph-name="Itilde" unicode="&#x128;" horiz-adv-x="180" 
d="M35 605q0 23 16 39t39 16q22 0 38.5 -16t16.5 -39v-554q0 -23 -16 -39t-39 -16q-22 0 -38.5 16t-16.5 39v554zM-49 746q0 19 11 32t26 20.5t31.5 10.5t27.5 3q7 0 19.5 -3t20.5 -6q18 -7 31 -6.5t23.5 4t19 7.5t17.5 4q22 0 38 -15.5t16 -38.5q0 -19 -12 -31.5t-28.5 -20
t-34.5 -10.5t-30 -3q-19 0 -36 5t-30 5q-17 0 -29.5 -5t-25.5 -5q-21 0 -38 15.5t-17 37.5z" />
    <glyph glyph-name="Jcircumflex" unicode="&#x134;" horiz-adv-x="286" 
d="M62 89q32 0 55 22t25 54v440q0 23 16 39t39 16t38.5 -16t15.5 -39v-437q0 -39 -15 -73.5t-40.5 -60t-60 -40.5t-73.5 -15q-23 0 -39 16t-16 39t16 39t39 16zM174 824q13 9 27 9q18 0 32 -11l61 -44q11 -8 17 -20t6 -23q0 -23 -17.5 -38.5t-38.5 -15.5q-8 0 -15.5 2
t-14.5 8q-10 7 -15.5 10t-15.5 10q-8 -5 -13.5 -10t-13.5 -10q-16 -10 -31 -10q-23 0 -39 15.5t-16 38.5q0 11 6 23t17 20z" />
    <glyph glyph-name="commaaccent" unicode="&#xf6c3;" horiz-adv-x="265" 
d="M79 -94q0 22 15.5 37.5t37.5 15.5t38 -15.5t16 -37.5v-76q0 -23 -15.5 -38.5t-38.5 -15.5q-21 0 -37 15.5t-16 38.5v76z" />
    <glyph glyph-name="commaaccent.cap" horiz-adv-x="265" 
d="M79 217q0 22 15.5 37.5t37.5 15.5t38 -15.5t16 -37.5v-76q0 -23 -15.5 -38.5t-38.5 -15.5q-21 0 -37 15.5t-16 38.5v76z" />
    <glyph glyph-name="Kcommaaccent" unicode="&#x136;" horiz-adv-x="508" 
d="M35 609q0 23 16 39t39 16q22 0 38 -16t16 -39v-120q49 39 98 81.5t98 81.5q16 12 34 12q21 0 37.5 -15.5t16.5 -39.5q0 -12 -4.5 -23.5t-14.5 -19.5l-179 -147l238 -333q14 -17 14 -36q0 -21 -15.5 -37.5t-38.5 -16.5q-25 0 -43 19l-239 342l-2 -2v-304q0 -23 -15.5 -39
t-38.5 -16t-39 16t-16 39v558zM165 -94q0 22 15.5 37.5t37.5 15.5t38 -15.5t16 -37.5v-76q0 -23 -15.5 -38.5t-38.5 -15.5q-21 0 -37 15.5t-16 38.5v76z" />
    <glyph glyph-name="Gcommaaccent" unicode="&#x122;" horiz-adv-x="544" 
d="M28 438q0 50 19.5 94.5t52.5 77.5t77.5 52t94.5 19q38 0 73 -11t64.5 -31t52 -48t36.5 -62q2 -5 2.5 -10.5t0.5 -11.5q0 -20 -14 -37t-40 -17q-14 0 -28 8t-21 24q-16 38 -49.5 62t-76.5 24q-28 0 -52.5 -10.5t-42.5 -28.5t-28.5 -42.5t-10.5 -51.5v-216
q0 -27 10.5 -51.5t29 -42.5t43 -28.5t51.5 -10.5q28 0 52.5 10.5t42.5 28.5t28.5 42.5t10.5 51.5v27h-54q-23 0 -38.5 16t-15.5 39q0 22 15.5 38t38.5 16h109q23 0 39 -15.5t16 -38.5v-82q0 -50 -19.5 -94t-52.5 -77t-77.5 -52.5t-94.5 -19.5t-94.5 19.5t-77.5 52.5
t-52.5 77t-19.5 94v216zM218 -94q0 22 15.5 37.5t37.5 15.5t38 -15.5t16 -37.5v-76q0 -23 -15.5 -38.5t-38.5 -15.5q-21 0 -37 15.5t-16 38.5v76z" />
    <glyph glyph-name="Ldot" unicode="&#x13f;" horiz-adv-x="525" 
d="M35 609q0 23 16 39t39 16q22 0 38 -16t16 -39v-500h324q23 0 38.5 -15.5t15.5 -38.5t-15.5 -39t-38.5 -16h-378q-23 0 -39 16t-16 39v554zM209 267q0 22 15.5 37.5t38.5 15.5q21 0 37 -15.5t16 -37.5q0 -23 -15.5 -38.5t-37.5 -15.5t-38 15.5t-16 38.5z" />
    <glyph glyph-name="Ncommaaccent" unicode="&#x145;" horiz-adv-x="550" 
d="M32 421q0 50 19 94t52 77t77.5 52.5t94.5 19.5t94.5 -19.5t77.5 -52.5t52.5 -77t19.5 -94v-370q0 -23 -15.5 -39t-38.5 -16q-22 0 -38.5 16t-16.5 39v370q0 27 -10.5 51.5t-29 42.5t-43 28.5t-52.5 10.5t-52.5 -10.5t-42.5 -28.5t-28.5 -42.5t-10.5 -51.5v-370
q0 -23 -15.5 -39t-38.5 -16t-39 16t-16 39v370zM221 -94q0 22 15.5 37.5t37.5 15.5t38 -15.5t16 -37.5v-76q0 -23 -15.5 -38.5t-38.5 -15.5q-21 0 -37 15.5t-16 38.5v76z" />
    <glyph glyph-name="Obreve" unicode="&#x14e;" horiz-adv-x="544" 
d="M28 438q0 50 19.5 94.5t52.5 77.5t77.5 52t94.5 19t94.5 -19t77.5 -52t52.5 -77.5t19.5 -94.5v-216q0 -50 -19.5 -94t-52.5 -77t-77.5 -52.5t-94.5 -19.5t-94.5 19.5t-77.5 52.5t-52.5 77t-19.5 94v216zM138 222q0 -27 10.5 -51.5t29 -42.5t43 -28.5t51.5 -10.5
q28 0 52.5 10.5t42.5 28.5t28.5 42.5t10.5 51.5v216q0 27 -10.5 51.5t-29 42.5t-43 28.5t-51.5 10.5q-28 0 -52.5 -10.5t-42.5 -28.5t-28.5 -42.5t-10.5 -51.5v-216zM271 805q8 0 18.5 5.5t18.5 11.5q10 7 19 17q13 10 27.5 6.5t25 -15.5t14 -28t-4.5 -30q-2 -3 -11.5 -15
t-24.5 -25t-35 -23.5t-43 -10.5h-6q-23 0 -43 10.5t-35 23.5t-24.5 25t-11.5 15q-8 14 -4.5 30t13.5 28t24.5 15.5t28.5 -6.5q9 -10 19 -17q8 -6 17.5 -11.5t17.5 -5.5z" />
    <glyph glyph-name="Rcommaaccent" unicode="&#x156;" horiz-adv-x="558" 
d="M35 605q0 23 16 39t39 16h189q50 0 94.5 -19t77.5 -51.5t52 -76t19 -93.5q0 -67 -30 -120.5t-84 -84.5q26 -32 54.5 -65t54.5 -63q13 -16 13 -36q0 -23 -16 -39.5t-39 -16.5t-41 18l-128 153v-1q-6 6 -12.5 10t-13.5 4h-136v-128q0 -23 -16 -39t-38 -16q-23 0 -39 16
t-16 39v554zM144 551v-262h135q27 0 51.5 10t43 28t29 42t10.5 51t-10.5 51t-28.5 41.5t-42.5 28t-52.5 10.5h-135zM207 -80q0 22 15.5 37.5t37.5 15.5t38 -15.5t16 -37.5v-76q0 -23 -15.5 -38.5t-38.5 -15.5q-21 0 -37 15.5t-16 38.5v76z" />
    <glyph glyph-name="Scedilla" unicode="&#x15e;" horiz-adv-x="563" 
d="M143 173q15 -32 51.5 -56.5t87.5 -24.5q27 0 53 6.5t46 19.5t32.5 32.5t12.5 46.5t-12 46.5t-32 32t-46 19t-54 6.5q-51 0 -93.5 11t-74 33.5t-49 58t-17.5 85.5q0 45 16.5 81t47 61t74 38t96.5 13q1 0 24.5 -2t55.5 -12.5t66.5 -32.5t58.5 -63q3 -6 6 -15t3 -18
q0 -19 -15.5 -37t-41.5 -18q-13 0 -25 5.5t-20 14.5l1 -1q-11 13 -22 25t-24 21t-29.5 14.5t-38.5 5.5q-65 0 -93 -25t-28 -55q0 -21 9.5 -35.5t26 -23.5t39 -13t47.5 -4q52 0 99 -14t82.5 -41t56 -67.5t20.5 -93.5q0 -55 -21 -96t-56.5 -68t-83.5 -40.5t-102 -13.5
q-11 0 -41 3.5t-67.5 19t-75 47.5t-62.5 89q-7 13 -6 28.5t7.5 28t18.5 21t28 8.5q23 0 39.5 -14.5t24.5 -36.5zM241 19q0 8 5 13t13 5h71q8 0 13 -5t5 -13v-16q0 -5 2 -10t5 -12q6 -14 11.5 -28t5.5 -29q0 -14 -5.5 -27t-20 -22.5t-39.5 -15t-63 -5.5q-22 0 -37.5 15.5
t-15.5 37.5q0 15 5.5 24.5t14 15t18.5 8t20 4.5q1 1 5 1q-1 1 -1 2q-5 8 -8.5 18t-3.5 23v16z" />
    <glyph glyph-name="Scircumflex" unicode="&#x15c;" horiz-adv-x="563" 
d="M143 173q15 -32 51.5 -56.5t87.5 -24.5q27 0 53 6.5t46 19.5t32.5 32.5t12.5 46.5t-12 46.5t-32 32t-46 19t-54 6.5q-51 0 -93.5 11t-74 33.5t-49 58t-17.5 85.5q0 45 16.5 81t47 61t74 38t96.5 13q1 0 24.5 -2t55.5 -12.5t66.5 -32.5t58.5 -63q3 -6 6 -15t3 -18
q0 -19 -15.5 -37t-41.5 -18q-13 0 -25 5.5t-20 14.5l1 -1q-11 13 -22 25t-24 21t-29.5 14.5t-38.5 5.5q-65 0 -93 -25t-28 -55q0 -21 9.5 -35.5t26 -23.5t39 -13t47.5 -4q52 0 99 -14t82.5 -41t56 -67.5t20.5 -93.5q0 -55 -21 -96t-56.5 -68t-83.5 -40.5t-102 -13.5
q-11 0 -41 3.5t-67.5 19t-75 47.5t-62.5 89q-7 13 -6 28.5t7.5 28t18.5 21t28 8.5q23 0 39.5 -14.5t24.5 -36.5zM253 837q13 9 27 9q18 0 32 -11l61 -44q11 -8 17 -20t6 -23q0 -23 -17.5 -38.5t-38.5 -15.5q-8 0 -15.5 2t-14.5 8q-10 7 -15.5 10t-15.5 10q-8 -5 -13.5 -10
t-13.5 -10q-16 -10 -31 -10q-23 0 -39 15.5t-16 38.5q0 11 6 23t17 20z" />
    <glyph glyph-name="Tbar" unicode="&#x166;" horiz-adv-x="515" 
d="M68 551q-23 0 -38.5 15.5t-15.5 38.5t15.5 39t38.5 16h378q23 0 39 -16t16 -39q0 -22 -16 -38t-39 -16h-134v-500q0 -23 -16 -39t-39 -16q-22 0 -38.5 16t-16.5 39v500h-134zM168 268q-22 0 -37.5 15.5t-15.5 38.5q0 21 15.5 37t37.5 16h178q23 0 38.5 -15.5t15.5 -37.5
t-15.5 -38t-38.5 -16h-178z" />
    <glyph glyph-name="Umacron" unicode="&#x16a;" horiz-adv-x="551" 
d="M32 609q0 23 16 39t39 16q22 0 38 -16t16 -39v-386q0 -27 11 -51.5t29.5 -42.5t43 -28.5t51.5 -10.5q28 0 52.5 10.5t42.5 28.5t28.5 42.5t10.5 51.5v386q0 23 16 39t39 16q22 0 38 -16t16 -39v-386q0 -50 -19 -94t-52 -77t-77.5 -52.5t-94.5 -19.5t-94.5 19.5
t-77.5 52.5t-52.5 77t-19.5 94v386zM186 698q-22 0 -37.5 15.5t-15.5 38.5q0 21 15.5 37t37.5 16h178q23 0 38.5 -15.5t15.5 -37.5t-15.5 -38t-38.5 -16h-178z" />
    <glyph glyph-name="Ubreve" unicode="&#x16c;" horiz-adv-x="551" 
d="M32 609q0 23 16 39t39 16q22 0 38 -16t16 -39v-386q0 -27 11 -51.5t29.5 -42.5t43 -28.5t51.5 -10.5q28 0 52.5 10.5t42.5 28.5t28.5 42.5t10.5 51.5v386q0 23 16 39t39 16q22 0 38 -16t16 -39v-386q0 -50 -19 -94t-52 -77t-77.5 -52.5t-94.5 -19.5t-94.5 19.5
t-77.5 52.5t-52.5 77t-19.5 94v386zM274 780q8 0 18.5 5.5t18.5 11.5q10 7 19 17q13 10 27.5 6.5t25 -15.5t14 -28t-4.5 -30q-2 -3 -11.5 -15t-24.5 -25t-35 -23.5t-43 -10.5h-6q-23 0 -43 10.5t-35 23.5t-24.5 25t-11.5 15q-8 14 -4.5 30t13.5 28t24.5 15.5t28.5 -6.5
q9 -10 19 -17q8 -6 17.5 -11.5t17.5 -5.5z" />
    <glyph glyph-name="Uogonek" unicode="&#x172;" horiz-adv-x="551" 
d="M32 609q0 23 16 39t39 16q22 0 38 -16t16 -39v-386q0 -27 11 -51.5t29.5 -42.5t43 -28.5t51.5 -10.5q28 0 52.5 10.5t42.5 28.5t28.5 42.5t10.5 51.5v386q0 23 16 39t39 16q22 0 38 -16t16 -39v-386q0 -50 -19 -94t-52 -77t-77.5 -52.5t-94.5 -19.5t-94.5 19.5
t-77.5 52.5t-52.5 77t-19.5 94v386zM218 -28q0 8 5 13t13 5h71q8 0 13 -5t5 -13v-16q0 -5 2 -10t5 -12q6 -14 11.5 -28t5.5 -29q0 -14 -5.5 -27t-20 -22.5t-39.5 -15t-63 -5.5q-22 0 -37.5 15.5t-15.5 37.5q0 15 5.5 24.5t14 15t18.5 8t20 4.5q1 1 5 1q-1 1 -1 2
q-5 8 -8.5 18t-3.5 23v16z" />
    <glyph glyph-name="Utilde" unicode="&#x168;" horiz-adv-x="551" 
d="M32 609q0 23 16 39t39 16q22 0 38 -16t16 -39v-386q0 -27 11 -51.5t29.5 -42.5t43 -28.5t51.5 -10.5q28 0 52.5 10.5t42.5 28.5t28.5 42.5t10.5 51.5v386q0 23 16 39t39 16q22 0 38 -16t16 -39v-386q0 -50 -19 -94t-52 -77t-77.5 -52.5t-94.5 -19.5t-94.5 19.5
t-77.5 52.5t-52.5 77t-19.5 94v386zM135 746q0 19 11 32t26 20.5t31.5 10.5t27.5 3q7 0 19.5 -3t20.5 -6q18 -7 31 -6.5t23.5 4t19 7.5t17.5 4q22 0 38 -15.5t16 -38.5q0 -19 -12 -31.5t-28.5 -20t-34.5 -10.5t-30 -3q-19 0 -36 5t-30 5q-17 0 -29.5 -5t-25.5 -5
q-21 0 -38 15.5t-17 37.5z" />
    <glyph glyph-name="Wacute" unicode="&#x1e82;" horiz-adv-x="863" 
d="M32 609q0 23 16 39t38 16q23 0 39 -16t16 -39v-371q0 -27 9 -51.5t25.5 -42.5t39.5 -28.5t51 -10.5q27 0 47.5 10.5t34.5 28.5t21.5 42.5t7.5 51.5v371q0 23 15.5 39t38.5 16t39 -16t16 -39v-372q0 -27 7.5 -51t22 -42t35.5 -28.5t47 -10.5q27 0 50 10.5t39.5 28.5
t25.5 42.5t9 51.5v371q0 23 16 39t39 16t38.5 -16t15.5 -39v-371q0 -50 -17.5 -94t-48.5 -77t-73.5 -52.5t-93.5 -19.5q-54 0 -96 19.5t-71 51.5q-32 -32 -71.5 -51.5t-93.5 -19.5q-50 0 -93 19.5t-74.5 52.5t-49 77t-17.5 94v371zM430 830q16 26 46 26q23 0 38 -16t15 -37
q0 -7 -1 -14.5t-6 -14.5v1q-9 -16 -19 -32.5t-19 -33.5q-16 -26 -45 -26q-23 0 -39 15.5t-16 37.5q0 14 8 28z" />
    <glyph glyph-name="Wcircumflex" unicode="&#x174;" horiz-adv-x="863" 
d="M32 609q0 23 16 39t38 16q23 0 39 -16t16 -39v-371q0 -27 9 -51.5t25.5 -42.5t39.5 -28.5t51 -10.5q27 0 47.5 10.5t34.5 28.5t21.5 42.5t7.5 51.5v371q0 23 15.5 39t38.5 16t39 -16t16 -39v-372q0 -27 7.5 -51t22 -42t35.5 -28.5t47 -10.5q27 0 50 10.5t39.5 28.5
t25.5 42.5t9 51.5v371q0 23 16 39t39 16t38.5 -16t15.5 -39v-371q0 -50 -17.5 -94t-48.5 -77t-73.5 -52.5t-93.5 -19.5q-54 0 -96 19.5t-71 51.5q-32 -32 -71.5 -51.5t-93.5 -19.5q-50 0 -93 19.5t-74.5 52.5t-49 77t-17.5 94v371zM403 824q13 9 27 9q18 0 32 -11l61 -44
q11 -8 17 -20t6 -23q0 -23 -17.5 -38.5t-38.5 -15.5q-8 0 -15.5 2t-14.5 8q-10 7 -15.5 10t-15.5 10q-8 -5 -13.5 -10t-13.5 -10q-16 -10 -31 -10q-23 0 -39 15.5t-16 38.5q0 11 6 23t17 20z" />
    <glyph glyph-name="Wdieresis" unicode="&#x1e84;" horiz-adv-x="863" 
d="M32 609q0 23 16 39t38 16q23 0 39 -16t16 -39v-371q0 -27 9 -51.5t25.5 -42.5t39.5 -28.5t51 -10.5q27 0 47.5 10.5t34.5 28.5t21.5 42.5t7.5 51.5v371q0 23 15.5 39t38.5 16t39 -16t16 -39v-372q0 -27 7.5 -51t22 -42t35.5 -28.5t47 -10.5q27 0 50 10.5t39.5 28.5
t25.5 42.5t9 51.5v371q0 23 16 39t39 16t38.5 -16t15.5 -39v-371q0 -50 -17.5 -94t-48.5 -77t-73.5 -52.5t-93.5 -19.5q-54 0 -96 19.5t-71 51.5q-32 -32 -71.5 -51.5t-93.5 -19.5q-50 0 -93 19.5t-74.5 52.5t-49 77t-17.5 94v371zM317 773q0 23 15.5 38.5t37.5 15.5
t38 -15.5t16 -38.5v-27q0 -22 -15.5 -37.5t-38.5 -15.5q-21 0 -37 15.5t-16 37.5v27zM439 773q0 23 15.5 38.5t37.5 15.5t38 -15.5t16 -38.5v-27q0 -22 -15.5 -37.5t-38.5 -15.5q-21 0 -37 15.5t-16 37.5v27z" />
    <glyph glyph-name="Wgrave" unicode="&#x1e80;" horiz-adv-x="863" 
d="M32 609q0 23 16 39t38 16q23 0 39 -16t16 -39v-371q0 -27 9 -51.5t25.5 -42.5t39.5 -28.5t51 -10.5q27 0 47.5 10.5t34.5 28.5t21.5 42.5t7.5 51.5v371q0 23 15.5 39t38.5 16t39 -16t16 -39v-372q0 -27 7.5 -51t22 -42t35.5 -28.5t47 -10.5q27 0 50 10.5t39.5 28.5
t25.5 42.5t9 51.5v371q0 23 16 39t39 16t38.5 -16t15.5 -39v-371q0 -50 -17.5 -94t-48.5 -77t-73.5 -52.5t-93.5 -19.5q-54 0 -96 19.5t-71 51.5q-32 -32 -71.5 -51.5t-93.5 -19.5q-50 0 -93 19.5t-74.5 52.5t-49 77t-17.5 94v371zM337 772v-1q-8 13 -8 29q0 21 16 37t39 16
q29 0 45 -26l38 -66q5 -8 6 -15t1 -13q0 -22 -15 -37.5t-38 -15.5q-29 0 -46 26z" />
    <glyph glyph-name="Ycircumflex" unicode="&#x176;" horiz-adv-x="545" 
d="M28 609q0 23 16 39t39 16q22 0 38.5 -16t16.5 -39v-188q0 -27 10.5 -51t29 -42t43 -28.5t52.5 -10.5t52 10.5t42 28.5t28.5 42t10.5 51v188q0 23 16 39t39 16q22 0 38.5 -16t16.5 -39v-188q0 -42 -14.5 -80.5t-39.5 -70t-60 -53.5t-75 -31v-135q0 -23 -15.5 -39
t-38.5 -16t-39 16t-16 39v135q-41 9 -75.5 31t-60 53.5t-40 70t-14.5 80.5v188zM244 805q13 9 27 9q18 0 32 -11l61 -44q11 -8 17 -20t6 -23q0 -23 -17.5 -38.5t-38.5 -15.5q-8 0 -15.5 2t-14.5 8q-10 7 -15.5 10t-15.5 10q-8 -5 -13.5 -10t-13.5 -10q-16 -10 -31 -10
q-23 0 -39 15.5t-16 38.5q0 11 6 23t17 20z" />
    <glyph glyph-name="Ygrave" unicode="&#x1ef2;" horiz-adv-x="545" 
d="M28 609q0 23 16 39t39 16q22 0 38.5 -16t16.5 -39v-188q0 -27 10.5 -51t29 -42t43 -28.5t52.5 -10.5t52 10.5t42 28.5t28.5 42t10.5 51v188q0 23 16 39t39 16q22 0 38.5 -16t16.5 -39v-188q0 -42 -14.5 -80.5t-39.5 -70t-60 -53.5t-75 -31v-135q0 -23 -15.5 -39
t-38.5 -16t-39 16t-16 39v135q-41 9 -75.5 31t-60 53.5t-40 70t-14.5 80.5v188zM208 734v-1q-8 13 -8 29q0 21 16 37t39 16q29 0 45 -26l38 -66q5 -8 6 -15t1 -13q0 -22 -15 -37.5t-38 -15.5q-29 0 -46 26z" />
    <glyph glyph-name="ccircumflex" unicode="&#x109;" horiz-adv-x="415" 
d="M29 315q0 39 15 73t41 58.5t60.5 39t73.5 14.5q7 0 28 -3t46.5 -14.5t51 -34.5t42.5 -64q2 -4 3 -9t1 -10q0 -23 -15.5 -38.5t-38.5 -15.5q-16 0 -29.5 9t-19.5 24q-10 22 -30 35t-43 13q-33 0 -56 -22.5t-23 -54.5v-134q0 -16 6.5 -30t17 -24.5t25 -16.5t30.5 -6
q23 0 43 12.5t30 35.5q6 14 19 23.5t30 9.5q23 0 38.5 -16t15.5 -38q0 -8 -5 -20q-20 -45 -49 -68.5t-56 -34t-46 -11.5t-20 -1q-38 0 -72 14.5t-59.5 40t-40 59t-14.5 71.5v134zM179 642q13 9 27 9q18 0 32 -11l61 -44q11 -8 17 -20t6 -23q0 -23 -17.5 -38.5t-38.5 -15.5
q-8 0 -15.5 2t-14.5 8q-10 7 -15.5 10t-15.5 10q-8 -5 -13.5 -10t-13.5 -10q-16 -10 -31 -10q-23 0 -39 15.5t-16 38.5q0 11 6 23t17 20z" />
    <glyph glyph-name="cdotaccent" unicode="&#x10b;" horiz-adv-x="415" 
d="M29 315q0 39 15 73t41 58.5t60.5 39t73.5 14.5q7 0 28 -3t46.5 -14.5t51 -34.5t42.5 -64q2 -4 3 -9t1 -10q0 -23 -15.5 -38.5t-38.5 -15.5q-16 0 -29.5 9t-19.5 24q-10 22 -30 35t-43 13q-33 0 -56 -22.5t-23 -54.5v-134q0 -16 6.5 -30t17 -24.5t25 -16.5t30.5 -6
q23 0 43 12.5t30 35.5q6 14 19 23.5t30 9.5q23 0 38.5 -16t15.5 -38q0 -8 -5 -20q-20 -45 -49 -68.5t-56 -34t-46 -11.5t-20 -1q-38 0 -72 14.5t-59.5 40t-40 59t-14.5 71.5v134zM154 593q0 23 15.5 38.5t38.5 15.5q21 0 37 -15.5t16 -38.5q0 -22 -15.5 -37.5t-37.5 -15.5
t-38 15.5t-16 37.5z" />
    <glyph glyph-name="gbreve" unicode="&#x11f;" horiz-adv-x="433" 
d="M29 315q0 38 14.5 71.5t40 59t59 40t72.5 14.5q38 0 71.5 -14.5t59 -40t40.5 -59t15 -71.5v-293q0 -38 -15 -72t-40.5 -59t-59 -39.5t-71.5 -14.5q-23 0 -38.5 15.5t-15.5 38.5q0 22 15.5 37.5t38.5 15.5q29 0 51.5 20.5t25.5 49.5q-36 -18 -77 -18q-38 0 -72 14.5
t-59.5 40t-40 59t-14.5 71.5v134zM136 181q0 -16 6.5 -30t17 -24.5t25 -16.5t30.5 -6q31 0 53.5 21t24.5 52v138q0 32 -23 54.5t-55 22.5q-34 0 -56.5 -22.5t-22.5 -54.5v-134zM215 617q8 0 18.5 5.5t18.5 11.5q10 7 19 17q13 10 27.5 6.5t25 -15.5t14 -28t-4.5 -30
q-2 -3 -11.5 -15t-24.5 -25t-35 -23.5t-43 -10.5h-6q-23 0 -43 10.5t-35 23.5t-24.5 25t-11.5 15q-8 14 -4.5 30t13.5 28t24.5 15.5t28.5 -6.5q9 -10 19 -17q8 -6 17.5 -11.5t17.5 -5.5z" />
    <glyph glyph-name="amacron" unicode="&#x101;" horiz-adv-x="432" 
d="M29 315q0 38 14.5 71.5t40 59t59 40t72.5 14.5q38 0 72 -14.5t59.5 -40t40 -59t14.5 -71.5v-261q0 -23 -16 -38.5t-37 -15.5q-11 0 -22.5 6t-19.5 13q-43 -23 -91 -23q-38 0 -72 14.5t-59.5 40t-40 59t-14.5 71.5v134zM137 181q0 -32 23 -54.5t55 -22.5t54.5 21t24.5 52
v138q0 16 -6.5 30t-17 24.5t-25 16.5t-30.5 6q-33 0 -55.5 -22.5t-22.5 -54.5v-134zM126 535q-22 0 -37.5 15.5t-15.5 38.5q0 21 15.5 37t37.5 16h178q23 0 38.5 -15.5t15.5 -37.5t-15.5 -38t-38.5 -16h-178z" />
    <glyph glyph-name="gcircumflex" unicode="&#x11d;" horiz-adv-x="433" 
d="M29 315q0 38 14.5 71.5t40 59t59 40t72.5 14.5q38 0 71.5 -14.5t59 -40t40.5 -59t15 -71.5v-293q0 -38 -15 -72t-40.5 -59t-59 -39.5t-71.5 -14.5q-23 0 -38.5 15.5t-15.5 38.5q0 22 15.5 37.5t38.5 15.5q29 0 51.5 20.5t25.5 49.5q-36 -18 -77 -18q-38 0 -72 14.5
t-59.5 40t-40 59t-14.5 71.5v134zM136 181q0 -16 6.5 -30t17 -24.5t25 -16.5t30.5 -6q31 0 53.5 21t24.5 52v138q0 32 -23 54.5t-55 22.5q-34 0 -56.5 -22.5t-22.5 -54.5v-134zM188 642q13 9 27 9q18 0 32 -11l61 -44q11 -8 17 -20t6 -23q0 -23 -17.5 -38.5t-38.5 -15.5
q-8 0 -15.5 2t-14.5 8q-10 7 -15.5 10t-15.5 10q-8 -5 -13.5 -10t-13.5 -10q-16 -10 -31 -10q-23 0 -39 15.5t-16 38.5q0 11 6 23t17 20z" />
    <glyph glyph-name="gcommaaccent" unicode="&#x123;" horiz-adv-x="433" 
d="M29 315q0 38 14.5 71.5t40 59t59 40t72.5 14.5q38 0 71.5 -14.5t59 -40t40.5 -59t15 -71.5v-293q0 -38 -15 -72t-40.5 -59t-59 -39.5t-71.5 -14.5q-23 0 -38.5 15.5t-15.5 38.5q0 22 15.5 37.5t38.5 15.5q29 0 51.5 20.5t25.5 49.5q-36 -18 -77 -18q-38 0 -72 14.5
t-59.5 40t-40 59t-14.5 71.5v134zM136 181q0 -16 6.5 -30t17 -24.5t25 -16.5t30.5 -6q31 0 53.5 21t24.5 52v138q0 32 -23 54.5t-55 22.5q-34 0 -56.5 -22.5t-22.5 -54.5v-134zM144 689q0 20 16.5 37t36.5 17h37q23 0 38.5 -16t15.5 -38q0 -18 -9.5 -31.5t-26.5 -19.5v-22
q0 -22 -16 -38t-38 -16q-23 0 -38.5 16t-15.5 38v73z" />
    <glyph glyph-name="gdotaccent" unicode="&#x121;" horiz-adv-x="433" 
d="M29 315q0 38 14.5 71.5t40 59t59 40t72.5 14.5q38 0 71.5 -14.5t59 -40t40.5 -59t15 -71.5v-293q0 -38 -15 -72t-40.5 -59t-59 -39.5t-71.5 -14.5q-23 0 -38.5 15.5t-15.5 38.5q0 22 15.5 37.5t38.5 15.5q29 0 51.5 20.5t25.5 49.5q-36 -18 -77 -18q-38 0 -72 14.5
t-59.5 40t-40 59t-14.5 71.5v134zM136 181q0 -16 6.5 -30t17 -24.5t25 -16.5t30.5 -6q31 0 53.5 21t24.5 52v138q0 32 -23 54.5t-55 22.5q-34 0 -56.5 -22.5t-22.5 -54.5v-134zM163 593q0 23 15.5 38.5t38.5 15.5q21 0 37 -15.5t16 -38.5q0 -22 -15.5 -37.5t-37.5 -15.5
t-38 15.5t-16 37.5z" />
    <glyph glyph-name="edotaccent" unicode="&#x117;" horiz-adv-x="430" 
d="M29 315q0 38 14.5 71.5t40 59t59 40t72.5 14.5q38 0 72 -14.5t59.5 -40t40 -59t14.5 -71.5v-67q0 -23 -15.5 -38.5t-37.5 -15.5h-211v-13q0 -32 23 -54.5t55 -22.5q12 0 27.5 3t29.5 20q6 7 15 14.5t19.5 11.5t22.5 3.5t24 -9.5q16 -11 21.5 -31.5t-10.5 -43.5
q-22 -29 -57 -52.5t-92 -23.5q-38 0 -72 14.5t-59.5 40t-40 59t-14.5 71.5v134zM137 302h157v13q0 16 -6.5 30t-17 24.5t-25 16.5t-30.5 6q-33 0 -55.5 -22.5t-22.5 -54.5v-13zM161 593q0 23 15.5 38.5t38.5 15.5q21 0 37 -15.5t16 -38.5q0 -22 -15.5 -37.5t-37.5 -15.5
t-38 15.5t-16 37.5z" />
    <glyph glyph-name="emacron" unicode="&#x113;" horiz-adv-x="430" 
d="M29 315q0 38 14.5 71.5t40 59t59 40t72.5 14.5q38 0 72 -14.5t59.5 -40t40 -59t14.5 -71.5v-67q0 -23 -15.5 -38.5t-37.5 -15.5h-211v-13q0 -32 23 -54.5t55 -22.5q12 0 27.5 3t29.5 20q6 7 15 14.5t19.5 11.5t22.5 3.5t24 -9.5q16 -11 21.5 -31.5t-10.5 -43.5
q-22 -29 -57 -52.5t-92 -23.5q-38 0 -72 14.5t-59.5 40t-40 59t-14.5 71.5v134zM137 302h157v13q0 16 -6.5 30t-17 24.5t-25 16.5t-30.5 6q-33 0 -55.5 -22.5t-22.5 -54.5v-13zM125 535q-22 0 -37.5 15.5t-15.5 38.5q0 21 15.5 37t37.5 16h178q23 0 38.5 -15.5t15.5 -37.5
t-15.5 -38t-38.5 -16h-178z" />
    <glyph glyph-name="iogonek" unicode="&#x12f;" horiz-adv-x="173" 
d="M33 446q0 23 15.5 38.5t37.5 15.5t38 -15.5t16 -38.5v-396q0 -23 -15.5 -38.5t-38.5 -15.5q-21 0 -37 15.5t-16 38.5v396zM33 605q0 23 15.5 38.5t37.5 15.5t38 -15.5t16 -38.5v-27q0 -22 -15.5 -37.5t-38.5 -15.5q-21 0 -37 15.5t-16 37.5v27zM36 18q0 8 5 13t13 5h71
q8 0 13 -5t5 -13v-16q0 -5 2 -10t5 -12q6 -14 11.5 -28t5.5 -29q0 -14 -5.5 -27t-20 -22.5t-39.5 -15t-63 -5.5q-22 0 -37.5 15.5t-15.5 37.5q0 15 5.5 24.5t14 15t18.5 8t20 4.5q1 1 5 1q-1 1 -1 2q-5 8 -8.5 18t-3.5 23v16z" />
    <glyph glyph-name="kcommaaccent" unicode="&#x137;" horiz-adv-x="421" 
d="M33 602q0 23 15.5 38.5t38.5 15.5q21 0 37 -15.5t16 -38.5v-237q38 30 76 61l76 62q15 12 34 12q20 0 36 -15t16 -39q0 -12 -4 -23t-14 -19l-135 -109q45 -54 87 -105.5t88 -105.5q13 -16 13 -35q0 -20 -15.5 -36.5t-37.5 -16.5q-26 0 -42 19l-177 214l-1 -1v-178
q0 -23 -15.5 -38.5t-37.5 -15.5t-38 15.5t-16 38.5v552zM157 -94q0 22 15.5 37.5t37.5 15.5t38 -15.5t16 -37.5v-76q0 -23 -15.5 -38.5t-38.5 -15.5q-21 0 -37 15.5t-16 38.5v76z" />
    <glyph glyph-name="lcommaaccent" unicode="&#x13c;" horiz-adv-x="173" 
d="M33 602q0 23 15.5 38.5t37.5 15.5t38 -15.5t16 -38.5v-552q0 -23 -15.5 -38.5t-38.5 -15.5q-21 0 -37 15.5t-16 38.5v552zM34 -94q0 22 15.5 37.5t37.5 15.5t38 -15.5t16 -37.5v-76q0 -23 -15.5 -38.5t-38.5 -15.5q-21 0 -37 15.5t-16 38.5v76z" />
    <glyph glyph-name="ldot" unicode="&#x140;" horiz-adv-x="329" 
d="M33 602q0 23 15.5 38.5t37.5 15.5t38 -15.5t16 -38.5v-552q0 -23 -15.5 -38.5t-38.5 -15.5q-21 0 -37 15.5t-16 38.5v552zM198 267q0 22 15.5 37.5t38.5 15.5q21 0 37 -15.5t16 -37.5q0 -23 -15.5 -38.5t-37.5 -15.5t-38 15.5t-16 38.5z" />
    <glyph glyph-name="hbar" unicode="&#x127;" horiz-adv-x="437" 
d="M33 602q0 23 15.5 38.5t38.5 15.5q21 0 37 -15.5t16 -38.5v-120q18 8 37.5 13t41.5 5q38 0 72 -14.5t59.5 -40t40 -59t14.5 -71.5v-265q0 -23 -16 -38.5t-38 -15.5t-37.5 15.5t-15.5 38.5v265q0 32 -23.5 54.5t-55.5 22.5q-33 0 -55 -21.5t-24 -53.5v-267
q0 -23 -16 -38.5t-37 -15.5q-23 0 -38.5 15.5t-15.5 38.5v552zM55 521q-22 0 -37.5 15.5t-15.5 38.5q0 21 15.5 37t37.5 16h178q23 0 38.5 -15.5t15.5 -37.5t-15.5 -38t-38.5 -16h-178z" />
    <glyph glyph-name="hcircumflex" unicode="&#x125;" horiz-adv-x="437" 
d="M33 602q0 23 15.5 38.5t38.5 15.5q21 0 37 -15.5t16 -38.5v-120q18 8 37.5 13t41.5 5q38 0 72 -14.5t59.5 -40t40 -59t14.5 -71.5v-265q0 -23 -16 -38.5t-38 -15.5t-37.5 15.5t-15.5 38.5v265q0 32 -23.5 54.5t-55.5 22.5q-33 0 -55 -21.5t-24 -53.5v-267
q0 -23 -16 -38.5t-37 -15.5q-23 0 -38.5 15.5t-15.5 38.5v552zM239 781q13 9 27 9q18 0 32 -11l61 -44q11 -8 17 -20t6 -23q0 -23 -17.5 -38.5t-38.5 -15.5q-8 0 -15.5 2t-14.5 8q-10 7 -15.5 10t-15.5 10q-8 -5 -13.5 -10t-13.5 -10q-16 -10 -31 -10q-23 0 -39 15.5
t-16 38.5q0 11 6 23t17 20z" />
    <glyph glyph-name="ncommaaccent" unicode="&#x146;" 
d="M32 315q0 38 14.5 71.5t40 59t59 40t72.5 14.5q38 0 72 -14.5t59.5 -40t40 -59t14.5 -71.5v-265q0 -23 -16 -38.5t-38 -15.5t-37.5 15.5t-15.5 38.5v265q0 16 -6.5 30t-17 24.5t-25 16.5t-30.5 6q-33 0 -56 -22.5t-23 -54.5v-265q0 -23 -16 -38.5t-37 -15.5
q-23 0 -38.5 15.5t-15.5 38.5v265zM164 -94q0 22 15.5 37.5t37.5 15.5t38 -15.5t16 -37.5v-76q0 -23 -15.5 -38.5t-38.5 -15.5q-21 0 -37 15.5t-16 38.5v76z" />
    <glyph glyph-name="obreve" unicode="&#x14f;" horiz-adv-x="430" 
d="M29 315q0 38 14.5 71.5t40 59t59 40t72.5 14.5q38 0 72 -14.5t59.5 -40t40 -59t14.5 -71.5v-134q0 -38 -14.5 -71.5t-40 -59t-59 -40t-72.5 -14.5q-38 0 -72 14.5t-59.5 40t-40 59t-14.5 71.5v134zM137 181q0 -32 23 -54.5t55 -22.5q34 0 56.5 22.5t22.5 54.5v134
q0 16 -6.5 30t-17 24.5t-25 16.5t-30.5 6q-33 0 -55.5 -22.5t-22.5 -54.5v-134zM214 617q8 0 18.5 5.5t18.5 11.5q10 7 19 17q13 10 27.5 6.5t25 -15.5t14 -28t-4.5 -30q-2 -3 -11.5 -15t-24.5 -25t-35 -23.5t-43 -10.5h-6q-23 0 -43 10.5t-35 23.5t-24.5 25t-11.5 15
q-8 14 -4.5 30t13.5 28t24.5 15.5t28.5 -6.5q9 -10 19 -17q8 -6 17.5 -11.5t17.5 -5.5z" />
    <glyph glyph-name="oslashacute" unicode="&#x1ff;" horiz-adv-x="430" 
d="M29 315q0 38 14.5 71.5t40 59t59 40t72.5 14.5q38 0 72 -14.5t59.5 -40t40 -59t14.5 -71.5v-134q0 -38 -14.5 -71.5t-40 -59t-59 -40t-72.5 -14.5q-38 0 -72 14.5t-59.5 40t-40 59t-14.5 71.5v134zM137 181q0 -32 23 -54.5t55 -22.5q34 0 56.5 22.5t22.5 54.5v134
q0 16 -6.5 30t-17 24.5t-25 16.5t-30.5 6q-33 0 -55.5 -22.5t-22.5 -54.5v-134zM328 622q6 11 16.5 17t21.5 8q24 3 41 -11t20 -35q1 -8 -0.5 -17.5t-6.5 -17.5q-42 -73 -80.5 -140.5t-76.5 -133.5t-76.5 -133t-80.5 -140q-6 -11 -16 -17t-21 -8q-25 -3 -42.5 12t-20.5 35
q-2 19 8 35zM188 666q16 26 46 26q23 0 38 -16t15 -37q0 -7 -1 -14.5t-6 -14.5v1q-9 -16 -19 -32.5t-19 -33.5q-16 -26 -45 -26q-23 0 -39 15.5t-16 37.5q0 14 8 28z" />
    <glyph glyph-name="rcommaaccent" unicode="&#x157;" horiz-adv-x="348" 
d="M33 442q0 23 15.5 38.5t37.5 15.5q25 0 42 -20q43 24 94 24l19 -2t41.5 -9t41.5 -22t19 -40q0 -24 -15.5 -39t-38.5 -15q-17 0 -32 10q-9 5 -18 7t-20 2q-33 0 -55 -21.5t-24 -52.5v-268q0 -23 -15.5 -38.5t-38.5 -15.5q-21 0 -37 15.5t-16 38.5v392zM34 -94
q0 22 15.5 37.5t37.5 15.5t38 -15.5t16 -37.5v-76q0 -23 -15.5 -38.5t-38.5 -15.5q-21 0 -37 15.5t-16 38.5v76z" />
    <glyph glyph-name="scedilla" unicode="&#x15f;" horiz-adv-x="419" 
d="M34 352q0 33 13 60t36.5 46.5t56 30.5t70.5 11q31 -1 60 -10q25 -8 51 -24t43 -46q9 -15 9 -30q0 -22 -15 -37.5t-37 -15.5q-11 0 -23 5.5t-20 16.5v-1q-14 18 -29 26t-39 8q-31 0 -50 -11.5t-19 -28.5q0 -23 18.5 -32t50.5 -9q38 0 72 -10t59.5 -30t40 -49t14.5 -68
q0 -40 -15 -69.5t-40.5 -49t-60 -29.5t-72.5 -10q-8 0 -30 2.5t-49 13.5t-54.5 34.5t-45.5 64.5q-4 8 -4 20q0 22 15.5 38t38.5 16q17 0 30 -9.5t19 -23.5q10 -23 34 -35.5t48 -12.5q32 0 55.5 10.5t23.5 39.5t-22.5 39.5t-56.5 10.5q-38 0 -70.5 7.5t-56 24.5t-36.5 45.5
t-13 70.5zM169 19q0 8 5 13t13 5h71q8 0 13 -5t5 -13v-16q0 -5 2 -10t5 -12q6 -14 11.5 -28t5.5 -29q0 -14 -5.5 -27t-20 -22.5t-39.5 -15t-63 -5.5q-22 0 -37.5 15.5t-15.5 37.5q0 15 5.5 24.5t14 15t18.5 8t20 4.5q1 1 5 1q-1 1 -1 2q-5 8 -8.5 18t-3.5 23v16z" />
    <glyph glyph-name="scircumflex" unicode="&#x15d;" horiz-adv-x="419" 
d="M34 352q0 33 13 60t36.5 46.5t56 30.5t70.5 11q31 -1 60 -10q25 -8 51 -24t43 -46q9 -15 9 -30q0 -22 -15 -37.5t-37 -15.5q-11 0 -23 5.5t-20 16.5v-1q-14 18 -29 26t-39 8q-31 0 -50 -11.5t-19 -28.5q0 -23 18.5 -32t50.5 -9q38 0 72 -10t59.5 -30t40 -49t14.5 -68
q0 -40 -15 -69.5t-40.5 -49t-60 -29.5t-72.5 -10q-8 0 -30 2.5t-49 13.5t-54.5 34.5t-45.5 64.5q-4 8 -4 20q0 22 15.5 38t38.5 16q17 0 30 -9.5t19 -23.5q10 -23 34 -35.5t48 -12.5q32 0 55.5 10.5t23.5 39.5t-22.5 39.5t-56.5 10.5q-38 0 -70.5 7.5t-56 24.5t-36.5 45.5
t-13 70.5zM181 658q13 9 27 9q18 0 32 -11l61 -44q11 -8 17 -20t6 -23q0 -23 -17.5 -38.5t-38.5 -15.5q-8 0 -15.5 2t-14.5 8q-10 7 -15.5 10t-15.5 10q-8 -5 -13.5 -10t-13.5 -10q-16 -10 -31 -10q-23 0 -39 15.5t-16 38.5q0 11 6 23t17 20z" />
    <glyph glyph-name="tbar" unicode="&#x167;" horiz-adv-x="401" 
d="M33 595q0 23 15.5 38.5t37.5 15.5t38 -15.5t16 -38.5v-99h161q23 0 38.5 -15.5t15.5 -38.5q0 -21 -15.5 -37t-38.5 -16h-161v-208q0 -16 6.5 -30t17 -24.5t25 -16.5t30.5 -6q23 0 43 12.5t30 35.5q6 14 19 23.5t30 9.5q23 0 38.5 -16t15.5 -38q0 -8 -5 -20
q-20 -45 -49 -68.5t-56 -34t-46 -11.5t-20 -1q-38 0 -72 14.5t-59.5 40t-40 59t-14.5 71.5v414zM52 229q-22 0 -37.5 15.5t-15.5 38.5q0 21 15.5 37t37.5 16h178q23 0 38.5 -15.5t15.5 -37.5t-15.5 -38t-38.5 -16h-178z" />
    <glyph glyph-name="ubreve" unicode="&#x16d;" 
d="M32 446q0 23 15.5 38.5t38.5 15.5q21 0 37 -15.5t16 -38.5v-265q0 -32 23 -54.5t56 -22.5q16 0 30.5 6t25 16.5t17 24.5t6.5 30v265q0 23 15.5 38.5t37.5 15.5t38 -15.5t16 -38.5v-265q0 -38 -14.5 -71.5t-40 -59t-59.5 -40t-72 -14.5q-39 0 -72.5 14.5t-59 40t-40 59
t-14.5 71.5v265zM217 617q8 0 18.5 5.5t18.5 11.5q10 7 19 17q13 10 27.5 6.5t25 -15.5t14 -28t-4.5 -30q-2 -3 -11.5 -15t-24.5 -25t-35 -23.5t-43 -10.5h-6q-23 0 -43 10.5t-35 23.5t-24.5 25t-11.5 15q-8 14 -4.5 30t13.5 28t24.5 15.5t28.5 -6.5q9 -10 19 -17
q8 -6 17.5 -11.5t17.5 -5.5z" />
    <glyph glyph-name="umacron" unicode="&#x16b;" 
d="M32 446q0 23 15.5 38.5t38.5 15.5q21 0 37 -15.5t16 -38.5v-265q0 -32 23 -54.5t56 -22.5q16 0 30.5 6t25 16.5t17 24.5t6.5 30v265q0 23 15.5 38.5t37.5 15.5t38 -15.5t16 -38.5v-265q0 -38 -14.5 -71.5t-40 -59t-59.5 -40t-72 -14.5q-39 0 -72.5 14.5t-59 40t-40 59
t-14.5 71.5v265zM128 535q-22 0 -37.5 15.5t-15.5 38.5q0 21 15.5 37t37.5 16h178q23 0 38.5 -15.5t15.5 -37.5t-15.5 -38t-38.5 -16h-178z" />
    <glyph glyph-name="uogonek" unicode="&#x173;" 
d="M32 446q0 23 15.5 38.5t38.5 15.5q21 0 37 -15.5t16 -38.5v-265q0 -32 23 -54.5t56 -22.5q16 0 30.5 6t25 16.5t17 24.5t6.5 30v265q0 23 15.5 38.5t37.5 15.5t38 -15.5t16 -38.5v-265q0 -38 -14.5 -71.5t-40 -59t-59.5 -40t-72 -14.5q-39 0 -72.5 14.5t-59 40t-40 59
t-14.5 71.5v265zM171 -1q0 8 5 13t13 5h71q8 0 13 -5t5 -13v-16q0 -5 2 -10t5 -12q6 -14 11.5 -28t5.5 -29q0 -14 -5.5 -27t-20 -22.5t-39.5 -15t-63 -5.5q-22 0 -37.5 15.5t-15.5 37.5q0 15 5.5 24.5t14 15t18.5 8t20 4.5q1 1 5 1q-1 1 -1 2q-5 8 -8.5 18t-3.5 23v16z" />
    <glyph glyph-name="utilde" unicode="&#x169;" 
d="M32 446q0 23 15.5 38.5t38.5 15.5q21 0 37 -15.5t16 -38.5v-265q0 -32 23 -54.5t56 -22.5q16 0 30.5 6t25 16.5t17 24.5t6.5 30v265q0 23 15.5 38.5t37.5 15.5t38 -15.5t16 -38.5v-265q0 -38 -14.5 -71.5t-40 -59t-59.5 -40t-72 -14.5q-39 0 -72.5 14.5t-59 40t-40 59
t-14.5 71.5v265zM77 583q0 19 11 32t26 20.5t31.5 10.5t27.5 3q7 0 19.5 -3t20.5 -6q18 -7 31 -6.5t23.5 4t19 7.5t17.5 4q22 0 38 -15.5t16 -38.5q0 -19 -12 -31.5t-28.5 -20t-34.5 -10.5t-30 -3q-19 0 -36 5t-30 5q-17 0 -29.5 -5t-25.5 -5q-21 0 -38 15.5t-17 37.5z" />
    <glyph glyph-name="wacute" unicode="&#x1e83;" horiz-adv-x="663" 
d="M32 446q0 23 16 38.5t37 15.5q23 0 38.5 -15.5t15.5 -38.5v-265q0 -32 19 -54.5t50 -22.5q33 0 51.5 22.5t18.5 54.5v265q0 23 16 38.5t37 15.5q23 0 38.5 -15.5t15.5 -38.5v-265q0 -32 19 -54.5t51 -22.5t50.5 22.5t18.5 54.5v265q0 23 16 38.5t38 15.5t37.5 -15.5
t15.5 -38.5v-265q0 -38 -13 -71.5t-36.5 -59t-55.5 -40t-71 -14.5q-38 0 -69 14t-55 37q-23 -25 -53.5 -38t-69.5 -13q-38 0 -70.5 14.5t-56 40t-36.5 59t-13 71.5v265zM321 663q16 26 46 26q23 0 38 -16t15 -37q0 -7 -1 -14.5t-6 -14.5v1q-9 -16 -19 -32.5t-19 -33.5
q-16 -26 -45 -26q-23 0 -39 15.5t-16 37.5q0 14 8 28z" />
    <glyph glyph-name="wcircumflex" unicode="&#x175;" horiz-adv-x="663" 
d="M32 446q0 23 16 38.5t37 15.5q23 0 38.5 -15.5t15.5 -38.5v-265q0 -32 19 -54.5t50 -22.5q33 0 51.5 22.5t18.5 54.5v265q0 23 16 38.5t37 15.5q23 0 38.5 -15.5t15.5 -38.5v-265q0 -32 19 -54.5t51 -22.5t50.5 22.5t18.5 54.5v265q0 23 16 38.5t38 15.5t37.5 -15.5
t15.5 -38.5v-265q0 -38 -13 -71.5t-36.5 -59t-55.5 -40t-71 -14.5q-38 0 -69 14t-55 37q-23 -25 -53.5 -38t-69.5 -13q-38 0 -70.5 14.5t-56 40t-36.5 59t-13 71.5v265zM303 659q13 9 27 9q18 0 32 -11l61 -44q11 -8 17 -20t6 -23q0 -23 -17.5 -38.5t-38.5 -15.5
q-8 0 -15.5 2t-14.5 8q-10 7 -15.5 10t-15.5 10q-8 -5 -13.5 -10t-13.5 -10q-16 -10 -31 -10q-23 0 -39 15.5t-16 38.5q0 11 6 23t17 20z" />
    <glyph glyph-name="wdieresis" unicode="&#x1e85;" horiz-adv-x="663" 
d="M32 446q0 23 16 38.5t37 15.5q23 0 38.5 -15.5t15.5 -38.5v-265q0 -32 19 -54.5t50 -22.5q33 0 51.5 22.5t18.5 54.5v265q0 23 16 38.5t37 15.5q23 0 38.5 -15.5t15.5 -38.5v-265q0 -32 19 -54.5t51 -22.5t50.5 22.5t18.5 54.5v265q0 23 16 38.5t38 15.5t37.5 -15.5
t15.5 -38.5v-265q0 -38 -13 -71.5t-36.5 -59t-55.5 -40t-71 -14.5q-38 0 -69 14t-55 37q-23 -25 -53.5 -38t-69.5 -13q-38 0 -70.5 14.5t-56 40t-36.5 59t-13 71.5v265zM217 610q0 23 15.5 38.5t37.5 15.5t38 -15.5t16 -38.5v-27q0 -22 -15.5 -37.5t-38.5 -15.5
q-21 0 -37 15.5t-16 37.5v27zM339 610q0 23 15.5 38.5t37.5 15.5t38 -15.5t16 -38.5v-27q0 -22 -15.5 -37.5t-38.5 -15.5q-21 0 -37 15.5t-16 37.5v27z" />
    <glyph glyph-name="wgrave" unicode="&#x1e81;" horiz-adv-x="663" 
d="M32 446q0 23 16 38.5t37 15.5q23 0 38.5 -15.5t15.5 -38.5v-265q0 -32 19 -54.5t50 -22.5q33 0 51.5 22.5t18.5 54.5v265q0 23 16 38.5t37 15.5q23 0 38.5 -15.5t15.5 -38.5v-265q0 -32 19 -54.5t51 -22.5t50.5 22.5t18.5 54.5v265q0 23 16 38.5t38 15.5t37.5 -15.5
t15.5 -38.5v-265q0 -38 -13 -71.5t-36.5 -59t-55.5 -40t-71 -14.5q-38 0 -69 14t-55 37q-23 -25 -53.5 -38t-69.5 -13q-38 0 -70.5 14.5t-56 40t-36.5 59t-13 71.5v265zM237 605v-1q-8 13 -8 29q0 21 16 37t39 16q29 0 45 -26l38 -66q5 -8 6 -15t1 -13q0 -22 -15 -37.5
t-38 -15.5q-29 0 -46 26z" />
    <glyph glyph-name="ycircumflex" unicode="&#x177;" 
d="M32 446q0 23 15.5 38.5t38.5 15.5q22 0 38 -15.5t16 -38.5v-273q0 -32 22.5 -54.5t55.5 -22.5q16 0 30.5 6t25 16.5t17 24.5t6.5 30v273q0 23 15.5 38.5t38.5 15.5q21 0 37 -15.5t16 -38.5v-273q0 -32 -10 -60.5t-27.5 -51.5t-41.5 -40t-53 -25v-105q0 -23 -15.5 -38.5
t-38.5 -15.5q-21 0 -37 15.5t-16 38.5v105q-29 8 -53.5 25t-42 40t-27.5 51.5t-10 60.5v273zM190 642q13 9 27 9q18 0 32 -11l61 -44q11 -8 17 -20t6 -23q0 -23 -17.5 -38.5t-38.5 -15.5q-8 0 -15.5 2t-14.5 8q-10 7 -15.5 10t-15.5 10q-8 -5 -13.5 -10t-13.5 -10
q-16 -10 -31 -10q-23 0 -39 15.5t-16 38.5q0 11 6 23t17 20z" />
    <glyph glyph-name="ygrave" unicode="&#x1ef3;" 
d="M32 446q0 23 15.5 38.5t38.5 15.5q22 0 38 -15.5t16 -38.5v-273q0 -32 22.5 -54.5t55.5 -22.5q16 0 30.5 6t25 16.5t17 24.5t6.5 30v273q0 23 15.5 38.5t38.5 15.5q21 0 37 -15.5t16 -38.5v-273q0 -32 -10 -60.5t-27.5 -51.5t-41.5 -40t-53 -25v-105q0 -23 -15.5 -38.5
t-38.5 -15.5q-21 0 -37 15.5t-16 38.5v105q-29 8 -53.5 25t-42 40t-27.5 51.5t-10 60.5v273zM153 571v-1q-8 13 -8 29q0 21 16 37t39 16q29 0 45 -26l38 -66q5 -8 6 -15t1 -13q0 -22 -15 -37.5t-38 -15.5q-29 0 -46 26z" />
    <glyph glyph-name="Eth" unicode="&#xd0;" horiz-adv-x="550" 
d="M26 226q-22 0 -37.5 15.5t-15.5 38.5q0 21 15.5 37t37.5 16h9v272q0 23 16 39t39 16h188q51 0 95.5 -19t77.5 -51.5t52 -76t19 -93.5v-180q0 -50 -19 -93.5t-52 -76t-77.5 -51.5t-94.5 -19h-189q-23 0 -39 16t-16 39v171h-9zM144 551v-218h17q23 0 38.5 -15.5t15.5 -37.5
t-15.5 -38t-38.5 -16h-17v-117h135q28 0 52.5 10.5t42.5 28t28.5 41.5t10.5 51v180q0 27 -10.5 51t-28.5 41.5t-43 28t-53 10.5h-134z" />
    <glyph glyph-name="Dcroat" unicode="&#x110;" horiz-adv-x="572" 
d="M57 605q0 23 16 39t39 16h188q51 0 95.5 -19t77.5 -51.5t52 -76t19 -93.5v-180q0 -50 -19 -93.5t-52 -76t-77.5 -51.5t-94.5 -19h-189q-23 0 -39 16t-16 39v550zM166 551v-442h135q28 0 52.5 10.5t42.5 28t28.5 41.5t10.5 51v180q0 27 -10.5 51t-28.5 41.5t-43 28
t-53 10.5h-134zM61 325q-22 0 -37.5 15.5t-15.5 38.5q0 21 15.5 37t37.5 16h178q23 0 38.5 -15.5t15.5 -37.5t-15.5 -38t-38.5 -16h-178z" />
    <glyph glyph-name="Scommaaccent" unicode="&#x218;" horiz-adv-x="563" 
d="M143 173q15 -32 51.5 -56.5t87.5 -24.5q27 0 53 6.5t46 19.5t32.5 32.5t12.5 46.5t-12 46.5t-32 32t-46 19t-54 6.5q-51 0 -93.5 11t-74 33.5t-49 58t-17.5 85.5q0 45 16.5 81t47 61t74 38t96.5 13q1 0 24.5 -2t55.5 -12.5t66.5 -32.5t58.5 -63q3 -6 6 -15t3 -18
q0 -19 -15.5 -37t-41.5 -18q-13 0 -25 5.5t-20 14.5l1 -1q-11 13 -22 25t-24 21t-29.5 14.5t-38.5 5.5q-65 0 -93 -25t-28 -55q0 -21 9.5 -35.5t26 -23.5t39 -13t47.5 -4q52 0 99 -14t82.5 -41t56 -67.5t20.5 -93.5q0 -55 -21 -96t-56.5 -68t-83.5 -40.5t-102 -13.5
q-11 0 -41 3.5t-67.5 19t-75 47.5t-62.5 89q-7 13 -6 28.5t7.5 28t18.5 21t28 8.5q23 0 39.5 -14.5t24.5 -36.5zM228 -108q0 22 15.5 37.5t37.5 15.5t38 -15.5t16 -37.5v-76q0 -23 -15.5 -38.5t-38.5 -15.5q-21 0 -37 15.5t-16 38.5v76z" />
    <glyph glyph-name="Tcommaaccent" unicode="&#x162;" horiz-adv-x="515" 
d="M68 551q-23 0 -38.5 15.5t-15.5 38.5t15.5 39t38.5 16h378q23 0 39 -16t16 -39q0 -22 -16 -38t-39 -16h-134v-500q0 -23 -16 -39t-39 -16q-22 0 -38.5 16t-16.5 39v500h-134zM204 -94q0 22 15.5 37.5t37.5 15.5t38 -15.5t16 -37.5v-76q0 -23 -15.5 -38.5t-38.5 -15.5
q-21 0 -37 15.5t-16 38.5v76z" />
    <glyph glyph-name="dotlessj" unicode="&#x237;" horiz-adv-x="177" 
d="M-42 -56q32 0 54.5 22t24.5 53v427q0 23 16 38.5t38 15.5t37.5 -15.5t15.5 -38.5v-424q0 -38 -14.5 -72t-40 -59t-59.5 -39.5t-72 -14.5q-22 0 -37.5 15.5t-15.5 38.5q0 22 15.5 37.5t37.5 15.5z" />
    <glyph glyph-name="jcircumflex" unicode="&#x135;" horiz-adv-x="177" 
d="M-42 -56q32 0 54.5 22t24.5 53v427q0 23 16 38.5t38 15.5t37.5 -15.5t15.5 -38.5v-424q0 -38 -14.5 -72t-40 -59t-59.5 -39.5t-72 -14.5q-22 0 -37.5 15.5t-15.5 38.5q0 22 15.5 37.5t37.5 15.5zM62 661q13 9 27 9q18 0 32 -11l61 -44q11 -8 17 -20t6 -23
q0 -23 -17.5 -38.5t-38.5 -15.5q-8 0 -15.5 2t-14.5 8q-10 7 -15.5 10t-15.5 10q-8 -5 -13.5 -10t-13.5 -10q-16 -10 -31 -10q-23 0 -39 15.5t-16 38.5q0 11 6 23t17 20z" />
    <glyph glyph-name="scommaaccent" unicode="&#x219;" horiz-adv-x="419" 
d="M34 352q0 33 13 60t36.5 46.5t56 30.5t70.5 11q31 -1 60 -10q25 -8 51 -24t43 -46q9 -15 9 -30q0 -22 -15 -37.5t-37 -15.5q-11 0 -23 5.5t-20 16.5v-1q-14 18 -29 26t-39 8q-31 0 -50 -11.5t-19 -28.5q0 -23 18.5 -32t50.5 -9q38 0 72 -10t59.5 -30t40 -49t14.5 -68
q0 -40 -15 -69.5t-40.5 -49t-60 -29.5t-72.5 -10q-8 0 -30 2.5t-49 13.5t-54.5 34.5t-45.5 64.5q-4 8 -4 20q0 22 15.5 38t38.5 16q17 0 30 -9.5t19 -23.5q10 -23 34 -35.5t48 -12.5q32 0 55.5 10.5t23.5 39.5t-22.5 39.5t-56.5 10.5q-38 0 -70.5 7.5t-56 24.5t-36.5 45.5
t-13 70.5zM156 -94q0 22 15.5 37.5t37.5 15.5t38 -15.5t16 -37.5v-76q0 -23 -15.5 -38.5t-38.5 -15.5q-21 0 -37 15.5t-16 38.5v76z" />
    <glyph glyph-name="tcommaaccent" unicode="&#x163;" horiz-adv-x="401" 
d="M33 595q0 23 15.5 38.5t37.5 15.5t38 -15.5t16 -38.5v-99h161q23 0 38.5 -15.5t15.5 -38.5q0 -21 -15.5 -37t-38.5 -16h-161v-208q0 -16 6.5 -30t17 -24.5t25 -16.5t30.5 -6q23 0 43 12.5t30 35.5q6 14 19 23.5t30 9.5q23 0 38.5 -16t15.5 -38q0 -8 -5 -20
q-20 -45 -49 -68.5t-56 -34t-46 -11.5t-20 -1q-38 0 -72 14.5t-59.5 40t-40 59t-14.5 71.5v414zM147 -94q0 22 15.5 37.5t37.5 15.5t38 -15.5t16 -37.5v-76q0 -23 -15.5 -38.5t-38.5 -15.5q-21 0 -37 15.5t-16 38.5v76z" />
    <glyph glyph-name="Lcommaaccent" unicode="&#x13b;" horiz-adv-x="525" 
d="M35 609q0 23 16 39t39 16q22 0 38 -16t16 -39v-500h324q23 0 38.5 -15.5t15.5 -38.5t-15.5 -39t-38.5 -16h-378q-23 0 -39 16t-16 39v554zM209 -94q0 22 15.5 37.5t37.5 15.5t38 -15.5t16 -37.5v-76q0 -23 -15.5 -38.5t-38.5 -15.5q-21 0 -37 15.5t-16 38.5v76z" />
    </font>
</defs>
</svg>
